<svg width="18" height="18" viewBox="0 0 18 18" fill="none" xmlns="http://www.w3.org/2000/svg">
<path d="M8.99958 18C8.65859 18 8.33156 17.8645 8.09044 17.6234C7.84933 17.3823 7.71387 17.0553 7.71387 16.7143V1.28571C7.71387 0.944722 7.84933 0.617695 8.09044 0.376577C8.33156 0.135459 8.65859 0 8.99958 0C9.34057 0 9.6676 0.135459 9.90872 0.376577C10.1498 0.617695 10.2853 0.944722 10.2853 1.28571V16.7143C10.2853 17.0553 10.1498 17.3823 9.90872 17.6234C9.6676 17.8645 9.34057 18 8.99958 18Z" fill="white"/>
<path d="M16.7143 10.2863H1.28571C0.944722 10.2863 0.617695 10.1508 0.376577 9.9097C0.135459 9.66858 0 9.34155 0 9.00056C0 8.65957 0.135459 8.33254 0.376577 8.09142C0.617695 7.8503 0.944722 7.71484 1.28571 7.71484H16.7143C17.0553 7.71484 17.3823 7.8503 17.6234 8.09142C17.8645 8.33254 18 8.65957 18 9.00056C18 9.34155 17.8645 9.66858 17.6234 9.9097C17.3823 10.1508 17.0553 10.2863 16.7143 10.2863Z" fill="white"/>
</svg>
