<svg width="23" height="17" viewBox="0 0 23 17" fill="none" xmlns="http://www.w3.org/2000/svg">
<path d="M2.125 3.8125H20.875C21.7375 3.8125 22.4375 3.1125 22.4375 2.25C22.4375 1.3875 21.7375 0.6875 20.875 0.6875H2.125C1.2625 0.6875 0.5625 1.3875 0.5625 2.25C0.5625 3.1125 1.2625 3.8125 2.125 3.8125ZM20.875 6.9375H2.125C1.2625 6.9375 0.5625 7.6375 0.5625 8.5C0.5625 9.3625 1.2625 10.0625 2.125 10.0625H20.875C21.7375 10.0625 22.4375 9.3625 22.4375 8.5C22.4375 7.6375 21.7375 6.9375 20.875 6.9375ZM20.875 13.1875H2.125C1.2625 13.1875 0.5625 13.8875 0.5625 14.75C0.5625 15.6125 1.2625 16.3125 2.125 16.3125H20.875C21.7375 16.3125 22.4375 15.6125 22.4375 14.75C22.4375 13.8875 21.7375 13.1875 20.875 13.1875Z" fill="white"/>
</svg>
