<svg width="40" height="40" viewBox="0 0 40 40" fill="none" xmlns="http://www.w3.org/2000/svg">
<path d="M20 38.2398C30.0737 38.2398 38.24 30.0734 38.24 19.9998C38.24 9.92609 30.0737 1.75977 20 1.75977C9.92634 1.75977 1.76001 9.92609 1.76001 19.9998C1.76001 30.0734 9.92634 38.2398 20 38.2398Z" stroke="white" stroke-width="2" stroke-miterlimit="10" stroke-linecap="round"/>
<path d="M23.7489 28.0013C23.638 26.7762 23.6805 25.9212 23.6805 24.8017C24.2353 24.5106 25.2294 22.6547 25.3974 21.0868C25.8336 21.0511 26.5214 20.6255 26.7228 18.9451C26.8315 18.043 26.3998 17.5353 26.1368 17.3757C26.8467 15.2409 28.3211 8.63651 23.41 7.95403C22.9046 7.06635 21.6103 6.61719 19.9284 6.61719C13.1994 6.74107 12.3877 11.6985 13.8628 17.3757C13.6006 17.5353 13.169 18.043 13.2769 18.9451C13.479 20.6255 14.1661 21.0511 14.6023 21.0868C14.7695 22.6539 15.8031 24.5106 16.3594 24.8017C16.3594 25.9212 16.4012 26.7762 16.2903 28.0013C15.3319 30.5777 10.4102 30.7791 7.5708 33.2635C10.5394 36.2526 15.3502 38.3905 20.427 38.3905C25.5038 38.3905 31.4713 34.3823 32.4646 33.2886C29.6427 30.7814 24.7096 30.5868 23.7489 28.0013Z" fill="white"/>
</svg>
