<svg width="17" height="18" viewBox="0 0 17 18" fill="none" xmlns="http://www.w3.org/2000/svg">
<path d="M0.352928 16.7353C0.588214 16.9706 0.8235 17.0883 1.17643 17.0883C1.52936 17.0883 1.76464 16.9706 1.99993 16.7353L8.235 10.4998L14.4701 16.7353C14.7054 16.9706 15.0583 17.0883 15.2936 17.0883C15.5289 17.0883 15.8818 16.9706 16.1171 16.7353C16.5876 16.2647 16.5876 15.5588 16.1171 15.0882L9.882 8.85274L16.1171 2.61725C16.5876 2.14665 16.5876 1.44074 16.1171 0.97014C15.6465 0.499537 14.9406 0.499537 14.4701 0.97014L8.235 7.20563L1.99993 0.97014C1.52936 0.499537 0.8235 0.499537 0.352928 0.97014C-0.117643 1.44074 -0.117643 2.14665 0.352928 2.61725L6.588 8.85274L0.352928 15.0882C-0.117643 15.5588 -0.117643 16.2647 0.352928 16.7353Z" fill="white"/>
</svg>
