<svg width="15" height="15" viewBox="0 0 15 15" fill="none" xmlns="http://www.w3.org/2000/svg">
<path d="M7.5 0C3.36437 0 0 3.36437 0 7.5C0 11.6356 3.36437 15 7.5 15C11.6356 15 15 11.6356 15 7.5C15 3.36437 11.6356 0 7.5 0ZM7.5 13.75C4.05375 13.75 1.25 10.9462 1.25 7.5C1.25 4.05375 4.05375 1.25 7.5 1.25C10.9462 1.25 13.75 4.05375 13.75 7.5C13.75 10.9462 10.9462 13.75 7.5 13.75ZM5.46875 6.77562V8.22437C5.46875 9.3075 6.30562 10.1562 7.37437 10.1562H7.65812C8.19688 10.1562 8.77188 9.92437 9.05688 9.59313C9.28312 9.33125 9.67688 9.30188 9.93812 9.52625C10.2 9.75125 10.23 10.1463 10.005 10.4075C9.48375 11.0144 8.56188 11.4069 7.6575 11.4069H7.37375C5.63375 11.4069 4.21812 9.97937 4.21812 8.225V6.77625C4.21812 5.02187 5.63375 3.59437 7.37375 3.59437H7.6575C8.58562 3.59437 9.4725 4.03813 10.0306 4.78188C10.2381 5.05813 10.1819 5.45 9.90563 5.65687C9.62938 5.86437 9.2375 5.8075 9.03125 5.53187C8.70813 5.10125 8.195 4.84438 7.65812 4.84438H7.37437C6.30562 4.84438 5.46875 5.69312 5.46875 6.77625V6.77562Z" fill="white"/>
</svg>
