<svg width="415" height="249" viewBox="0 0 415 249" fill="none" xmlns="http://www.w3.org/2000/svg">
<g filter="url(#filter0_dd_2238_13959)">
<path d="M28 22C28 16.4772 32.3776 12 37.9005 12C76.8945 12 218.497 12 234 12C252 12 260.5 53.5 276 53.5C288.416 53.5 352.165 53.5 377.041 53.5C382.564 53.5 387 57.9772 387 63.5V194.5C387 200.023 382.523 204.5 377 204.5H38C32.4772 204.5 28 200.023 28 194.5V22Z" fill="url(#paint0_linear_2238_13959)"/>
</g>
<path d="M271.017 87.5664H266.383V96.81H271.017V87.5664Z" fill="#007D32"/>
<path d="M315.95 96.8125V100.758H273.9V158.193H271.033V96.8125H315.95Z" fill="#007D32"/>
<path d="M315.067 63.3789H311.983V72.6225H315.067V63.3789Z" fill="#007D32"/>
<path d="M363.767 63.3789H360.683V72.6225H363.767V63.3789Z" fill="#007D32"/>
<path d="M363.4 69.3351H337.867C337.2 69.3351 336.65 68.7322 336.65 68.0015C336.65 67.2708 337.2 66.668 337.867 66.668H363.4C364.067 66.668 364.617 67.2708 364.617 68.0015C364.617 68.7322 364.067 69.3351 363.4 69.3351Z" fill="#007D32"/>
<path d="M291.917 93.5226H266.383C265.717 93.5226 265.167 92.9197 265.167 92.189C265.167 91.4583 265.717 90.8555 266.383 90.8555H291.917C292.583 90.8555 293.133 91.4583 293.133 92.189C293.133 92.9197 292.583 93.5226 291.917 93.5226Z" fill="#007D32"/>
<path d="M319.367 72.625H315.95V158.192H319.367V72.625Z" fill="#007D32"/>
<path d="M359.783 72.625H356.367V158.192H359.783V72.625Z" fill="#007D32"/>
<path d="M315.533 96.1343V86.2148H266.383C265.717 86.2148 265.167 86.8177 265.167 87.5484V96.792C265.167 97.5227 265.717 98.1255 266.383 98.1255H269.8V157.588H316.15V96.1343H315.533ZM267.6 88.9002H314.733V95.4584H267.6V88.9002ZM314.733 156.857H272.25V98.1438H314.733V156.857Z" fill="#007D32"/>
<path d="M285.183 102.363H276.4V115.991H285.183V102.363Z" fill="#007D32"/>
<path d="M297.883 102.363H289.1V115.991H297.883V102.363Z" fill="#007D32"/>
<path d="M310.583 102.363H301.8V115.991H310.583V102.363Z" fill="#007D32"/>
<path d="M285.183 120.688H276.4V134.315H285.183V120.688Z" fill="#007D32"/>
<path d="M297.883 120.688H289.1V134.315H297.883V120.688Z" fill="#007D32"/>
<path d="M310.583 120.688H301.8V134.315H310.583V120.688Z" fill="#007D32"/>
<path d="M285.183 139.008H276.4V152.636H285.183V139.008Z" fill="#007D32"/>
<path d="M297.883 139.008H289.1V152.636H297.883V139.008Z" fill="#007D32"/>
<path d="M310.583 139.008H301.8V152.636H310.583V139.008Z" fill="#007D32"/>
<path d="M370.117 159.526H265.883C265.217 159.526 264.667 158.924 264.667 158.193C264.667 157.462 265.217 156.859 265.883 156.859H370.1C370.767 156.859 371.317 157.462 371.317 158.193C371.333 158.942 370.783 159.526 370.117 159.526Z" fill="#007D32"/>
<path d="M363.75 62.0469H311.983C311.317 62.0469 310.767 62.6497 310.767 63.3804V72.624C310.767 73.3547 311.317 73.9576 311.983 73.9576H314.733V158.191C314.733 158.922 315.283 159.525 315.95 159.525H359.767C360.433 159.525 360.983 158.922 360.983 158.191V73.9576H363.733C364.4 73.9576 364.95 73.3547 364.95 72.624V63.3804C364.967 62.6314 364.417 62.0469 363.75 62.0469ZM358.55 156.857H317.183V73.9576H358.567V156.857H358.55ZM362.533 71.2904H313.217V64.714H362.533V71.2904Z" fill="#007D32"/>
<path d="M355.55 126.75L339.2 106.747C338.967 106.455 338.633 106.309 338.283 106.309C337.933 106.309 337.6 106.473 337.367 106.747L321.033 126.75C320.717 127.152 320.633 127.7 320.833 128.194C321.033 128.669 321.467 128.979 321.95 128.979H324.517V157.824H352.05V128.979H354.617C355.1 128.979 355.533 128.669 355.733 128.194C355.967 127.719 355.883 127.152 355.55 126.75ZM349.633 156.856H326.983V128.997H349.633V156.856ZM338.3 109.652L351.917 126.312H324.7L338.3 109.652Z" fill="#007D32"/>
<path d="M345.35 144.289C346.017 144.289 346.567 143.686 346.567 142.955V139.63C346.567 138.9 346.017 138.297 345.35 138.297C344.683 138.297 344.133 138.9 344.133 139.63V142.955C344.117 143.686 344.667 144.289 345.35 144.289Z" fill="#007D32"/>
<path d="M354.733 88.1289H320.683V93.865H354.733V88.1289Z" fill="#007D32"/>
<path d="M354.733 80.0117H320.683V85.7478H354.733V80.0117Z" fill="#007D32"/>
<path d="M338.3 123.536C340.233 123.536 341.8 121.818 341.8 119.7C341.8 117.581 340.233 115.863 338.3 115.863C336.367 115.863 334.8 117.581 334.8 119.7C334.8 121.818 336.367 123.536 338.3 123.536Z" fill="#007D32"/>
<path d="M43.9261 50.5V27.5938H51.8168C53.598 27.5938 54.9574 27.7031 55.8949 27.9219C57.2074 28.224 58.3272 28.7708 59.2543 29.5625C60.4626 30.5833 61.3636 31.8906 61.9574 33.4844C62.5616 35.0677 62.8636 36.8802 62.8636 38.9219C62.8636 40.6615 62.6605 42.2031 62.2543 43.5469C61.848 44.8906 61.3272 46.0052 60.6918 46.8906C60.0564 47.7656 59.3584 48.4583 58.598 48.9688C57.848 49.4688 56.9366 49.849 55.8636 50.1094C54.8011 50.3698 53.5772 50.5 52.1918 50.5H43.9261ZM46.9574 47.7969H51.848C53.3584 47.7969 54.5407 47.6562 55.3949 47.375C56.2595 47.0938 56.947 46.6979 57.4574 46.1875C58.1761 45.4688 58.7334 44.5052 59.1293 43.2969C59.5355 42.0781 59.7386 40.6042 59.7386 38.875C59.7386 36.4792 59.3428 34.6406 58.5511 33.3594C57.7699 32.0677 56.8168 31.2031 55.6918 30.7656C54.8793 30.4531 53.572 30.2969 51.7699 30.2969H46.9574V47.7969ZM78.0511 45.1562L80.9574 45.5156C80.4991 47.2135 79.6501 48.5312 78.4105 49.4688C77.1709 50.4062 75.5876 50.875 73.6605 50.875C71.2334 50.875 69.3064 50.1302 67.8793 48.6406C66.4626 47.1406 65.7543 45.0417 65.7543 42.3438C65.7543 39.5521 66.473 37.3854 67.9105 35.8438C69.348 34.3021 71.2126 33.5312 73.5043 33.5312C75.723 33.5312 77.5355 34.2865 78.9418 35.7969C80.348 37.3073 81.0511 39.4323 81.0511 42.1719C81.0511 42.3385 81.0459 42.5885 81.0355 42.9219H68.6605C68.7647 44.7448 69.2803 46.1406 70.2074 47.1094C71.1345 48.0781 72.2907 48.5625 73.6761 48.5625C74.7074 48.5625 75.5876 48.2917 76.3168 47.75C77.0459 47.2083 77.6241 46.3438 78.0511 45.1562ZM68.8168 40.6094H78.0824C77.9574 39.2135 77.6032 38.1667 77.0199 37.4688C76.1241 36.3854 74.9626 35.8438 73.5355 35.8438C72.2439 35.8438 71.1553 36.276 70.2699 37.1406C69.3949 38.0052 68.9105 39.1615 68.8168 40.6094ZM84.5043 56.8594V33.9062H87.0668V36.0625C87.6709 35.2188 88.3532 34.5885 89.1136 34.1719C89.8741 33.7448 90.7959 33.5312 91.8793 33.5312C93.2959 33.5312 94.5459 33.8958 95.6293 34.625C96.7126 35.3542 97.5303 36.3854 98.0824 37.7188C98.6345 39.0417 98.9105 40.4948 98.9105 42.0781C98.9105 43.776 98.6032 45.3073 97.9886 46.6719C97.3845 48.026 96.4991 49.0677 95.3324 49.7969C94.1761 50.5156 92.9574 50.875 91.6761 50.875C90.7386 50.875 89.8949 50.6771 89.1449 50.2812C88.4053 49.8854 87.7959 49.3854 87.3168 48.7812V56.8594H84.5043ZM87.0511 42.2969C87.0511 44.4323 87.4834 46.0104 88.348 47.0312C89.2126 48.0521 90.2595 48.5625 91.4886 48.5625C92.7386 48.5625 93.8064 48.0365 94.6918 46.9844C95.5876 45.9219 96.0355 44.2812 96.0355 42.0625C96.0355 39.9479 95.598 38.3646 94.723 37.3125C93.8584 36.2604 92.822 35.7344 91.6136 35.7344C90.4157 35.7344 89.3532 36.2969 88.4261 37.4219C87.5095 38.5365 87.0511 40.1615 87.0511 42.2969ZM113.145 48.4531C112.103 49.3385 111.098 49.9635 110.129 50.3281C109.171 50.6927 108.14 50.875 107.036 50.875C105.213 50.875 103.812 50.4323 102.832 49.5469C101.853 48.651 101.364 47.5104 101.364 46.125C101.364 45.3125 101.546 44.5729 101.911 43.9062C102.286 43.2292 102.77 42.6875 103.364 42.2812C103.968 41.875 104.645 41.5677 105.395 41.3594C105.947 41.2135 106.78 41.0729 107.895 40.9375C110.166 40.6667 111.838 40.3438 112.911 39.9688C112.921 39.5833 112.926 39.3385 112.926 39.2344C112.926 38.0885 112.661 37.2812 112.129 36.8125C111.411 36.1771 110.343 35.8594 108.926 35.8594C107.603 35.8594 106.624 36.0938 105.989 36.5625C105.364 37.0208 104.9 37.8385 104.598 39.0156L101.848 38.6406C102.098 37.4635 102.509 36.5156 103.082 35.7969C103.655 35.0677 104.483 34.5104 105.567 34.125C106.65 33.7292 107.905 33.5312 109.332 33.5312C110.749 33.5312 111.9 33.6979 112.786 34.0312C113.671 34.3646 114.322 34.7865 114.739 35.2969C115.155 35.7969 115.447 36.4323 115.614 37.2031C115.707 37.6823 115.754 38.5469 115.754 39.7969V43.5469C115.754 46.1615 115.812 47.8177 115.926 48.5156C116.051 49.2031 116.291 49.8646 116.645 50.5H113.707C113.416 49.9167 113.228 49.2344 113.145 48.4531ZM112.911 42.1719C111.89 42.5885 110.358 42.9427 108.317 43.2344C107.161 43.401 106.343 43.5885 105.864 43.7969C105.384 44.0052 105.015 44.3125 104.754 44.7188C104.494 45.1146 104.364 45.5573 104.364 46.0469C104.364 46.7969 104.645 47.4219 105.207 47.9219C105.78 48.4219 106.614 48.6719 107.707 48.6719C108.791 48.6719 109.754 48.4375 110.598 47.9688C111.442 47.4896 112.062 46.8385 112.457 46.0156C112.759 45.3802 112.911 44.4427 112.911 43.2031V42.1719ZM120.098 50.5V33.9062H122.629V36.4219C123.275 35.2448 123.869 34.4688 124.411 34.0938C124.963 33.7188 125.567 33.5312 126.223 33.5312C127.171 33.5312 128.134 33.8333 129.114 34.4375L128.145 37.0469C127.457 36.6406 126.77 36.4375 126.082 36.4375C125.468 36.4375 124.916 36.625 124.426 37C123.937 37.3646 123.588 37.875 123.379 38.5312C123.067 39.5312 122.911 40.625 122.911 41.8125V50.5H120.098ZM136.926 47.9844L137.332 50.4688C136.541 50.6354 135.832 50.7188 135.207 50.7188C134.187 50.7188 133.395 50.5573 132.832 50.2344C132.27 49.9115 131.874 49.4896 131.645 48.9688C131.416 48.4375 131.301 47.3281 131.301 45.6406V36.0938H129.239V33.9062H131.301V29.7969L134.098 28.1094V33.9062H136.926V36.0938H134.098V45.7969C134.098 46.599 134.145 47.1146 134.239 47.3438C134.343 47.5729 134.504 47.7552 134.723 47.8906C134.952 48.026 135.275 48.0938 135.692 48.0938C136.004 48.0938 136.416 48.0573 136.926 47.9844ZM139.692 50.5V33.9062H142.207V36.2344C142.728 35.4219 143.421 34.7708 144.286 34.2812C145.15 33.7812 146.134 33.5312 147.239 33.5312C148.468 33.5312 149.473 33.7865 150.254 34.2969C151.046 34.8073 151.603 35.5208 151.926 36.4375C153.239 34.5 154.947 33.5312 157.051 33.5312C158.697 33.5312 159.963 33.9896 160.848 34.9062C161.733 35.8125 162.176 37.2135 162.176 39.1094V50.5H159.379V40.0469C159.379 38.9219 159.286 38.1146 159.098 37.625C158.921 37.125 158.593 36.724 158.114 36.4219C157.634 36.1198 157.072 35.9688 156.426 35.9688C155.259 35.9688 154.291 36.3594 153.52 37.1406C152.749 37.9115 152.364 39.151 152.364 40.8594V50.5H149.551V39.7188C149.551 38.4688 149.322 37.5312 148.864 36.9062C148.405 36.2812 147.655 35.9688 146.614 35.9688C145.822 35.9688 145.088 36.1771 144.411 36.5938C143.744 37.0104 143.259 37.6198 142.957 38.4219C142.655 39.224 142.504 40.3802 142.504 41.8906V50.5H139.692ZM177.707 45.1562L180.614 45.5156C180.155 47.2135 179.306 48.5312 178.067 49.4688C176.827 50.4062 175.244 50.875 173.317 50.875C170.89 50.875 168.963 50.1302 167.536 48.6406C166.119 47.1406 165.411 45.0417 165.411 42.3438C165.411 39.5521 166.129 37.3854 167.567 35.8438C169.004 34.3021 170.869 33.5312 173.161 33.5312C175.379 33.5312 177.192 34.2865 178.598 35.7969C180.004 37.3073 180.707 39.4323 180.707 42.1719C180.707 42.3385 180.702 42.5885 180.692 42.9219H168.317C168.421 44.7448 168.937 46.1406 169.864 47.1094C170.791 48.0781 171.947 48.5625 173.332 48.5625C174.364 48.5625 175.244 48.2917 175.973 47.75C176.702 47.2083 177.28 46.3438 177.707 45.1562ZM168.473 40.6094H177.739C177.614 39.2135 177.259 38.1667 176.676 37.4688C175.78 36.3854 174.619 35.8438 173.192 35.8438C171.9 35.8438 170.812 36.276 169.926 37.1406C169.051 38.0052 168.567 39.1615 168.473 40.6094ZM184.161 50.5V33.9062H186.692V36.2656C187.911 34.4427 189.671 33.5312 191.973 33.5312C192.973 33.5312 193.89 33.7135 194.723 34.0781C195.567 34.4323 196.197 34.901 196.614 35.4844C197.03 36.0677 197.322 36.7604 197.489 37.5625C197.593 38.0833 197.645 38.9948 197.645 40.2969V50.5H194.832V40.4062C194.832 39.2604 194.723 38.4062 194.504 37.8438C194.286 37.2708 193.895 36.8177 193.332 36.4844C192.78 36.1406 192.129 35.9688 191.379 35.9688C190.181 35.9688 189.145 36.349 188.27 37.1094C187.405 37.8698 186.973 39.3125 186.973 41.4375V50.5H184.161ZM208.114 47.9844L208.52 50.4688C207.728 50.6354 207.02 50.7188 206.395 50.7188C205.374 50.7188 204.582 50.5573 204.02 50.2344C203.457 49.9115 203.062 49.4896 202.832 48.9688C202.603 48.4375 202.489 47.3281 202.489 45.6406V36.0938H200.426V33.9062H202.489V29.7969L205.286 28.1094V33.9062H208.114V36.0938H205.286V45.7969C205.286 46.599 205.332 47.1146 205.426 47.3438C205.53 47.5729 205.692 47.7552 205.911 47.8906C206.14 48.026 206.463 48.0938 206.879 48.0938C207.192 48.0938 207.603 48.0573 208.114 47.9844Z" fill="white"/>
<defs>
<filter id="filter0_dd_2238_13959" x="0" y="0" width="415" height="248.5" filterUnits="userSpaceOnUse" color-interpolation-filters="sRGB">
<feFlood flood-opacity="0" result="BackgroundImageFix"/>
<feColorMatrix in="SourceAlpha" type="matrix" values="0 0 0 0 0 0 0 0 0 0 0 0 0 0 0 0 0 0 127 0" result="hardAlpha"/>
<feMorphology radius="4" operator="erode" in="SourceAlpha" result="effect1_dropShadow_2238_13959"/>
<feOffset dy="4"/>
<feGaussianBlur stdDeviation="2"/>
<feComposite in2="hardAlpha" operator="out"/>
<feColorMatrix type="matrix" values="0 0 0 0 0.0470588 0 0 0 0 0.0470588 0 0 0 0 0.0509804 0 0 0 0.05 0"/>
<feBlend mode="normal" in2="BackgroundImageFix" result="effect1_dropShadow_2238_13959"/>
<feColorMatrix in="SourceAlpha" type="matrix" values="0 0 0 0 0 0 0 0 0 0 0 0 0 0 0 0 0 0 127 0" result="hardAlpha"/>
<feMorphology radius="4" operator="erode" in="SourceAlpha" result="effect2_dropShadow_2238_13959"/>
<feOffset dy="16"/>
<feGaussianBlur stdDeviation="16"/>
<feComposite in2="hardAlpha" operator="out"/>
<feColorMatrix type="matrix" values="0 0 0 0 0.0470588 0 0 0 0 0.0470588 0 0 0 0 0.0509804 0 0 0 0.1 0"/>
<feBlend mode="normal" in2="effect1_dropShadow_2238_13959" result="effect2_dropShadow_2238_13959"/>
<feBlend mode="normal" in="SourceGraphic" in2="effect2_dropShadow_2238_13959" result="shape"/>
</filter>
<linearGradient id="paint0_linear_2238_13959" x1="207.5" y1="12" x2="28" y2="204.5" gradientUnits="userSpaceOnUse">
<stop stop-color="#2E8D58"/>
<stop offset="1" stop-color="#04612D"/>
</linearGradient>
</defs>
</svg>
