<svg width="570" height="502" viewBox="0 0 570 502" fill="none" xmlns="http://www.w3.org/2000/svg">
<path d="M33.8795 131.19H9.15903V178.707H33.8795V131.19Z" fill="#E3E3E8"/>
<path d="M273.615 178.707V198.991H49.2631V494.239H33.9684V178.707H273.615Z" fill="#E3E3E8"/>
<path d="M268.902 6.8553H252.451V54.3728H268.902V6.8553Z" fill="#E3E3E8"/>
<path d="M528.734 6.8553H512.283V54.3728H528.734V6.8553Z" fill="#E3E3E8"/>
<path d="M526.777 37.4694H390.548C386.991 37.4694 384.057 34.3704 384.057 30.6141C384.057 26.8577 386.991 23.7588 390.548 23.7588H526.777C530.334 23.7588 533.269 26.8577 533.269 30.6141C533.269 34.3704 530.334 37.4694 526.777 37.4694Z" fill="#E3E3E8"/>
<path d="M145.388 161.804H9.15903C5.60213 161.804 2.66768 158.705 2.66768 154.949C2.66768 151.192 5.60213 148.093 9.15903 148.093H145.388C148.945 148.093 151.88 151.192 151.88 154.949C151.88 158.705 148.945 161.804 145.388 161.804Z" fill="#E3E3E8"/>
<path d="M291.844 54.3728H273.615V494.239H291.844V54.3728Z" fill="#E3E3E8"/>
<path d="M507.481 54.3728H489.252V494.239H507.481V54.3728Z" fill="#E3E3E8"/>
<path d="M271.392 175.233V124.241H9.15903C5.60213 124.241 2.66768 127.34 2.66768 131.096V178.613C2.66768 182.37 5.60213 185.469 9.15903 185.469H27.3882V491.14H274.682V175.233H271.392ZM15.6504 138.045H267.124V171.758H15.6504V138.045ZM267.124 487.384H40.4598V185.563H267.124V487.384Z" fill="#E3E3E8"/>
<path d="M109.464 207.255H62.6015V277.311H109.464V207.255Z" fill="#E3E3E8"/>
<path d="M177.223 207.255H130.361V277.311H177.223V207.255Z" fill="#E3E3E8"/>
<path d="M244.982 207.255H198.12V277.311H244.982V207.255Z" fill="#E3E3E8"/>
<path d="M109.464 301.445H62.6015V371.501H109.464V301.445Z" fill="#E3E3E8"/>
<path d="M177.223 301.445H130.361V371.501H177.223V301.445Z" fill="#E3E3E8"/>
<path d="M244.982 301.445H198.12V371.501H244.982V301.445Z" fill="#E3E3E8"/>
<path d="M109.464 395.635H62.6015V465.691H109.464V395.635Z" fill="#E3E3E8"/>
<path d="M177.223 395.635H130.361V465.691H177.223V395.635Z" fill="#E3E3E8"/>
<path d="M244.982 395.635H198.12V465.691H244.982V395.635Z" fill="#E3E3E8"/>
<path d="M562.613 501.094H6.49135C2.93445 501.094 0 497.995 0 494.239C0 490.482 2.93445 487.383 6.49135 487.383H562.524C566.081 487.383 569.016 490.482 569.016 494.239C569.105 498.089 566.17 501.094 562.613 501.094Z" fill="#E3E3E8"/>
<path d="M528.645 0H252.451C248.894 0 245.96 3.09897 245.96 6.8553V54.3728C245.96 58.1292 248.894 61.2281 252.451 61.2281H267.123V494.239C267.123 497.995 270.058 501.094 273.615 501.094H507.392C510.949 501.094 513.884 497.995 513.884 494.239V61.2281H528.556C532.113 61.2281 535.047 58.1292 535.047 54.3728V6.8553C535.136 3.00506 532.202 0 528.645 0ZM280.195 487.384V61.2281H500.99V487.384H280.195ZM522.154 47.5175H259.032V13.7106H522.154V47.5175Z" fill="#E3E3E8"/>
<path d="M484.895 332.623L397.662 229.793C396.417 228.291 394.638 227.54 392.771 227.54C390.904 227.54 389.125 228.385 387.88 229.793L300.736 332.623C299.047 334.689 298.602 337.506 299.669 340.042C300.736 342.483 303.048 344.08 305.627 344.08H319.321V492.361H466.221V344.08H479.915C482.494 344.08 484.806 342.483 485.873 340.042C487.118 337.6 486.673 334.689 484.895 332.623ZM453.327 487.384H332.482V344.174H453.327V487.384ZM392.86 244.725L465.51 330.369H320.299L392.86 244.725Z" fill="#E3E3E8"/>
<path d="M430.474 422.775C434.031 422.775 436.966 419.676 436.966 415.919V398.828C436.966 395.072 434.031 391.973 430.474 391.973C426.917 391.973 423.983 395.072 423.983 398.828V415.919C423.894 419.676 426.828 422.775 430.474 422.775Z" fill="#E3E3E8"/>
<path d="M480.535 134.07H298.866V163.558H480.535V134.07Z" fill="#E3E3E8"/>
<path d="M481.427 84.5174H299.758V114.005H481.427V84.5174Z" fill="#E3E3E8"/>
<path d="M392.86 316.095C403.173 316.095 411.534 307.266 411.534 296.374C411.534 285.483 403.173 276.654 392.86 276.654C382.547 276.654 374.186 285.483 374.186 296.374C374.186 307.266 382.547 316.095 392.86 316.095Z" fill="#E3E3E8"/>
</svg>
