<svg width="520" height="501" viewBox="0 0 520 501" fill="none" xmlns="http://www.w3.org/2000/svg">
<path d="M120 0H400V100.2H520V501H80H40V450.9H80V400.8H120V350.7H80V300.6H120V250.5H80V200.4H120V150.3H80H40V200.4V250.5V501H0V150.3V100.2H120V0ZM480 150.3H400V200.4H440V250.5H400V300.6H440V350.7H400V400.8H440V450.9H480V150.3ZM360 50.1H160V450.9H200V400.8H320V450.9H360V50.1ZM200 100.2H240V150.3H200V100.2ZM320 100.2H280V150.3H320V100.2ZM200 200.4H240V250.5H200V200.4ZM320 200.4H280V250.5H320V200.4ZM200 300.6H240V350.7H200V300.6ZM320 300.6H280V350.7H320V300.6Z" fill="#E3E3E8"/>
</svg>
