<svg width="415" height="249" viewBox="0 0 415 249" fill="none" xmlns="http://www.w3.org/2000/svg">
<g filter="url(#filter0_dd_2238_13962)">
<path d="M28 22C28 16.4772 32.3776 12 37.9005 12C76.8945 12 218.497 12 234 12C252 12 260.5 53.5 276 53.5C288.416 53.5 352.165 53.5 377.041 53.5C382.564 53.5 387 57.9772 387 63.5V194.5C387 200.023 382.523 204.5 377 204.5H38C32.4772 204.5 28 200.023 28 194.5V22Z" fill="url(#paint0_linear_2238_13962)"/>
</g>
<path d="M43.9261 50.5V27.5938H51.8167C53.598 27.5938 54.9574 27.7031 55.8949 27.9219C57.2074 28.224 58.3272 28.7708 59.2542 29.5625C60.4626 30.5833 61.3636 31.8906 61.9574 33.4844C62.5615 35.0677 62.8636 36.8802 62.8636 38.9219C62.8636 40.6615 62.6605 42.2031 62.2542 43.5469C61.848 44.8906 61.3272 46.0052 60.6917 46.8906C60.0563 47.7656 59.3584 48.4583 58.598 48.9688C57.848 49.4688 56.9365 49.849 55.8636 50.1094C54.8011 50.3698 53.5772 50.5 52.1917 50.5H43.9261ZM46.9574 47.7969H51.848C53.3584 47.7969 54.5407 47.6562 55.3949 47.375C56.2595 47.0938 56.947 46.6979 57.4574 46.1875C58.1761 45.4688 58.7334 44.5052 59.1292 43.2969C59.5355 42.0781 59.7386 40.6042 59.7386 38.875C59.7386 36.4792 59.3428 34.6406 58.5511 33.3594C57.7699 32.0677 56.8167 31.2031 55.6917 30.7656C54.8792 30.4531 53.572 30.2969 51.7699 30.2969H46.9574V47.7969ZM65.6449 42.2031C65.6449 39.1302 66.499 36.8542 68.2074 35.375C69.6345 34.1458 71.374 33.5312 73.4261 33.5312C75.7074 33.5312 77.572 34.2812 79.0199 35.7812C80.4678 37.2708 81.1917 39.3333 81.1917 41.9688C81.1917 44.1042 80.8688 45.7865 80.223 47.0156C79.5876 48.2344 78.6553 49.1823 77.4261 49.8594C76.2074 50.5365 74.874 50.875 73.4261 50.875C71.1032 50.875 69.223 50.1302 67.7855 48.6406C66.3584 47.151 65.6449 45.0052 65.6449 42.2031ZM68.5355 42.2031C68.5355 44.3281 68.999 45.9219 69.9261 46.9844C70.8532 48.0365 72.0199 48.5625 73.4261 48.5625C74.822 48.5625 75.9834 48.0312 76.9105 46.9688C77.8376 45.9062 78.3011 44.2865 78.3011 42.1094C78.3011 40.0573 77.8324 38.5052 76.8949 37.4531C75.9678 36.3906 74.8115 35.8594 73.4261 35.8594C72.0199 35.8594 70.8532 36.3854 69.9261 37.4375C68.999 38.4896 68.5355 40.0781 68.5355 42.2031ZM95.3324 44.4219L98.098 44.7812C97.7959 46.6875 97.0199 48.1823 95.7699 49.2656C94.5303 50.3385 93.0042 50.875 91.1917 50.875C88.9209 50.875 87.0928 50.1354 85.7074 48.6562C84.3324 47.1667 83.6449 45.0365 83.6449 42.2656C83.6449 40.474 83.9417 38.9062 84.5355 37.5625C85.1292 36.2188 86.0303 35.2135 87.2386 34.5469C88.4574 33.8698 89.7803 33.5312 91.2074 33.5312C93.0095 33.5312 94.4834 33.9896 95.6292 34.9062C96.7751 35.8125 97.5095 37.1042 97.8324 38.7812L95.098 39.2031C94.8376 38.0885 94.374 37.25 93.7074 36.6875C93.0511 36.125 92.2542 35.8438 91.3167 35.8438C89.9001 35.8438 88.749 36.3542 87.8636 37.375C86.9782 38.3854 86.5355 39.9896 86.5355 42.1875C86.5355 44.4167 86.9626 46.0365 87.8167 47.0469C88.6709 48.0573 89.7855 48.5625 91.1605 48.5625C92.2647 48.5625 93.1865 48.224 93.9261 47.5469C94.6657 46.8698 95.1345 45.8281 95.3324 44.4219ZM111.379 50.5V48.0625C110.088 49.9375 108.332 50.875 106.114 50.875C105.134 50.875 104.218 50.6875 103.364 50.3125C102.52 49.9375 101.89 49.4688 101.473 48.9062C101.067 48.3333 100.78 47.6354 100.614 46.8125C100.499 46.2604 100.442 45.3854 100.442 44.1875V33.9062H103.254V43.1094C103.254 44.5781 103.312 45.5677 103.426 46.0781C103.603 46.8177 103.978 47.401 104.551 47.8281C105.124 48.2448 105.832 48.4531 106.676 48.4531C107.52 48.4531 108.312 48.2396 109.051 47.8125C109.791 47.375 110.312 46.7865 110.614 46.0469C110.926 45.2969 111.082 44.2135 111.082 42.7969V33.9062H113.895V50.5H111.379ZM118.317 50.5V33.9062H120.832V36.2344C121.353 35.4219 122.046 34.7708 122.91 34.2812C123.775 33.7812 124.759 33.5312 125.864 33.5312C127.093 33.5312 128.098 33.7865 128.879 34.2969C129.671 34.8073 130.228 35.5208 130.551 36.4375C131.864 34.5 133.572 33.5312 135.676 33.5312C137.322 33.5312 138.588 33.9896 139.473 34.9062C140.358 35.8125 140.801 37.2135 140.801 39.1094V50.5H138.004V40.0469C138.004 38.9219 137.91 38.1146 137.723 37.625C137.546 37.125 137.218 36.724 136.739 36.4219C136.259 36.1198 135.697 35.9688 135.051 35.9688C133.884 35.9688 132.916 36.3594 132.145 37.1406C131.374 37.9115 130.989 39.151 130.989 40.8594V50.5H128.176V39.7188C128.176 38.4688 127.947 37.5312 127.489 36.9062C127.03 36.2812 126.28 35.9688 125.239 35.9688C124.447 35.9688 123.713 36.1771 123.035 36.5938C122.369 37.0104 121.884 37.6198 121.582 38.4219C121.28 39.224 121.129 40.3802 121.129 41.8906V50.5H118.317ZM156.332 45.1562L159.239 45.5156C158.78 47.2135 157.931 48.5312 156.692 49.4688C155.452 50.4062 153.869 50.875 151.942 50.875C149.515 50.875 147.588 50.1302 146.16 48.6406C144.744 47.1406 144.035 45.0417 144.035 42.3438C144.035 39.5521 144.754 37.3854 146.192 35.8438C147.629 34.3021 149.494 33.5312 151.785 33.5312C154.004 33.5312 155.817 34.2865 157.223 35.7969C158.629 37.3073 159.332 39.4323 159.332 42.1719C159.332 42.3385 159.327 42.5885 159.317 42.9219H146.942C147.046 44.7448 147.562 46.1406 148.489 47.1094C149.416 48.0781 150.572 48.5625 151.957 48.5625C152.989 48.5625 153.869 48.2917 154.598 47.75C155.327 47.2083 155.905 46.3438 156.332 45.1562ZM147.098 40.6094H156.364C156.239 39.2135 155.884 38.1667 155.301 37.4688C154.405 36.3854 153.244 35.8438 151.817 35.8438C150.525 35.8438 149.437 36.276 148.551 37.1406C147.676 38.0052 147.192 39.1615 147.098 40.6094ZM162.785 50.5V33.9062H165.317V36.2656C166.535 34.4427 168.296 33.5312 170.598 33.5312C171.598 33.5312 172.515 33.7135 173.348 34.0781C174.192 34.4323 174.822 34.901 175.239 35.4844C175.655 36.0677 175.947 36.7604 176.114 37.5625C176.218 38.0833 176.27 38.9948 176.27 40.2969V50.5H173.457V40.4062C173.457 39.2604 173.348 38.4062 173.129 37.8438C172.91 37.2708 172.52 36.8177 171.957 36.4844C171.405 36.1406 170.754 35.9688 170.004 35.9688C168.806 35.9688 167.77 36.349 166.895 37.1094C166.03 37.8698 165.598 39.3125 165.598 41.4375V50.5H162.785ZM186.739 47.9844L187.145 50.4688C186.353 50.6354 185.645 50.7188 185.02 50.7188C183.999 50.7188 183.207 50.5573 182.645 50.2344C182.082 49.9115 181.687 49.4896 181.457 48.9688C181.228 48.4375 181.114 47.3281 181.114 45.6406V36.0938H179.051V33.9062H181.114V29.7969L183.91 28.1094V33.9062H186.739V36.0938H183.91V45.7969C183.91 46.599 183.957 47.1146 184.051 47.3438C184.155 47.5729 184.317 47.7552 184.535 47.8906C184.765 48.026 185.088 48.0938 185.504 48.0938C185.817 48.0938 186.228 48.0573 186.739 47.9844ZM188.379 45.5469L191.16 45.1094C191.317 46.224 191.749 47.0781 192.457 47.6719C193.176 48.2656 194.176 48.5625 195.457 48.5625C196.749 48.5625 197.707 48.3021 198.332 47.7812C198.957 47.25 199.27 46.6302 199.27 45.9219C199.27 45.2865 198.994 44.7865 198.442 44.4219C198.056 44.1719 197.098 43.8542 195.567 43.4688C193.504 42.9479 192.072 42.5 191.27 42.125C190.478 41.7396 189.874 41.2135 189.457 40.5469C189.051 39.8698 188.848 39.125 188.848 38.3125C188.848 37.5729 189.015 36.8906 189.348 36.2656C189.692 35.6302 190.155 35.1042 190.739 34.6875C191.176 34.3646 191.77 34.0938 192.52 33.875C193.28 33.6458 194.093 33.5312 194.957 33.5312C196.259 33.5312 197.4 33.7188 198.379 34.0938C199.369 34.4688 200.098 34.9792 200.567 35.625C201.035 36.2604 201.358 37.1146 201.535 38.1875L198.785 38.5625C198.66 37.7083 198.296 37.0417 197.692 36.5625C197.098 36.0833 196.254 35.8438 195.16 35.8438C193.869 35.8438 192.947 36.0573 192.395 36.4844C191.843 36.9115 191.567 37.4115 191.567 37.9844C191.567 38.349 191.681 38.6771 191.91 38.9688C192.14 39.2708 192.499 39.5208 192.989 39.7188C193.27 39.8229 194.098 40.0625 195.473 40.4375C197.463 40.9688 198.848 41.4062 199.629 41.75C200.421 42.0833 201.041 42.5729 201.489 43.2188C201.937 43.8646 202.16 44.6667 202.16 45.625C202.16 46.5625 201.884 47.4479 201.332 48.2812C200.791 49.1042 200.004 49.7448 198.973 50.2031C197.942 50.651 196.775 50.875 195.473 50.875C193.317 50.875 191.671 50.4271 190.535 49.5312C189.41 48.6354 188.692 47.3073 188.379 45.5469Z" fill="white"/>
<path d="M299.636 63.7949H272V144.873H299.636V63.7949ZM292.727 134.738H278.909V129.67H292.727V134.738ZM292.727 124.603H278.909V119.536H292.727V124.603ZM292.727 114.468H278.909V109.401H292.727V114.468ZM285.818 78.997C282.004 78.997 278.909 76.7268 278.909 73.9296C278.909 71.1324 282.004 68.8623 285.818 68.8623C289.632 68.8623 292.727 71.1324 292.727 73.9296C292.727 76.7268 289.632 78.997 285.818 78.997Z" fill="#CC4F29"/>
<path d="M306.545 144.873H334.181V63.7949H306.545V144.873ZM320.363 68.8623C324.177 68.8623 327.272 71.1324 327.272 73.9296C327.272 76.7268 324.177 78.997 320.363 78.997C316.549 78.997 313.454 76.7268 313.454 73.9296C313.454 71.1324 316.549 68.8623 320.363 68.8623ZM313.454 109.401H327.272V114.468H313.454V109.401ZM313.454 119.536H327.272V124.603H313.454V119.536ZM313.454 129.67H327.272V134.738H313.454V129.67Z" fill="#CC4F29"/>
<path d="M368.726 63.7949H341.09V144.873H368.726V63.7949ZM361.817 134.738H347.999V129.67H361.817V134.738ZM361.817 124.603H347.999V119.536H361.817V124.603ZM361.817 114.468H347.999V109.401H361.817V114.468ZM354.908 78.997C351.095 78.997 347.999 76.7268 347.999 73.9296C347.999 71.1324 351.095 68.8623 354.908 68.8623C358.722 68.8623 361.817 71.1324 361.817 73.9296C361.817 76.7268 358.722 78.997 354.908 78.997Z" fill="#CC4F29"/>
<defs>
<filter id="filter0_dd_2238_13962" x="0" y="0" width="415" height="248.5" filterUnits="userSpaceOnUse" color-interpolation-filters="sRGB">
<feFlood flood-opacity="0" result="BackgroundImageFix"/>
<feColorMatrix in="SourceAlpha" type="matrix" values="0 0 0 0 0 0 0 0 0 0 0 0 0 0 0 0 0 0 127 0" result="hardAlpha"/>
<feMorphology radius="4" operator="erode" in="SourceAlpha" result="effect1_dropShadow_2238_13962"/>
<feOffset dy="4"/>
<feGaussianBlur stdDeviation="2"/>
<feComposite in2="hardAlpha" operator="out"/>
<feColorMatrix type="matrix" values="0 0 0 0 0.0470588 0 0 0 0 0.0470588 0 0 0 0 0.0509804 0 0 0 0.05 0"/>
<feBlend mode="normal" in2="BackgroundImageFix" result="effect1_dropShadow_2238_13962"/>
<feColorMatrix in="SourceAlpha" type="matrix" values="0 0 0 0 0 0 0 0 0 0 0 0 0 0 0 0 0 0 127 0" result="hardAlpha"/>
<feMorphology radius="4" operator="erode" in="SourceAlpha" result="effect2_dropShadow_2238_13962"/>
<feOffset dy="16"/>
<feGaussianBlur stdDeviation="16"/>
<feComposite in2="hardAlpha" operator="out"/>
<feColorMatrix type="matrix" values="0 0 0 0 0.0470588 0 0 0 0 0.0470588 0 0 0 0 0.0509804 0 0 0 0.1 0"/>
<feBlend mode="normal" in2="effect1_dropShadow_2238_13962" result="effect2_dropShadow_2238_13962"/>
<feBlend mode="normal" in="SourceGraphic" in2="effect2_dropShadow_2238_13962" result="shape"/>
</filter>
<linearGradient id="paint0_linear_2238_13962" x1="207.5" y1="12" x2="28" y2="204.5" gradientUnits="userSpaceOnUse">
<stop stop-color="#FF6333"/>
<stop offset="1" stop-color="#993B1F"/>
</linearGradient>
</defs>
</svg>
