<svg width="24" height="25" viewBox="0 0 24 25" fill="none" xmlns="http://www.w3.org/2000/svg">
<path d="M20.2188 3.73959C20.2188 4.4357 19.6492 5 18.9531 5V5C18.2628 5 17.6979 4.44036 17.6979 3.75V3.75C17.6979 3.05965 17.1383 2.5 16.4479 2.5H10.1354C5.9588 2.5 2.57295 5.88584 2.57295 10.0625L2.57295 14.9375C2.57295 19.1142 5.95879 22.5 10.1354 22.5H16.4479C17.1383 22.5 17.6979 21.9404 17.6979 21.25V21.25C17.6979 20.5596 18.2628 20 18.9531 20V20C19.6492 20 20.2188 20.5643 20.2188 21.2604L20.2188 23.75C20.2188 24.0815 20.086 24.3995 19.8496 24.6339C19.6132 24.8683 19.2926 25 18.9583 25H1.31254C0.978257 25 0.657664 24.8683 0.421291 24.6339C0.184917 24.3995 0.0521249 24.0815 0.0521249 23.75L0.0521249 1.25C0.0521249 0.918484 0.184917 0.600541 0.421291 0.36612C0.657664 0.1317 0.978257 4.76837e-06 1.31254 4.76837e-06H18.9583C19.2926 4.76837e-06 19.6132 0.1317 19.8496 0.36612C20.086 0.600541 20.2188 0.918484 20.2188 1.25L20.2188 3.73959ZM17.6979 14.9715C17.6979 14.2969 17.151 13.75 16.4764 13.75H10.125C9.43467 13.75 8.87503 13.1904 8.87503 12.5V12.5C8.87503 11.8096 9.43467 11.25 10.125 11.25H16.4764C17.151 11.25 17.6979 10.7031 17.6979 10.0285V10.0285C17.6979 9.00649 18.8781 8.43633 19.6787 9.07152L21.6149 10.6077C22.8338 11.5748 22.8338 13.4252 21.6149 14.3923L19.6787 15.9285C18.8781 16.5637 17.6979 15.9935 17.6979 14.9715V14.9715Z" fill="white"/>
</svg>
