<svg width="22" height="23" viewBox="0 0 22 23" fill="none" xmlns="http://www.w3.org/2000/svg">
<path d="M11.0455 8.04578C10.43 7.98499 9.81072 8.11594 9.27249 8.4207C8.73426 8.72546 8.30339 9.18913 8.03886 9.74823C7.77434 10.3073 7.68909 10.9345 7.79479 11.5439C7.90049 12.1534 8.19198 12.7152 8.62934 13.1526C9.0667 13.5899 9.62855 13.8814 10.238 13.9871C10.8474 14.0928 11.4746 14.0076 12.0337 13.7431C12.5928 13.4785 13.0565 13.0477 13.3612 12.5094C13.666 11.9712 13.7969 11.3519 13.7361 10.7364C13.6668 10.0464 13.3611 9.40156 12.8707 8.9112C12.3804 8.42083 11.7355 8.11509 11.0455 8.04578ZM18.2689 11.0312C18.267 11.3573 18.2431 11.6829 18.1972 12.0058L20.3164 13.668C20.4087 13.7445 20.4709 13.8512 20.4919 13.9692C20.513 14.0872 20.4915 14.2088 20.4313 14.3125L18.4264 17.7812C18.3656 17.8839 18.2704 17.9618 18.1577 18.0011C18.045 18.0405 17.9221 18.0388 17.8105 17.9964L15.7058 17.1489C15.5898 17.1027 15.464 17.086 15.3399 17.1003C15.2158 17.1146 15.0972 17.1595 14.9947 17.2309C14.6735 17.4521 14.336 17.6486 13.985 17.8187C13.8747 17.8724 13.7793 17.9523 13.7072 18.0516C13.6351 18.1508 13.5885 18.2663 13.5716 18.3878L13.2561 20.6327C13.2354 20.7512 13.1742 20.8589 13.0829 20.9373C12.9915 21.0157 12.8758 21.06 12.7555 21.0625H8.74582C8.62748 21.0605 8.51337 21.0182 8.42228 20.9426C8.3312 20.867 8.26857 20.7626 8.24473 20.6467L7.92973 18.4052C7.91204 18.2823 7.86427 18.1657 7.79067 18.0658C7.71707 17.9659 7.61992 17.8857 7.50785 17.8323C7.15733 17.6631 6.82094 17.4661 6.50192 17.2431C6.39977 17.1721 6.28155 17.1275 6.15791 17.1135C6.03426 17.0995 5.90908 17.1165 5.79363 17.163L3.68942 18.01C3.5779 18.0525 3.45499 18.0542 3.34231 18.0149C3.22964 17.9757 3.13444 17.8979 3.07348 17.7953L1.06864 14.3266C1.00836 14.2229 0.98682 14.1013 1.00785 13.9832C1.02888 13.8652 1.09112 13.7585 1.18348 13.682L2.97457 12.2758C3.0727 12.1979 3.14982 12.0967 3.19893 11.9815C3.24805 11.8662 3.2676 11.7405 3.25582 11.6158C3.23895 11.4203 3.22863 11.2253 3.22863 11.0298C3.22863 10.8344 3.23848 10.6422 3.25582 10.4509C3.26632 10.327 3.2458 10.2023 3.19613 10.0883C3.14646 9.97419 3.06919 9.87427 2.97129 9.7975L1.18114 8.39125C1.09027 8.31442 1.02935 8.20806 1.00904 8.09082C0.988724 7.97357 1.01032 7.85292 1.07004 7.75L3.07489 4.28125C3.13577 4.17859 3.23094 4.10071 3.34362 4.06135C3.4563 4.02199 3.57926 4.02367 3.69082 4.06609L5.79551 4.91359C5.91157 4.95981 6.03729 4.9765 6.16139 4.96219C6.2855 4.94787 6.40411 4.90299 6.5066 4.83156C6.82782 4.61037 7.16535 4.41387 7.51629 4.24375C7.62662 4.19012 7.72206 4.11016 7.79416 4.01091C7.86627 3.91167 7.91283 3.79619 7.92973 3.67469L8.2452 1.42984C8.26592 1.31129 8.32717 1.20361 8.41848 1.12521C8.50979 1.0468 8.6255 1.00255 8.74582 1H12.7555C12.8738 1.00205 12.988 1.04434 13.079 1.11992C13.1701 1.1955 13.2328 1.29985 13.2566 1.41578L13.5716 3.65734C13.5893 3.78019 13.6371 3.89676 13.7107 3.99669C13.7843 4.09662 13.8814 4.17682 13.9935 4.23016C14.344 4.39935 14.6804 4.59639 14.9994 4.81938C15.1016 4.89044 15.2198 4.93498 15.3434 4.94897C15.4671 4.96297 15.5923 4.94598 15.7077 4.89953L17.8119 4.0525C17.9234 4.01004 18.0463 4.00829 18.159 4.04756C18.2717 4.08683 18.3669 4.16461 18.4279 4.26719L20.4327 7.73594C20.493 7.83957 20.5145 7.96124 20.4935 8.07927C20.4725 8.19729 20.4102 8.30403 20.3179 8.38047L18.5268 9.78672C18.4282 9.86436 18.3506 9.96541 18.3011 10.0807C18.2516 10.196 18.2317 10.3218 18.2432 10.4467C18.2586 10.6408 18.2689 10.8358 18.2689 11.0312Z" stroke="#ABB5C7" stroke-width="2" stroke-linecap="round" stroke-linejoin="round"/>
</svg>
