<svg width="25" height="30" viewBox="0 0 25 30" fill="none" xmlns="http://www.w3.org/2000/svg">
<path fill-rule="evenodd" clip-rule="evenodd" d="M18.2351 22.6016C18.6769 22.5999 19.1054 22.7847 19.4477 23.1243C19.7899 23.464 20.0248 23.9375 20.1122 24.4641C20.1996 24.9908 20.1341 25.538 19.9269 26.0125C19.7197 26.487 19.3837 26.8595 18.976 27.0664C18.5684 27.2733 18.1143 27.3018 17.6913 27.1471C17.2683 26.9924 16.9025 26.6641 16.6562 26.2181C16.4099 25.772 16.2984 25.2359 16.3407 24.7011C16.383 24.1663 16.5765 23.6659 16.8882 23.2852C17.0647 23.069 17.2745 22.8974 17.5056 22.7801C17.7368 22.6628 17.9847 22.6021 18.2351 22.6016ZM10.8334 26.5345H2.46499C2.07688 26.5315 1.7054 26.3425 1.43114 26.0085C1.15688 25.6745 1.00196 25.2224 1 24.7503V2.7819C1.00148 2.30987 1.1563 1.85768 1.43072 1.5239C1.70514 1.19011 2.0769 1.0018 2.46499 1H20.2472C20.6347 1.00151 21.006 1.19 21.2794 1.52409L21.3281 1.59017C21.5698 1.91743 21.7033 2.34198 21.7028 2.7819V19.6439C21.5154 19.5322 21.3281 19.4297 21.1408 19.3363C20.8685 19.207 20.5909 19.0952 20.309 19.0013V2.7819V2.74772L20.2959 2.73177C20.2853 2.71727 20.2705 2.70829 20.2547 2.70671H2.46499C2.44874 2.70728 2.43329 2.71539 2.42179 2.72936C2.4103 2.74334 2.40364 2.76214 2.40317 2.7819V24.7503C2.40543 24.7693 2.41267 24.7869 2.42381 24.8004C2.43495 24.814 2.44939 24.8228 2.46499 24.8255H10.4381V24.9053V24.9258C10.4169 25.5034 10.5584 26.0724 10.839 26.5391L10.8334 26.5345ZM12.407 24.5977C12.7053 24.1577 13.0283 23.7435 13.3737 23.3581C14.7244 21.8633 16.4105 20.8812 17.9972 20.8516C19.584 20.8219 21.3506 21.7106 22.8774 23.2419C23.2971 23.6628 23.6915 24.1197 24.0576 24.6091C24.1152 24.6875 24.1487 24.7878 24.1525 24.8928C24.1562 24.9979 24.13 25.1013 24.0782 25.1855C23.6715 25.8886 23.1859 26.519 22.6357 27.0586C21.4274 28.2321 19.8556 28.9932 18.4169 29.0046C16.9781 29.016 15.3839 28.2754 14.1081 27.1816C13.4603 26.6219 12.8807 25.9537 12.3864 25.1969C12.3312 25.1114 12.3029 25.0047 12.3067 24.8961C12.3105 24.7874 12.3461 24.684 12.407 24.6045V24.5977ZM13.8739 24.0257C13.6225 24.3047 13.3842 24.6006 13.1601 24.9121C13.5649 25.4866 14.0261 25.9986 14.5333 26.4365C15.6836 27.4323 17.1336 28.1159 18.4225 28.0999C19.7114 28.084 21.1089 27.3913 22.1842 26.3477C22.6043 25.936 22.9817 25.4639 23.3083 24.9417C23.027 24.5828 22.7286 24.2442 22.4147 23.9277C21.0302 22.54 19.4172 21.7083 18.0178 21.7425C16.6184 21.7767 15.0972 22.679 13.8814 24.0212L13.8739 24.0257ZM8.13198 17.7184H17.1935C17.2206 17.7196 17.2462 17.7331 17.2654 17.7564C17.2845 17.7797 17.2956 17.8109 17.2966 17.8438V18.6527C16.4502 18.765 15.6241 19.042 14.8499 19.473L14.7488 19.5299H8.13198C8.1048 19.5294 8.07887 19.516 8.05965 19.4926C8.04043 19.4692 8.02942 19.4377 8.02894 19.4046V17.8438C8.02894 17.8105 8.0398 17.7786 8.05912 17.7551C8.07844 17.7316 8.10465 17.7184 8.13198 17.7184ZM6.26983 7.05664C6.43932 7.05619 6.6051 7.11694 6.74618 7.23119C6.88726 7.34544 6.99728 7.50805 7.06231 7.69842C7.12734 7.8888 7.14446 8.09836 7.11148 8.30058C7.07851 8.50279 6.99693 8.68855 6.87708 8.83432C6.75724 8.98009 6.60452 9.07932 6.43827 9.11942C6.27202 9.15953 6.09972 9.13872 5.94321 9.05962C5.7867 8.98052 5.653 8.84669 5.55907 8.6751C5.46514 8.5035 5.4152 8.30185 5.41557 8.0957C5.41606 7.82031 5.50622 7.55637 5.66632 7.36164C5.82642 7.16691 6.04342 7.05724 6.26983 7.05664ZM8.13198 7.19108H17.1935C17.2207 7.19167 17.2466 7.20506 17.2659 7.22844C17.2851 7.25181 17.2961 7.28335 17.2966 7.31641V8.87728C17.2952 8.90998 17.2839 8.94091 17.2649 8.96406C17.2459 8.98722 17.2204 9.00095 17.1935 9.0026H8.13198C8.10495 9.00147 8.07928 8.9879 8.06015 8.96464C8.04103 8.94138 8.02987 8.91016 8.02894 8.87728V7.31641C8.02894 7.29995 8.03161 7.28365 8.03678 7.26845C8.04196 7.25324 8.04955 7.23943 8.05912 7.22779C8.06869 7.21615 8.08005 7.20692 8.09255 7.20062C8.10505 7.19432 8.11845 7.19108 8.13198 7.19108ZM6.26983 12.3203C6.43924 12.3199 6.60495 12.3806 6.74599 12.4947C6.88702 12.6089 6.99705 12.7713 7.06213 12.9616C7.12722 13.1518 7.14444 13.3613 7.11162 13.5634C7.0788 13.7656 6.99741 13.9513 6.87775 14.0972C6.75809 14.243 6.60555 14.3425 6.43942 14.3828C6.27329 14.4232 6.10106 14.4027 5.94451 14.3239C5.78796 14.2452 5.65414 14.1117 5.55998 13.9404C5.46583 13.7691 5.41557 13.5677 5.41557 13.3617C5.41557 13.0859 5.50551 12.8213 5.66566 12.6261C5.82581 12.4309 6.0431 12.3209 6.26983 12.3203ZM8.13198 12.4548H17.1935C17.2207 12.4553 17.2466 12.4687 17.2659 12.4921C17.2851 12.5155 17.2961 12.547 17.2966 12.5801V14.141C17.2952 14.1737 17.2839 14.2046 17.2649 14.2277C17.2459 14.2509 17.2204 14.2646 17.1935 14.2663H8.13198C8.10495 14.2651 8.07928 14.2516 8.06015 14.2283C8.04103 14.2051 8.02987 14.1738 8.02894 14.141V12.5801C8.02894 12.5468 8.0398 12.515 8.05912 12.4915C8.07844 12.468 8.10465 12.4548 8.13198 12.4548ZM6.26983 17.584C6.43924 17.5835 6.60495 17.6442 6.74599 17.7584C6.88702 17.8725 6.99705 18.035 7.06213 18.2252C7.12722 18.4155 7.14444 18.6249 7.11162 18.8271C7.0788 19.0292 6.99741 19.215 6.87775 19.3609C6.75809 19.5067 6.60555 19.6061 6.43942 19.6465C6.27329 19.6869 6.10106 19.6664 5.94451 19.5876C5.78796 19.5089 5.65414 19.3754 5.55998 19.2041C5.46583 19.0328 5.41557 18.8314 5.41557 18.6253C5.41606 18.3497 5.50616 18.0855 5.66621 17.8905C5.82625 17.6954 6.04325 17.5852 6.26983 17.584ZM17.6975 23.0527C17.8435 23.0523 17.9864 23.1044 18.1081 23.2026C18.2298 23.3007 18.325 23.4404 18.3815 23.6042C18.4381 23.768 18.4535 23.9484 18.426 24.1228C18.3984 24.2973 18.329 24.4579 18.2265 24.5844C18.124 24.711 17.993 24.7978 17.8501 24.834C17.7071 24.8702 17.5585 24.8541 17.423 24.7878C17.2876 24.7215 17.1712 24.6079 17.0887 24.4613C17.0062 24.3148 16.9612 24.1418 16.9594 23.9642C16.9593 23.7248 17.0367 23.495 17.1749 23.3245C17.313 23.1539 17.5007 23.0563 17.6975 23.0527Z" fill="black"/>
<mask id="mask0_377_2956" style="mask-type:luminance" maskUnits="userSpaceOnUse" x="0" y="0" width="25" height="30">
<path d="M25 0H0V30H25V0Z" fill="white"/>
<path fill-rule="evenodd" clip-rule="evenodd" d="M18.2351 22.6016C18.6769 22.5999 19.1054 22.7847 19.4477 23.1243C19.7899 23.464 20.0248 23.9375 20.1122 24.4641C20.1996 24.9908 20.1341 25.538 19.9269 26.0125C19.7197 26.487 19.3837 26.8595 18.976 27.0664C18.5684 27.2733 18.1143 27.3018 17.6913 27.1471C17.2683 26.9924 16.9025 26.6641 16.6562 26.2181C16.4099 25.772 16.2984 25.2359 16.3407 24.7011C16.383 24.1663 16.5765 23.6659 16.8882 23.2852C17.0647 23.069 17.2745 22.8974 17.5056 22.7801C17.7368 22.6628 17.9847 22.6021 18.2351 22.6016ZM10.8334 26.5345H2.46499C2.07688 26.5315 1.7054 26.3425 1.43114 26.0085C1.15688 25.6745 1.00196 25.2224 1 24.7503V2.7819C1.00148 2.30987 1.1563 1.85768 1.43072 1.5239C1.70514 1.19011 2.0769 1.0018 2.46499 1H20.2472C20.6347 1.00151 21.006 1.19 21.2794 1.52409L21.3281 1.59017C21.5698 1.91743 21.7033 2.34198 21.7028 2.7819V19.6439C21.5154 19.5322 21.3281 19.4297 21.1408 19.3363C20.8685 19.207 20.5909 19.0952 20.309 19.0013V2.7819V2.74772L20.2959 2.73177C20.2853 2.71727 20.2705 2.70829 20.2547 2.70671H2.46499C2.44874 2.70728 2.43329 2.71539 2.42179 2.72936C2.4103 2.74334 2.40364 2.76214 2.40317 2.7819V24.7503C2.40543 24.7693 2.41267 24.7869 2.42381 24.8004C2.43495 24.814 2.44939 24.8228 2.46499 24.8255H10.4381V24.9053V24.9258C10.4169 25.5034 10.5584 26.0724 10.839 26.5391L10.8334 26.5345ZM12.407 24.5977C12.7053 24.1577 13.0283 23.7435 13.3737 23.3581C14.7244 21.8633 16.4105 20.8812 17.9972 20.8516C19.584 20.8219 21.3506 21.7106 22.8774 23.2419C23.2971 23.6628 23.6915 24.1197 24.0576 24.6091C24.1152 24.6875 24.1487 24.7878 24.1525 24.8928C24.1562 24.9979 24.13 25.1013 24.0782 25.1855C23.6715 25.8886 23.1859 26.519 22.6357 27.0586C21.4274 28.2321 19.8556 28.9932 18.4169 29.0046C16.9781 29.016 15.3839 28.2754 14.1081 27.1816C13.4603 26.6219 12.8807 25.9537 12.3864 25.1969C12.3312 25.1114 12.3029 25.0047 12.3067 24.8961C12.3105 24.7874 12.3461 24.684 12.407 24.6045V24.5977ZM13.8739 24.0257C13.6225 24.3047 13.3842 24.6006 13.1601 24.9121C13.5649 25.4866 14.0261 25.9986 14.5333 26.4365C15.6836 27.4323 17.1336 28.1159 18.4225 28.0999C19.7114 28.084 21.1089 27.3913 22.1842 26.3477C22.6043 25.936 22.9817 25.4639 23.3083 24.9417C23.027 24.5828 22.7286 24.2442 22.4147 23.9277C21.0302 22.54 19.4172 21.7083 18.0178 21.7425C16.6184 21.7767 15.0972 22.679 13.8814 24.0212L13.8739 24.0257ZM8.13198 17.7184H17.1935C17.2206 17.7196 17.2462 17.7331 17.2654 17.7564C17.2845 17.7797 17.2956 17.8109 17.2966 17.8438V18.6527C16.4502 18.765 15.6241 19.042 14.8499 19.473L14.7488 19.5299H8.13198C8.1048 19.5294 8.07887 19.516 8.05965 19.4926C8.04043 19.4692 8.02942 19.4377 8.02894 19.4046V17.8438C8.02894 17.8105 8.0398 17.7786 8.05912 17.7551C8.07844 17.7316 8.10465 17.7184 8.13198 17.7184ZM6.26983 7.05664C6.43932 7.05619 6.6051 7.11694 6.74618 7.23119C6.88726 7.34544 6.99728 7.50805 7.06231 7.69842C7.12734 7.8888 7.14446 8.09836 7.11148 8.30058C7.07851 8.50279 6.99693 8.68855 6.87708 8.83432C6.75724 8.98009 6.60452 9.07932 6.43827 9.11942C6.27202 9.15953 6.09972 9.13872 5.94321 9.05962C5.7867 8.98052 5.653 8.84669 5.55907 8.6751C5.46514 8.5035 5.4152 8.30185 5.41557 8.0957C5.41606 7.82031 5.50622 7.55637 5.66632 7.36164C5.82642 7.16691 6.04342 7.05724 6.26983 7.05664ZM8.13198 7.19108H17.1935C17.2207 7.19167 17.2466 7.20506 17.2659 7.22844C17.2851 7.25181 17.2961 7.28335 17.2966 7.31641V8.87728C17.2952 8.90998 17.2839 8.94091 17.2649 8.96406C17.2459 8.98722 17.2204 9.00095 17.1935 9.0026H8.13198C8.10495 9.00147 8.07928 8.9879 8.06015 8.96464C8.04103 8.94138 8.02987 8.91016 8.02894 8.87728V7.31641C8.02894 7.29995 8.03161 7.28365 8.03678 7.26845C8.04196 7.25324 8.04955 7.23943 8.05912 7.22779C8.06869 7.21615 8.08005 7.20692 8.09255 7.20062C8.10505 7.19432 8.11845 7.19108 8.13198 7.19108ZM6.26983 12.3203C6.43924 12.3199 6.60495 12.3806 6.74599 12.4947C6.88702 12.6089 6.99705 12.7713 7.06213 12.9616C7.12722 13.1518 7.14444 13.3613 7.11162 13.5634C7.0788 13.7656 6.99741 13.9513 6.87775 14.0972C6.75809 14.243 6.60555 14.3425 6.43942 14.3828C6.27329 14.4232 6.10106 14.4027 5.94451 14.3239C5.78796 14.2452 5.65414 14.1117 5.55998 13.9404C5.46583 13.7691 5.41557 13.5677 5.41557 13.3617C5.41557 13.0859 5.50551 12.8213 5.66566 12.6261C5.82581 12.4309 6.0431 12.3209 6.26983 12.3203ZM8.13198 12.4548H17.1935C17.2207 12.4553 17.2466 12.4687 17.2659 12.4921C17.2851 12.5155 17.2961 12.547 17.2966 12.5801V14.141C17.2952 14.1737 17.2839 14.2046 17.2649 14.2277C17.2459 14.2509 17.2204 14.2646 17.1935 14.2663H8.13198C8.10495 14.2651 8.07928 14.2516 8.06015 14.2283C8.04103 14.2051 8.02987 14.1738 8.02894 14.141V12.5801C8.02894 12.5468 8.0398 12.515 8.05912 12.4915C8.07844 12.468 8.10465 12.4548 8.13198 12.4548ZM6.26983 17.584C6.43924 17.5835 6.60495 17.6442 6.74599 17.7584C6.88702 17.8725 6.99705 18.035 7.06213 18.2252C7.12722 18.4155 7.14444 18.6249 7.11162 18.8271C7.0788 19.0292 6.99741 19.215 6.87775 19.3609C6.75809 19.5067 6.60555 19.6061 6.43942 19.6465C6.27329 19.6869 6.10106 19.6664 5.94451 19.5876C5.78796 19.5089 5.65414 19.3754 5.55998 19.2041C5.46583 19.0328 5.41557 18.8314 5.41557 18.6253C5.41606 18.3497 5.50616 18.0855 5.66621 17.8905C5.82625 17.6954 6.04325 17.5852 6.26983 17.584ZM17.6975 23.0527C17.8435 23.0523 17.9864 23.1044 18.1081 23.2026C18.2298 23.3007 18.325 23.4404 18.3815 23.6042C18.4381 23.768 18.4535 23.9484 18.426 24.1228C18.3984 24.2973 18.329 24.4579 18.2265 24.5844C18.124 24.711 17.993 24.7978 17.8501 24.834C17.7071 24.8702 17.5585 24.8541 17.423 24.7878C17.2876 24.7215 17.1712 24.6079 17.0887 24.4613C17.0062 24.3148 16.9612 24.1418 16.9594 23.9642C16.9593 23.7248 17.0367 23.495 17.1749 23.3245C17.313 23.1539 17.5007 23.0563 17.6975 23.0527Z" fill="black"/>
</mask>
<g mask="url(#mask0_377_2956)">
<path fill-rule="evenodd" clip-rule="evenodd" d="M18.2351 22.6016C18.6769 22.5999 19.1054 22.7847 19.4477 23.1243C19.7899 23.464 20.0248 23.9375 20.1122 24.4641C20.1996 24.9908 20.1341 25.538 19.9269 26.0125C19.7197 26.487 19.3837 26.8595 18.976 27.0664C18.5684 27.2733 18.1143 27.3018 17.6913 27.1471C17.2683 26.9924 16.9025 26.6641 16.6562 26.2181C16.4099 25.772 16.2984 25.2359 16.3407 24.7011C16.383 24.1663 16.5765 23.6659 16.8882 23.2852C17.0647 23.069 17.2745 22.8974 17.5056 22.7801C17.7368 22.6628 17.9847 22.6021 18.2351 22.6016ZM10.8334 26.5345H2.46499C2.07688 26.5315 1.7054 26.3425 1.43114 26.0085C1.15688 25.6745 1.00196 25.2224 1 24.7503V2.7819C1.00148 2.30987 1.1563 1.85768 1.43072 1.5239C1.70514 1.19011 2.0769 1.0018 2.46499 1H20.2472C20.6347 1.00151 21.006 1.19 21.2794 1.52409L21.3281 1.59017C21.5698 1.91743 21.7033 2.34198 21.7028 2.7819V19.6439C21.5154 19.5322 21.3281 19.4297 21.1408 19.3363C20.8685 19.207 20.5909 19.0952 20.309 19.0013V2.7819V2.74772L20.2959 2.73177C20.2853 2.71727 20.2705 2.70829 20.2547 2.70671H2.46499C2.44874 2.70728 2.43329 2.71539 2.42179 2.72936C2.4103 2.74334 2.40364 2.76214 2.40317 2.7819V24.7503C2.40543 24.7693 2.41267 24.7869 2.42381 24.8004C2.43495 24.814 2.44939 24.8228 2.46499 24.8255H10.4381V24.9053V24.9258C10.4169 25.5034 10.5584 26.0724 10.839 26.5391L10.8334 26.5345ZM12.407 24.5977C12.7053 24.1577 13.0283 23.7435 13.3737 23.3581C14.7244 21.8633 16.4105 20.8812 17.9972 20.8516C19.584 20.8219 21.3506 21.7106 22.8774 23.2419C23.2971 23.6628 23.6915 24.1197 24.0576 24.6091C24.1152 24.6875 24.1487 24.7878 24.1525 24.8928C24.1562 24.9979 24.13 25.1013 24.0782 25.1855C23.6715 25.8886 23.1859 26.519 22.6357 27.0586C21.4274 28.2321 19.8556 28.9932 18.4169 29.0046C16.9781 29.016 15.3839 28.2754 14.1081 27.1816C13.4603 26.6219 12.8807 25.9537 12.3864 25.1969C12.3312 25.1114 12.3029 25.0047 12.3067 24.8961C12.3105 24.7874 12.3461 24.684 12.407 24.6045V24.5977ZM13.8739 24.0257C13.6225 24.3047 13.3842 24.6006 13.1601 24.9121C13.5649 25.4866 14.0261 25.9986 14.5333 26.4365C15.6836 27.4323 17.1336 28.1159 18.4225 28.0999C19.7114 28.084 21.1089 27.3913 22.1842 26.3477C22.6043 25.936 22.9817 25.4639 23.3083 24.9417C23.027 24.5828 22.7286 24.2442 22.4147 23.9277C21.0302 22.54 19.4172 21.7083 18.0178 21.7425C16.6184 21.7767 15.0972 22.679 13.8814 24.0212L13.8739 24.0257ZM8.13198 17.7184H17.1935C17.2206 17.7196 17.2462 17.7331 17.2654 17.7564C17.2845 17.7797 17.2956 17.8109 17.2966 17.8438V18.6527C16.4502 18.765 15.6241 19.042 14.8499 19.473L14.7488 19.5299H8.13198C8.1048 19.5294 8.07887 19.516 8.05965 19.4926C8.04043 19.4692 8.02942 19.4377 8.02894 19.4046V17.8438C8.02894 17.8105 8.0398 17.7786 8.05912 17.7551C8.07844 17.7316 8.10465 17.7184 8.13198 17.7184ZM6.26983 7.05664C6.43932 7.05619 6.6051 7.11694 6.74618 7.23119C6.88726 7.34544 6.99728 7.50805 7.06231 7.69842C7.12734 7.8888 7.14446 8.09836 7.11148 8.30058C7.07851 8.50279 6.99693 8.68855 6.87708 8.83432C6.75724 8.98009 6.60452 9.07932 6.43827 9.11942C6.27202 9.15953 6.09972 9.13872 5.94321 9.05962C5.7867 8.98052 5.653 8.84669 5.55907 8.6751C5.46514 8.5035 5.4152 8.30185 5.41557 8.0957C5.41606 7.82031 5.50622 7.55637 5.66632 7.36164C5.82642 7.16691 6.04342 7.05724 6.26983 7.05664ZM8.13198 7.19108H17.1935C17.2207 7.19167 17.2466 7.20506 17.2659 7.22844C17.2851 7.25181 17.2961 7.28335 17.2966 7.31641V8.87728C17.2952 8.90998 17.2839 8.94091 17.2649 8.96406C17.2459 8.98722 17.2204 9.00095 17.1935 9.0026H8.13198C8.10495 9.00147 8.07928 8.9879 8.06015 8.96464C8.04103 8.94138 8.02987 8.91016 8.02894 8.87728V7.31641C8.02894 7.29995 8.03161 7.28365 8.03678 7.26845C8.04196 7.25324 8.04955 7.23943 8.05912 7.22779C8.06869 7.21615 8.08005 7.20692 8.09255 7.20062C8.10505 7.19432 8.11845 7.19108 8.13198 7.19108ZM6.26983 12.3203C6.43924 12.3199 6.60495 12.3806 6.74599 12.4947C6.88702 12.6089 6.99705 12.7713 7.06213 12.9616C7.12722 13.1518 7.14444 13.3613 7.11162 13.5634C7.0788 13.7656 6.99741 13.9513 6.87775 14.0972C6.75809 14.243 6.60555 14.3425 6.43942 14.3828C6.27329 14.4232 6.10106 14.4027 5.94451 14.3239C5.78796 14.2452 5.65414 14.1117 5.55998 13.9404C5.46583 13.7691 5.41557 13.5677 5.41557 13.3617C5.41557 13.0859 5.50551 12.8213 5.66566 12.6261C5.82581 12.4309 6.0431 12.3209 6.26983 12.3203ZM8.13198 12.4548H17.1935C17.2207 12.4553 17.2466 12.4687 17.2659 12.4921C17.2851 12.5155 17.2961 12.547 17.2966 12.5801V14.141C17.2952 14.1737 17.2839 14.2046 17.2649 14.2277C17.2459 14.2509 17.2204 14.2646 17.1935 14.2663H8.13198C8.10495 14.2651 8.07928 14.2516 8.06015 14.2283C8.04103 14.2051 8.02987 14.1738 8.02894 14.141V12.5801C8.02894 12.5468 8.0398 12.515 8.05912 12.4915C8.07844 12.468 8.10465 12.4548 8.13198 12.4548ZM6.26983 17.584C6.43924 17.5835 6.60495 17.6442 6.74599 17.7584C6.88702 17.8725 6.99705 18.035 7.06213 18.2252C7.12722 18.4155 7.14444 18.6249 7.11162 18.8271C7.0788 19.0292 6.99741 19.215 6.87775 19.3609C6.75809 19.5067 6.60555 19.6061 6.43942 19.6465C6.27329 19.6869 6.10106 19.6664 5.94451 19.5876C5.78796 19.5089 5.65414 19.3754 5.55998 19.2041C5.46583 19.0328 5.41557 18.8314 5.41557 18.6253C5.41606 18.3497 5.50616 18.0855 5.66621 17.8905C5.82625 17.6954 6.04325 17.5852 6.26983 17.584ZM17.6975 23.0527C17.8435 23.0523 17.9864 23.1044 18.1081 23.2026C18.2298 23.3007 18.325 23.4404 18.3815 23.6042C18.4381 23.768 18.4535 23.9484 18.426 24.1228C18.3984 24.2973 18.329 24.4579 18.2265 24.5844C18.124 24.711 17.993 24.7978 17.8501 24.834C17.7071 24.8702 17.5585 24.8541 17.423 24.7878C17.2876 24.7215 17.1712 24.6079 17.0887 24.4613C17.0062 24.3148 16.9612 24.1418 16.9594 23.9642C16.9593 23.7248 17.0367 23.495 17.1749 23.3245C17.313 23.1539 17.5007 23.0563 17.6975 23.0527Z" stroke="black" stroke-width="0.4"/>
</g>
</svg>
