<svg width="587" height="489" viewBox="0 0 587 489" fill="none" xmlns="http://www.w3.org/2000/svg">
<path d="M538.083 421.651H48.9167C21.9391 421.651 0 401.761 0 377.303V44.6936C0 20.2357 21.9391 0.345703 48.9167 0.345703H538.083C565.061 0.345703 587 20.2357 587 44.6936V377.303C587 401.761 565.061 421.651 538.083 421.651ZM48.9167 22.5196C35.4279 22.5196 24.4583 32.4647 24.4583 44.6936V377.303C24.4583 389.532 35.4279 399.477 48.9167 399.477H538.083C551.572 399.477 562.542 389.532 562.542 377.303V44.6936C562.542 32.4647 551.572 22.5196 538.083 22.5196H48.9167Z" fill="#E3E3E8"/>
<path d="M464.708 488.172H122.292C115.541 488.172 110.062 483.205 110.062 477.085C110.062 470.965 115.541 465.998 122.292 465.998H464.708C471.459 465.998 476.938 470.965 476.938 477.085C476.938 483.205 471.459 488.172 464.708 488.172Z" fill="#E3E3E8"/>
<path d="M379.349 488.172C379.263 488.172 379.19 488.172 379.104 488.172H207.896C203.97 488.172 200.277 486.465 197.978 483.56C195.679 480.666 195.055 476.952 196.29 473.571L220.749 407.049C222.424 402.525 227.083 399.477 232.354 399.477H354.646C359.917 399.477 364.576 402.525 366.251 407.06L389.976 471.597C390.991 473.216 391.578 475.09 391.578 477.085C391.578 483.205 386.099 488.172 379.349 488.172ZM224.858 465.998H362.142L345.841 421.651H241.171L224.858 465.998Z" fill="#E3E3E8"/>
<path d="M538.084 332.955H48.917V44.6934H538.084V332.955ZM73.3753 310.781H513.625V66.8673H73.3753V310.781Z" fill="#E3E3E8"/>
<path d="M293.5 388.391C307.008 388.391 317.959 378.463 317.959 366.217C317.959 353.971 307.008 344.043 293.5 344.043C279.992 344.043 269.042 353.971 269.042 366.217C269.042 378.463 279.992 388.391 293.5 388.391Z" fill="#E3E3E8"/>
<path d="M303.756 135.914C300.463 135.914 297.245 136.799 294.507 138.458C291.77 140.116 289.636 142.473 288.376 145.231C287.116 147.988 286.786 151.023 287.429 153.95C288.071 156.878 289.657 159.567 291.985 161.678C294.313 163.788 297.279 165.226 300.508 165.808C303.737 166.39 307.084 166.091 310.126 164.949C313.168 163.807 315.768 161.872 317.597 159.391C319.426 156.909 320.402 153.991 320.402 151.006C320.402 147.003 318.648 143.165 315.527 140.334C312.405 137.504 308.171 135.914 303.756 135.914ZM303.756 158.552C302.109 158.552 300.5 158.109 299.131 157.28C297.763 156.451 296.696 155.273 296.066 153.894C295.436 152.515 295.271 150.998 295.592 149.534C295.913 148.07 296.706 146.725 297.87 145.67C299.034 144.615 300.517 143.896 302.132 143.605C303.746 143.314 305.42 143.463 306.941 144.034C308.462 144.606 309.762 145.573 310.676 146.814C311.591 148.055 312.079 149.514 312.079 151.006C312.079 153.007 311.202 154.927 309.641 156.342C308.08 157.757 305.963 158.552 303.756 158.552Z" fill="#E3E3E8"/>
<path d="M351.906 159.683L346.163 156.702C346.82 152.953 346.82 149.133 346.163 145.384L351.906 142.403C353.262 141.695 354.452 140.752 355.406 139.628C356.36 138.503 357.06 137.219 357.465 135.848C357.871 134.478 357.975 133.049 357.771 131.642C357.567 130.235 357.059 128.879 356.276 127.651L352.405 121.576C350.779 119.139 348.163 117.379 345.12 116.673C342.077 115.968 338.85 116.373 336.133 117.803L330.39 120.821C327.108 118.426 323.446 116.492 319.528 115.087V108.861C319.495 106.019 318.227 103.303 315.998 101.304C313.77 99.3048 310.761 98.1834 307.626 98.1836H299.885C296.728 98.1836 293.701 99.3205 291.469 101.344C289.237 103.368 287.983 106.112 287.983 108.974V114.822C284.065 116.228 280.403 118.162 277.121 120.557L271.378 117.539C268.666 116.089 265.432 115.672 262.382 116.38C259.333 117.087 256.716 118.86 255.105 121.312L251.235 127.575C249.658 130.038 249.211 132.964 249.989 135.723C250.767 138.482 252.709 140.853 255.397 142.327L261.14 145.308C260.483 149.058 260.483 152.878 261.14 156.627L255.397 159.608C252.692 161.068 250.736 163.44 249.956 166.205C249.176 168.97 249.636 171.902 251.235 174.36L255.105 180.435C256.697 182.903 259.298 184.703 262.344 185.445C265.39 186.186 268.636 185.81 271.378 184.396L277.121 181.378C280.403 183.774 284.065 185.707 287.983 187.113V193.074C287.994 195.929 289.252 198.664 291.483 200.68C293.714 202.695 296.736 203.827 299.885 203.827H307.626C310.782 203.827 313.81 202.69 316.042 200.666C318.274 198.643 319.528 195.898 319.528 193.036V187.188C323.446 185.782 327.108 183.849 330.39 181.453L336.133 184.472C337.488 185.181 338.984 185.642 340.536 185.827C342.087 186.012 343.664 185.918 345.176 185.55C346.687 185.182 348.103 184.548 349.344 183.683C350.585 182.818 351.625 181.74 352.405 180.51L356.276 174.435C357.835 171.95 358.25 169.007 357.432 166.246C356.614 163.484 354.629 161.126 351.906 159.683ZM349.034 170.662L345.372 176.737C344.901 177.481 344.125 178.025 343.212 178.251C342.3 178.478 341.326 178.367 340.503 177.944L329.558 172.209L327.31 174.058C323.591 177.184 319.158 179.528 314.326 180.925L311.413 181.755V193.074C311.413 193.935 311.036 194.76 310.365 195.368C309.693 195.977 308.783 196.319 307.834 196.319H299.885C298.936 196.319 298.025 195.977 297.354 195.368C296.683 194.76 296.306 193.935 296.306 193.074V181.755L293.393 180.925C288.561 179.528 284.128 177.184 280.408 174.058L278.161 172.209L267.216 177.944C266.392 178.361 265.421 178.469 264.511 178.246C264.057 178.139 263.631 177.95 263.26 177.691C262.888 177.432 262.577 177.107 262.347 176.737L258.476 170.662C258.217 170.289 258.045 169.872 257.969 169.436C257.894 169.001 257.917 168.555 258.038 168.128C258.159 167.701 258.374 167.3 258.671 166.951C258.969 166.602 259.341 166.311 259.766 166.097L270.67 160.4L270.004 157.683C269.463 155.453 269.184 153.176 269.172 150.892C269.179 148.606 269.472 146.327 270.046 144.101L270.67 141.384L259.766 135.913C259.358 135.699 259.001 135.413 258.715 135.073C258.429 134.733 258.22 134.344 258.1 133.931C257.98 133.517 257.951 133.086 258.016 132.662C258.081 132.238 258.237 131.83 258.476 131.461L262.347 125.387C262.818 124.643 263.594 124.099 264.507 123.872C265.419 123.646 266.393 123.756 267.216 124.179L278.161 129.914L280.408 128.066C284.128 124.94 288.561 122.596 293.393 121.199L296.306 120.369V109.05C296.295 108.617 296.379 108.187 296.554 107.785C296.729 107.382 296.991 107.016 297.324 106.706C297.658 106.397 298.056 106.151 298.496 105.984C298.936 105.816 299.408 105.729 299.885 105.73H307.626C308.575 105.73 309.485 106.071 310.156 106.68C310.828 107.288 311.205 108.114 311.205 108.974V120.293L314.118 121.123C318.95 122.52 323.383 124.865 327.102 127.99L329.35 129.839L340.295 124.104C341.119 123.688 342.089 123.579 343 123.802C343.454 123.909 343.879 124.098 344.251 124.357C344.623 124.617 344.933 124.941 345.164 125.311L349.034 131.386C349.287 131.758 349.454 132.172 349.526 132.604C349.597 133.035 349.572 133.476 349.452 133.898C349.331 134.321 349.118 134.718 348.825 135.064C348.531 135.41 348.164 135.699 347.744 135.913L337.049 141.497L337.715 144.214C338.256 146.445 338.535 148.721 338.547 151.005C338.54 153.292 338.247 155.57 337.673 157.797L337.049 160.513L347.744 166.097C348.17 166.311 348.542 166.602 348.839 166.951C349.137 167.3 349.352 167.701 349.473 168.128C349.594 168.555 349.617 169.001 349.542 169.436C349.466 169.872 349.294 170.289 349.034 170.662Z" fill="#E3E3E8"/>
<g clip-path="url(#clip0_1178_13636)">
<path d="M249.745 210.004C247.753 210.689 246.03 211.894 244.793 213.467C243.557 215.039 242.862 216.909 242.798 218.84C242.734 220.77 243.302 222.675 244.432 224.312C245.561 225.95 247.201 227.247 249.144 228.04C251.086 228.832 253.245 229.085 255.346 228.766C257.447 228.446 259.396 227.569 260.947 226.245C262.499 224.921 263.582 223.21 264.061 221.328C264.539 219.446 264.391 217.478 263.636 215.672C262.623 213.25 260.59 211.293 257.985 210.23C255.38 209.167 252.416 209.085 249.745 210.004ZM255.474 223.7C254.478 224.042 253.393 224.109 252.355 223.893C251.317 223.676 250.373 223.185 249.643 222.481C248.913 221.778 248.429 220.895 248.253 219.942C248.077 218.99 248.216 218.011 248.653 217.131C249.09 216.25 249.806 215.507 250.709 214.995C251.612 214.483 252.662 214.225 253.727 214.254C254.792 214.283 255.823 214.598 256.69 215.159C257.558 215.719 258.222 216.5 258.6 217.403C259.107 218.614 259.062 219.958 258.476 221.139C257.889 222.319 256.81 223.241 255.474 223.7Z" fill="#E3E3E8"/>
<path d="M284.892 214.368L280.663 213.759C280.112 211.354 279.145 209.043 277.798 206.911L280.519 203.913C281.16 203.203 281.641 202.385 281.933 201.506C282.226 200.627 282.324 199.705 282.223 198.791C282.122 197.878 281.823 196.991 281.343 196.183C280.864 195.374 280.213 194.659 279.429 194.079L275.55 191.209C273.949 190.073 271.921 189.552 269.901 189.758C267.881 189.964 266.032 190.881 264.75 192.311L262.039 195.332C259.447 194.565 256.742 194.157 254.016 194.122L252.441 190.356C251.701 188.643 250.247 187.264 248.392 186.518C246.538 185.772 244.434 185.719 242.537 186.372L237.854 187.982C235.944 188.638 234.4 189.956 233.562 191.645C232.724 193.333 232.66 195.255 233.384 196.986L234.864 200.524C232.849 202.19 231.123 204.121 229.744 206.254L225.505 205.622C223.498 205.309 221.436 205.73 219.77 206.792C218.104 207.854 216.969 209.471 216.615 211.29L215.859 215.884C215.528 217.702 215.998 219.565 217.167 221.073C218.336 222.58 220.111 223.611 222.111 223.944L226.34 224.552C226.891 226.958 227.858 229.269 229.204 231.4L226.484 234.398C225.217 235.845 224.634 237.687 224.862 239.522C225.09 241.357 226.11 243.035 227.7 244.189L231.579 247.059C233.167 248.222 235.196 248.77 237.226 248.585C239.257 248.4 241.125 247.497 242.426 246.071L245.137 243.05C247.729 243.817 250.434 244.225 253.16 244.261L254.669 247.867C255.398 249.592 256.852 250.985 258.712 251.741C260.572 252.496 262.686 252.552 264.591 251.897L269.275 250.287C271.184 249.63 272.728 248.312 273.567 246.624C274.405 244.935 274.469 243.014 273.745 241.282L272.264 237.744C274.279 236.079 276.005 234.147 277.385 232.015L281.623 232.646C282.623 232.794 283.644 232.761 284.63 232.551C285.616 232.34 286.546 231.955 287.367 231.418C288.188 230.881 288.885 230.202 289.416 229.421C289.948 228.64 290.304 227.771 290.465 226.865L291.27 222.384C291.584 220.556 291.09 218.689 289.897 217.189C288.703 215.688 286.905 214.675 284.892 214.368ZM285.934 221.608L285.255 226.045C285.159 226.593 284.827 227.084 284.332 227.41C283.837 227.737 283.22 227.873 282.615 227.788L274.542 226.595L273.65 228.181C272.19 230.846 270.102 233.187 267.532 235.037L265.98 236.145L268.844 242.993C269.062 243.514 269.043 244.092 268.791 244.599C268.539 245.107 268.074 245.503 267.5 245.701L262.691 247.354C262.117 247.552 261.48 247.534 260.919 247.306C260.359 247.077 259.922 246.656 259.705 246.136L256.84 239.288L254.867 239.392C251.59 239.551 248.315 239.055 245.274 237.938L243.446 237.287L238.276 243.034C237.882 243.457 237.323 243.724 236.715 243.779C236.414 243.809 236.108 243.783 235.818 243.703C235.527 243.624 235.257 243.492 235.024 243.316L231.145 240.446C230.894 240.274 230.684 240.058 230.528 239.81C230.372 239.562 230.273 239.288 230.238 239.004C230.203 238.72 230.232 238.433 230.324 238.16C230.415 237.887 230.567 237.634 230.77 237.416L235.925 231.701L234.835 230.196C233.942 228.959 233.197 227.639 232.612 226.26C232.038 224.875 231.638 223.436 231.422 221.969L231.112 220.196L223.131 219.154C222.83 219.109 222.541 219.011 222.282 218.864C222.023 218.718 221.798 218.527 221.621 218.301C221.443 218.076 221.317 217.821 221.249 217.551C221.181 217.281 221.172 217.002 221.224 216.729L222.028 212.249C222.124 211.701 222.456 211.21 222.951 210.883C223.446 210.557 224.063 210.421 224.668 210.505L232.741 211.698L233.633 210.112C235.093 207.448 237.181 205.107 239.751 203.257L241.303 202.148L238.439 195.3C238.323 195.041 238.265 194.763 238.269 194.484C238.273 194.204 238.338 193.927 238.462 193.671C238.585 193.414 238.764 193.183 238.988 192.99C239.211 192.797 239.475 192.646 239.764 192.547L244.447 190.937C245.021 190.739 245.658 190.757 246.219 190.985C246.779 191.214 247.216 191.635 247.433 192.155L250.298 199.004L252.271 198.9C255.548 198.74 258.823 199.236 261.864 200.353L263.692 201.004L268.862 195.258C269.256 194.834 269.815 194.567 270.423 194.512C270.724 194.483 271.03 194.508 271.32 194.588C271.611 194.667 271.881 194.799 272.114 194.975L275.993 197.845C276.24 198.018 276.446 198.233 276.598 198.48C276.751 198.726 276.847 198.998 276.881 199.279C276.916 199.559 276.887 199.843 276.797 200.114C276.707 200.385 276.558 200.636 276.358 200.853L271.301 206.456L272.391 207.961C273.283 209.198 274.028 210.517 274.613 211.897C275.188 213.282 275.587 214.721 275.804 216.187L276.113 217.961L283.998 219.114C284.309 219.155 284.608 219.254 284.876 219.403C285.144 219.553 285.376 219.75 285.557 219.983C285.739 220.217 285.865 220.481 285.93 220.761C285.995 221.04 285.996 221.328 285.934 221.608Z" fill="#E3E3E8"/>
</g>
<g clip-path="url(#clip1_1178_13636)">
<path d="M341.481 210.019C339.968 210.68 338.706 211.732 337.853 213.043C337.001 214.354 336.596 215.865 336.691 217.385C336.785 218.904 337.375 220.364 338.384 221.58C339.394 222.796 340.779 223.713 342.364 224.216C343.949 224.718 345.662 224.783 347.288 224.403C348.913 224.022 350.378 223.213 351.496 222.078C352.614 220.943 353.336 219.533 353.571 218.026C353.805 216.518 353.541 214.982 352.812 213.611C351.835 211.772 350.092 210.361 347.967 209.687C345.842 209.014 343.509 209.133 341.481 210.019ZM347.008 220.418C346.252 220.748 345.404 220.868 344.573 220.762C343.742 220.655 342.964 220.328 342.338 219.821C341.712 219.314 341.266 218.65 341.056 217.913C340.846 217.177 340.882 216.4 341.159 215.682C341.436 214.963 341.942 214.335 342.613 213.878C343.283 213.42 344.089 213.153 344.927 213.11C345.765 213.067 346.598 213.25 347.321 213.637C348.044 214.023 348.625 214.596 348.989 215.281C349.478 216.201 349.543 217.258 349.172 218.222C348.8 219.185 348.022 219.975 347.008 220.418Z" fill="#E3E3E8"/>
<path d="M369.403 211.276L366.037 211.06C365.423 209.205 364.491 207.451 363.273 205.86L365.184 203.338C365.634 202.741 365.95 202.069 366.114 201.361C366.277 200.653 366.285 199.923 366.137 199.212C365.989 198.501 365.688 197.824 365.251 197.218C364.814 196.613 364.249 196.092 363.589 195.685L360.328 193.671C358.987 192.878 357.355 192.594 355.785 192.881C354.215 193.167 352.831 194.001 351.932 195.203L350.031 197.742C347.939 197.3 345.784 197.147 343.641 197.288L342.121 194.428C341.412 193.129 340.167 192.136 338.655 191.665C337.143 191.194 335.487 191.282 334.047 191.911L330.491 193.465C329.041 194.098 327.928 195.228 327.397 196.606C326.865 197.983 326.96 199.495 327.658 200.81L329.086 203.497C327.629 204.929 326.419 206.551 325.497 208.311L322.122 208.077C320.522 207.955 318.935 208.412 317.706 209.349C316.478 210.286 315.709 211.626 315.568 213.075L315.319 216.729C315.196 218.177 315.705 219.61 316.736 220.722C317.767 221.833 319.238 222.533 320.833 222.67L324.198 222.887C324.812 224.741 325.745 226.496 326.962 228.087L325.052 230.608C324.166 231.822 323.846 233.304 324.163 234.731C324.48 236.157 325.407 237.412 326.742 238.22L330.003 240.234C331.336 241.048 332.971 241.353 334.551 241.083C336.131 240.812 337.53 239.988 338.445 238.788L340.346 236.249C342.438 236.691 344.593 236.845 346.736 236.704L348.191 239.442C348.893 240.752 350.139 241.756 351.656 242.234C353.173 242.712 354.837 242.625 356.284 241.993L359.84 240.44C361.29 239.807 362.403 238.677 362.934 237.299C363.465 235.922 363.371 234.409 362.673 233.095L361.245 230.408C362.701 228.976 363.912 227.353 364.834 225.594L368.209 225.828C369.005 225.883 369.805 225.794 370.563 225.568C371.321 225.341 372.022 224.982 372.626 224.509C373.231 224.037 373.727 223.461 374.085 222.815C374.444 222.169 374.659 221.465 374.717 220.743L375.012 217.176C375.121 215.721 374.594 214.286 373.544 213.182C372.494 212.078 371.006 211.393 369.403 211.276ZM370.764 216.896L370.565 220.421C370.53 220.858 370.306 221.263 369.943 221.55C369.579 221.837 369.104 221.982 368.623 221.953L362.195 221.515L361.614 222.815C360.668 224.997 359.204 226.964 357.326 228.575L356.191 229.541L358.954 234.741C359.164 235.136 359.192 235.591 359.033 236.005C358.873 236.419 358.538 236.759 358.102 236.949L354.451 238.544C354.015 238.735 353.513 238.761 353.056 238.616C352.599 238.471 352.225 238.167 352.014 237.772L349.251 232.573L347.71 232.776C345.15 233.104 342.541 232.916 340.069 232.227L338.585 231.829L334.958 236.66C334.681 237.016 334.261 237.261 333.789 237.341C333.554 237.383 333.313 237.382 333.078 237.337C332.844 237.293 332.623 237.206 332.426 237.082L329.165 235.068C328.955 234.949 328.774 234.792 328.633 234.607C328.492 234.422 328.394 234.213 328.345 233.992C328.296 233.772 328.297 233.545 328.349 233.325C328.4 233.104 328.5 232.896 328.643 232.712L332.261 227.907L331.292 226.793C330.498 225.877 329.814 224.887 329.251 223.84C328.696 222.789 328.275 221.683 327.995 220.545L327.618 219.172L321.274 218.847C321.034 218.83 320.8 218.771 320.586 218.672C320.371 218.573 320.18 218.437 320.024 218.271C319.868 218.105 319.75 217.912 319.676 217.705C319.602 217.497 319.574 217.278 319.594 217.061L319.889 213.494C319.924 213.058 320.148 212.652 320.512 212.365C320.875 212.078 321.35 211.933 321.831 211.962L328.259 212.4L328.84 211.1C329.786 208.918 331.25 206.951 333.128 205.34L334.264 204.374L331.5 199.175C331.389 198.978 331.323 198.764 331.305 198.544C331.287 198.324 331.318 198.103 331.396 197.894C331.473 197.685 331.596 197.492 331.757 197.327C331.918 197.161 332.114 197.027 332.334 196.931L335.889 195.378C336.325 195.187 336.827 195.162 337.284 195.307C337.741 195.451 338.116 195.755 338.326 196.15L341.089 201.35L342.63 201.146C345.191 200.818 347.799 201.006 350.271 201.695L351.755 202.093L355.382 197.263C355.659 196.906 356.079 196.662 356.551 196.581C356.786 196.539 357.028 196.54 357.262 196.585C357.496 196.629 357.718 196.716 357.914 196.84L361.175 198.854C361.382 198.974 361.56 199.131 361.698 199.315C361.836 199.499 361.932 199.706 361.98 199.924C362.028 200.143 362.027 200.367 361.977 200.585C361.926 200.803 361.828 201.01 361.688 201.192L358.138 205.904L359.107 207.018C359.9 207.934 360.584 208.924 361.147 209.971C361.703 211.022 362.124 212.128 362.404 213.266L362.781 214.639L369.057 215.058C369.305 215.071 369.547 215.13 369.769 215.23C369.99 215.331 370.187 215.472 370.347 215.644C370.507 215.816 370.626 216.016 370.698 216.231C370.77 216.446 370.792 216.673 370.764 216.896Z" fill="#E3E3E8"/>
</g>
<defs>
<clipPath id="clip0_1178_13636">
<rect width="85.2009" height="79.1799" fill="white" transform="matrix(0.945662 -0.325151 0.385921 0.922532 198 196.463)"/>
</clipPath>
<clipPath id="clip1_1178_13636">
<rect width="66.7575" height="62.8082" fill="white" transform="matrix(0.916377 -0.400317 0.469323 0.883027 299.839 202.584)"/>
</clipPath>
</defs>
</svg>
