<svg width="23" height="16" viewBox="0 0 23 16" fill="none" xmlns="http://www.w3.org/2000/svg">
<path fill-rule="evenodd" clip-rule="evenodd" d="M22.1421 0.492899C22.4482 0.808239 22.6202 1.23587 22.6202 1.68176C22.6202 2.12765 22.4482 2.55529 22.1421 2.87063L9.90229 15.4745C9.74054 15.6411 9.5485 15.7733 9.33715 15.8634C9.12579 15.9536 8.89925 16 8.67048 16C8.4417 16 8.21516 15.9536 8.00381 15.8634C7.79245 15.7733 7.60041 15.6411 7.43866 15.4745L1.35742 9.21348C1.20145 9.05836 1.07705 8.87281 0.991464 8.66766C0.905881 8.4625 0.860833 8.24184 0.858948 8.01857C0.857064 7.79529 0.898382 7.57386 0.98049 7.36721C1.0626 7.16055 1.18385 6.9728 1.33718 6.81491C1.4905 6.65702 1.67283 6.53216 1.87352 6.44761C2.07421 6.36306 2.28924 6.32052 2.50606 6.32246C2.72289 6.3244 2.93717 6.37078 3.1364 6.45891C3.33563 6.54704 3.51582 6.67515 3.66646 6.83575L8.66993 11.9881L19.8319 0.492899C19.9836 0.336638 20.1637 0.212678 20.3618 0.128104C20.56 0.0435305 20.7725 0 20.987 0C21.2015 0 21.414 0.0435305 21.6122 0.128104C21.8104 0.212678 21.9904 0.336638 22.1421 0.492899Z" fill="#03A042"/>
</svg>
