<svg width="22" height="27" viewBox="0 0 22 27" fill="none" xmlns="http://www.w3.org/2000/svg">
<path d="M4.33333 16H7.6375L13.0542 9.33333C13.2167 9.13333 13.3387 8.90533 13.4203 8.64933C13.5019 8.39333 13.5424 8.14356 13.5417 7.9C13.5409 7.65644 13.4958 7.41778 13.4063 7.184C13.3167 6.95022 13.1993 6.73333 13.0542 6.53333L12.0792 5.26667C11.9167 5.06667 11.7361 4.91689 11.5375 4.81733C11.3389 4.71778 11.1313 4.66756 10.9146 4.66667C10.716 4.66667 10.513 4.71689 10.3058 4.81733C10.0985 4.91778 9.91322 5.06756 9.75 5.26667L4.33333 11.9333V16ZM5.95833 14V12.7333L8.69375 9.36667L9.23542 9.96667L9.72292 10.6333L6.9875 14H5.95833ZM9.23542 9.96667L9.72292 10.6333L8.69375 9.36667L9.23542 9.96667ZM9.93959 16H17.3333V13.3333H12.1063L9.93959 16ZM0 26.6667V2.66667C0 1.93333 0.212334 1.30578 0.637 0.784C1.06167 0.262222 1.57156 0.000888889 2.16667 0H19.5C20.0958 0 20.6061 0.261333 21.0308 0.784C21.4554 1.30667 21.6674 1.93422 21.6667 2.66667V18.6667C21.6667 19.4 21.4547 20.028 21.0308 20.5507C20.6068 21.0733 20.0966 21.3342 19.5 21.3333H4.33333L0 26.6667ZM3.4125 18.6667H19.5V2.66667H2.16667V20.1667L3.4125 18.6667Z" fill="#ABB5C7"/>
</svg>
