<svg width="18" height="18" viewBox="0 0 18 18" fill="none" xmlns="http://www.w3.org/2000/svg">
<path d="M16.6 17.9449L10.3 11.7818C9.8 12.1731 9.225 12.4829 8.575 12.7111C7.925 12.9394 7.23333 13.0535 6.5 13.0535C4.68333 13.0535 3.146 12.4379 1.888 11.2065C0.63 9.97522 0.000667196 8.47129 5.29101e-07 6.69474C-0.000666138 4.91819 0.628667 3.41425 1.888 2.18292C3.14733 0.9516 4.68467 0.335938 6.5 0.335938C8.31533 0.335938 9.853 0.9516 11.113 2.18292C12.373 3.41425 13.002 4.91819 13 6.69474C13 7.41214 12.8833 8.08878 12.65 8.72466C12.4167 9.36054 12.1 9.92305 11.7 10.4122L18 16.5753L16.6 17.9449ZM6.5 11.097C7.75 11.097 8.81267 10.6691 9.688 9.81348C10.5633 8.95782 11.0007 7.91823 11 6.69474C10.9993 5.47124 10.562 4.43198 9.688 3.57697C8.814 2.72195 7.75133 2.2938 6.5 2.29249C5.24867 2.29119 4.18633 2.71935 3.313 3.57697C2.43967 4.43459 2.002 5.47385 2 6.69474C1.998 7.91563 2.43567 8.95521 3.313 9.81348C4.19033 10.6718 5.25267 11.0996 6.5 11.097Z" fill="#938C8C"/>
</svg>
