<svg width="17" height="18" viewBox="0 0 17 18" fill="none" xmlns="http://www.w3.org/2000/svg">
<path d="M16.3929 2.8125H13.2668L11.9767 0.817383C11.6154 0.310324 11.0576 0 10.4201 0H6.57991C5.94241 0 5.35045 0.310324 5.02411 0.817383L3.73317 2.8125H0.607143C0.270368 2.8125 0 3.06316 0 3.375V3.9375C0 4.25039 0.270368 4.5 0.607143 4.5H1.21429V15.75C1.21429 16.9928 2.30145 18 3.64286 18H13.3571C14.6985 18 15.7857 16.9928 15.7857 15.75V4.5H16.3929C16.7306 4.5 17 4.25039 17 3.9375V3.375C17 3.06316 16.7306 2.8125 16.3929 2.8125ZM6.52299 1.78875C6.56094 1.72723 6.63683 1.6875 6.71652 1.6875H10.2835C10.3641 1.6875 10.44 1.72705 10.478 1.78857L11.1411 2.8125H5.85893L6.52299 1.78875ZM13.3571 16.3125H3.64286C3.30752 16.3125 3.03571 16.0607 3.03571 15.75V4.5H13.9643V15.75C13.9643 16.0594 13.6911 16.3125 13.3571 16.3125ZM8.5 14.625C8.8356 14.625 9.10714 14.3734 9.10714 14.0625V6.75C9.10714 6.43908 8.8356 6.1875 8.5 6.1875C8.1644 6.1875 7.89286 6.44063 7.89286 6.75V14.0625C7.89286 14.3719 8.16607 14.625 8.5 14.625ZM5.46429 14.625C5.79821 14.625 6.07143 14.3719 6.07143 14.0625V6.75C6.07143 6.43908 5.79988 6.1875 5.46429 6.1875C5.12869 6.1875 4.85714 6.44063 4.85714 6.75V14.0625C4.85714 14.3719 5.13036 14.625 5.46429 14.625ZM11.5357 14.625C11.8713 14.625 12.1429 14.3734 12.1429 14.0625V6.75C12.1429 6.43908 11.8713 6.1875 11.5357 6.1875C11.2001 6.1875 10.9286 6.44063 10.9286 6.75V14.0625C10.9286 14.3719 11.2018 14.625 11.5357 14.625Z" fill="white"/>
</svg>
