<svg width="18" height="21" viewBox="0 0 18 21" fill="none" xmlns="http://www.w3.org/2000/svg">
<path d="M17.0424 9.0625H10.5116C9.91779 9.0625 9.34826 8.83532 8.92835 8.43095C8.50843 8.02657 8.27252 7.47812 8.27252 6.90625V0.617188C8.27252 0.569531 8.25286 0.523827 8.21787 0.490129C8.18288 0.456431 8.13542 0.4375 8.08593 0.4375H3.79428C3.00247 0.4375 2.2431 0.740401 1.68321 1.27957C1.12332 1.81874 0.808777 2.55 0.808777 3.3125V17.6875C0.808777 18.45 1.12332 19.1813 1.68321 19.7204C2.2431 20.2596 3.00247 20.5625 3.79428 20.5625H14.2435C15.0353 20.5625 15.7947 20.2596 16.3546 19.7204C16.9145 19.1813 17.229 18.45 17.229 17.6875V9.24219C17.229 9.19453 17.2094 9.14883 17.1744 9.11513C17.1394 9.08143 17.0919 9.0625 17.0424 9.0625Z" fill="#656565"/>
<path d="M16.6328 7.47267L9.92433 1.01245C9.91128 0.999966 9.8947 0.99147 9.87665 0.988034C9.8586 0.984598 9.8399 0.986377 9.8229 0.993146C9.8059 0.999915 9.79136 1.01137 9.78111 1.02608C9.77085 1.04078 9.76534 1.05808 9.76526 1.07579V6.9071C9.76526 7.09773 9.84389 7.28054 9.98387 7.41534C10.1238 7.55013 10.3137 7.62585 10.5116 7.62585H16.5671C16.5855 7.62578 16.6034 7.62047 16.6187 7.61059C16.634 7.60071 16.6459 7.58671 16.6529 7.57034C16.6599 7.55397 16.6618 7.53596 16.6582 7.51859C16.6546 7.50121 16.6458 7.48523 16.6328 7.47267Z" fill="#656565"/>
</svg>
