<svg width="415" height="249" viewBox="0 0 415 249" fill="none" xmlns="http://www.w3.org/2000/svg">
<g filter="url(#filter0_dd_2238_13961)">
<path d="M28 22C28 16.4772 32.3776 12 37.9005 12C76.8945 12 218.497 12 234 12C252 12 260.5 53.5 276 53.5C288.416 53.5 352.165 53.5 377.041 53.5C382.564 53.5 387 57.9772 387 63.5V194.5C387 200.023 382.523 204.5 377 204.5H38C32.4772 204.5 28 200.023 28 194.5V22Z" fill="url(#paint0_linear_2238_13961)"/>
</g>
<path d="M42.8949 43.1406L45.7543 42.8906C45.8897 44.0365 46.2022 44.9792 46.6918 45.7188C47.1918 46.4479 47.9626 47.0417 49.0043 47.5C50.0459 47.9479 51.2178 48.1719 52.5199 48.1719C53.6761 48.1719 54.697 48 55.5824 47.6562C56.4678 47.3125 57.1241 46.8438 57.5511 46.25C57.9886 45.6458 58.2074 44.9896 58.2074 44.2812C58.2074 43.5625 57.9991 42.9375 57.5824 42.4062C57.1657 41.8646 56.4782 41.4115 55.5199 41.0469C54.9053 40.8073 53.5459 40.4375 51.4418 39.9375C49.3376 39.4271 47.8636 38.9479 47.0199 38.5C45.9261 37.9271 45.1084 37.2188 44.5668 36.375C44.0355 35.5208 43.7699 34.5677 43.7699 33.5156C43.7699 32.3594 44.098 31.2812 44.7543 30.2812C45.4105 29.2708 46.3689 28.5052 47.6293 27.9844C48.8897 27.4635 50.2907 27.2031 51.8324 27.2031C53.5303 27.2031 55.0251 27.4792 56.3168 28.0312C57.6189 28.5729 58.6189 29.375 59.3168 30.4375C60.0147 31.5 60.3897 32.7031 60.4418 34.0469L57.5355 34.2656C57.3793 32.8177 56.848 31.724 55.9418 30.9844C55.0459 30.2448 53.7178 29.875 51.9574 29.875C50.1241 29.875 48.7855 30.2135 47.9418 30.8906C47.1084 31.5573 46.6918 32.3646 46.6918 33.3125C46.6918 34.1354 46.9886 34.8125 47.5824 35.3438C48.1657 35.875 49.6866 36.4219 52.1449 36.9844C54.6136 37.5365 56.3064 38.0208 57.223 38.4375C58.5564 39.0521 59.5407 39.8333 60.1761 40.7812C60.8116 41.7188 61.1293 42.8021 61.1293 44.0312C61.1293 45.25 60.7803 46.401 60.0824 47.4844C59.3845 48.5573 58.3793 49.3958 57.0668 50C55.7647 50.5938 54.2959 50.8906 52.6605 50.8906C50.5876 50.8906 48.848 50.5885 47.4418 49.9844C46.0459 49.3802 44.947 48.474 44.1449 47.2656C43.3532 46.0469 42.9366 44.6719 42.8949 43.1406ZM64.7855 56.8906L64.473 54.25C65.0876 54.4167 65.6241 54.5 66.0824 54.5C66.7074 54.5 67.2074 54.3958 67.5824 54.1875C67.9574 53.9792 68.2647 53.6875 68.5043 53.3125C68.6814 53.0312 68.9678 52.3333 69.3636 51.2188C69.4157 51.0625 69.4991 50.8333 69.6136 50.5312L63.3168 33.9062H66.348L69.8011 43.5156C70.2491 44.7344 70.6501 46.0156 71.0043 47.3594C71.3272 46.0677 71.7126 44.8073 72.1605 43.5781L75.7074 33.9062H78.5199L72.2074 50.7812C71.5303 52.6042 71.0043 53.8594 70.6293 54.5469C70.1293 55.474 69.5564 56.151 68.9105 56.5781C68.2647 57.0156 67.4939 57.2344 66.598 57.2344C66.0564 57.2344 65.4522 57.1198 64.7855 56.8906ZM79.7855 45.5469L82.5668 45.1094C82.723 46.224 83.1553 47.0781 83.8636 47.6719C84.5824 48.2656 85.5824 48.5625 86.8636 48.5625C88.1553 48.5625 89.1136 48.3021 89.7386 47.7812C90.3636 47.25 90.6761 46.6302 90.6761 45.9219C90.6761 45.2865 90.4001 44.7865 89.848 44.4219C89.4626 44.1719 88.5043 43.8542 86.973 43.4688C84.9105 42.9479 83.4782 42.5 82.6761 42.125C81.8845 41.7396 81.2803 41.2135 80.8636 40.5469C80.4574 39.8698 80.2543 39.125 80.2543 38.3125C80.2543 37.5729 80.4209 36.8906 80.7543 36.2656C81.098 35.6302 81.5616 35.1042 82.1449 34.6875C82.5824 34.3646 83.1761 34.0938 83.9261 33.875C84.6866 33.6458 85.4991 33.5312 86.3636 33.5312C87.6657 33.5312 88.8064 33.7188 89.7855 34.0938C90.7751 34.4688 91.5043 34.9792 91.973 35.625C92.4418 36.2604 92.7647 37.1146 92.9418 38.1875L90.1918 38.5625C90.0668 37.7083 89.7022 37.0417 89.098 36.5625C88.5043 36.0833 87.6605 35.8438 86.5668 35.8438C85.2751 35.8438 84.3532 36.0573 83.8011 36.4844C83.2491 36.9115 82.973 37.4115 82.973 37.9844C82.973 38.349 83.0876 38.6771 83.3168 38.9688C83.5459 39.2708 83.9053 39.5208 84.3949 39.7188C84.6761 39.8229 85.5043 40.0625 86.8793 40.4375C88.8689 40.9688 90.2543 41.4062 91.0355 41.75C91.8272 42.0833 92.447 42.5729 92.8949 43.2188C93.3428 43.8646 93.5668 44.6667 93.5668 45.625C93.5668 46.5625 93.2907 47.4479 92.7386 48.2812C92.197 49.1042 91.4105 49.7448 90.3793 50.2031C89.348 50.651 88.1814 50.875 86.8793 50.875C84.723 50.875 83.0772 50.4271 81.9418 49.5312C80.8168 48.6354 80.098 47.3073 79.7855 45.5469ZM103.051 47.9844L103.457 50.4688C102.666 50.6354 101.957 50.7188 101.332 50.7188C100.312 50.7188 99.5199 50.5573 98.9574 50.2344C98.3949 49.9115 97.9991 49.4896 97.7699 48.9688C97.5407 48.4375 97.4261 47.3281 97.4261 45.6406V36.0938H95.3636V33.9062H97.4261V29.7969L100.223 28.1094V33.9062H103.051V36.0938H100.223V45.7969C100.223 46.599 100.27 47.1146 100.364 47.3438C100.468 47.5729 100.629 47.7552 100.848 47.8906C101.077 48.026 101.4 48.0938 101.817 48.0938C102.129 48.0938 102.541 48.0573 103.051 47.9844ZM117.176 45.1562L120.082 45.5156C119.624 47.2135 118.775 48.5312 117.536 49.4688C116.296 50.4062 114.713 50.875 112.786 50.875C110.358 50.875 108.431 50.1302 107.004 48.6406C105.588 47.1406 104.879 45.0417 104.879 42.3438C104.879 39.5521 105.598 37.3854 107.036 35.8438C108.473 34.3021 110.338 33.5312 112.629 33.5312C114.848 33.5312 116.661 34.2865 118.067 35.7969C119.473 37.3073 120.176 39.4323 120.176 42.1719C120.176 42.3385 120.171 42.5885 120.161 42.9219H107.786C107.89 44.7448 108.405 46.1406 109.332 47.1094C110.259 48.0781 111.416 48.5625 112.801 48.5625C113.832 48.5625 114.713 48.2917 115.442 47.75C116.171 47.2083 116.749 46.3438 117.176 45.1562ZM107.942 40.6094H117.207C117.082 39.2135 116.728 38.1667 116.145 37.4688C115.249 36.3854 114.088 35.8438 112.661 35.8438C111.369 35.8438 110.28 36.276 109.395 37.1406C108.52 38.0052 108.036 39.1615 107.942 40.6094ZM123.629 50.5V33.9062H126.145V36.2344C126.666 35.4219 127.358 34.7708 128.223 34.2812C129.088 33.7812 130.072 33.5312 131.176 33.5312C132.405 33.5312 133.411 33.7865 134.192 34.2969C134.983 34.8073 135.541 35.5208 135.864 36.4375C137.176 34.5 138.884 33.5312 140.989 33.5312C142.634 33.5312 143.9 33.9896 144.786 34.9062C145.671 35.8125 146.114 37.2135 146.114 39.1094V50.5H143.317V40.0469C143.317 38.9219 143.223 38.1146 143.036 37.625C142.858 37.125 142.53 36.724 142.051 36.4219C141.572 36.1198 141.009 35.9688 140.364 35.9688C139.197 35.9688 138.228 36.3594 137.457 37.1406C136.687 37.9115 136.301 39.151 136.301 40.8594V50.5H133.489V39.7188C133.489 38.4688 133.259 37.5312 132.801 36.9062C132.343 36.2812 131.593 35.9688 130.551 35.9688C129.759 35.9688 129.025 36.1771 128.348 36.5938C127.681 37.0104 127.197 37.6198 126.895 38.4219C126.593 39.224 126.442 40.3802 126.442 41.8906V50.5H123.629ZM149.161 45.5469L151.942 45.1094C152.098 46.224 152.53 47.0781 153.239 47.6719C153.957 48.2656 154.957 48.5625 156.239 48.5625C157.53 48.5625 158.489 48.3021 159.114 47.7812C159.739 47.25 160.051 46.6302 160.051 45.9219C160.051 45.2865 159.775 44.7865 159.223 44.4219C158.838 44.1719 157.879 43.8542 156.348 43.4688C154.286 42.9479 152.853 42.5 152.051 42.125C151.259 41.7396 150.655 41.2135 150.239 40.5469C149.832 39.8698 149.629 39.125 149.629 38.3125C149.629 37.5729 149.796 36.8906 150.129 36.2656C150.473 35.6302 150.937 35.1042 151.52 34.6875C151.957 34.3646 152.551 34.0938 153.301 33.875C154.062 33.6458 154.874 33.5312 155.739 33.5312C157.041 33.5312 158.181 33.7188 159.161 34.0938C160.15 34.4688 160.879 34.9792 161.348 35.625C161.817 36.2604 162.14 37.1146 162.317 38.1875L159.567 38.5625C159.442 37.7083 159.077 37.0417 158.473 36.5625C157.879 36.0833 157.036 35.8438 155.942 35.8438C154.65 35.8438 153.728 36.0573 153.176 36.4844C152.624 36.9115 152.348 37.4115 152.348 37.9844C152.348 38.349 152.463 38.6771 152.692 38.9688C152.921 39.2708 153.28 39.5208 153.77 39.7188C154.051 39.8229 154.879 40.0625 156.254 40.4375C158.244 40.9688 159.629 41.4062 160.411 41.75C161.202 42.0833 161.822 42.5729 162.27 43.2188C162.718 43.8646 162.942 44.6667 162.942 45.625C162.942 46.5625 162.666 47.4479 162.114 48.2812C161.572 49.1042 160.786 49.7448 159.754 50.2031C158.723 50.651 157.556 50.875 156.254 50.875C154.098 50.875 152.452 50.4271 151.317 49.5312C150.192 48.6354 149.473 47.3073 149.161 45.5469Z" fill="white"/>
<path d="M358.194 138.574H251.654C245.779 138.574 241 134.872 241 130.319V68.4107C241 63.8584 245.779 60.1562 251.654 60.1562H358.194C364.069 60.1562 368.848 63.8584 368.848 68.4107V130.319C368.848 134.872 364.069 138.574 358.194 138.574ZM251.654 64.2835C248.717 64.2835 246.327 66.1346 246.327 68.4107V130.319C246.327 132.596 248.717 134.447 251.654 134.447H358.194C361.131 134.447 363.521 132.596 363.521 130.319V68.4107C363.521 66.1346 361.131 64.2835 358.194 64.2835H251.654Z" fill="#BB051C"/>
<path d="M342.213 150.954H267.635C266.165 150.954 264.972 150.03 264.972 148.891C264.972 147.752 266.165 146.827 267.635 146.827H342.213C343.683 146.827 344.876 147.752 344.876 148.891C344.876 150.03 343.683 150.954 342.213 150.954Z" fill="#BB051C"/>
<path d="M323.622 150.957C323.603 150.957 323.587 150.957 323.568 150.957H286.28C285.425 150.957 284.62 150.639 284.12 150.099C283.619 149.56 283.483 148.869 283.752 148.239L289.079 135.858C289.444 135.016 290.459 134.448 291.607 134.448H318.241C319.389 134.448 320.404 135.016 320.769 135.86L325.936 147.872C326.157 148.173 326.285 148.522 326.285 148.894C326.285 150.033 325.092 150.957 323.622 150.957ZM289.974 146.83H319.874L316.324 138.575H293.527L289.974 146.83Z" fill="#BB051C"/>
<path d="M358.194 122.066H251.654V68.4121H358.194V122.066ZM256.981 117.939H352.867V72.5394H256.981V117.939Z" fill="#BB051C"/>
<path d="M304.924 132.381C307.866 132.381 310.251 130.534 310.251 128.254C310.251 125.975 307.866 124.127 304.924 124.127C301.982 124.127 299.597 125.975 299.597 128.254C299.597 130.534 301.982 132.381 304.924 132.381Z" fill="#BB051C"/>
<path d="M307.075 84.8789C306.357 84.8789 305.654 85.072 305.057 85.4339C304.46 85.7957 303.994 86.31 303.719 86.9117C303.444 87.5134 303.372 88.1755 303.513 88.8142C303.653 89.453 303.999 90.0398 304.507 90.5003C305.015 90.9608 305.662 91.2744 306.366 91.4015C307.071 91.5285 307.801 91.4633 308.465 91.2141C309.129 90.9649 309.696 90.5428 310.095 90.0013C310.494 89.4598 310.707 88.8231 310.707 88.1718C310.707 87.2985 310.324 86.4609 309.643 85.8434C308.962 85.2258 308.038 84.8789 307.075 84.8789ZM307.075 89.8183C306.716 89.8183 306.365 89.7217 306.066 89.5408C305.767 89.3599 305.534 89.1028 305.397 88.8019C305.26 88.5011 305.224 88.17 305.294 87.8506C305.364 87.5312 305.537 87.2379 305.791 87.0076C306.045 86.7773 306.368 86.6205 306.721 86.557C307.073 86.4935 307.438 86.5261 307.77 86.6507C308.102 86.7753 308.385 86.9863 308.585 87.2571C308.784 87.5279 308.891 87.8462 308.891 88.1718C308.891 88.6085 308.7 89.0273 308.359 89.3361C308.018 89.6448 307.557 89.8183 307.075 89.8183Z" fill="#BB051C"/>
<path d="M317.581 90.0651L316.328 89.4148C316.471 88.5967 316.471 87.7632 316.328 86.9451L317.581 86.2947C317.877 86.1404 318.136 85.9346 318.345 85.6892C318.553 85.4438 318.705 85.1636 318.794 84.8646C318.883 84.5656 318.905 84.2537 318.861 83.9468C318.816 83.6399 318.705 83.3439 318.534 83.0759L317.69 81.7505C317.335 81.2189 316.764 80.8347 316.1 80.6808C315.436 80.5268 314.732 80.6153 314.139 80.9273L312.886 81.5859C312.17 81.0631 311.371 80.6413 310.516 80.3346V78.9762C310.509 78.3561 310.232 77.7635 309.746 77.3273C309.26 76.8911 308.603 76.6465 307.919 76.6465H306.23C305.542 76.6465 304.881 76.8945 304.394 77.3361C303.907 77.7776 303.633 78.3765 303.633 79.0009V80.2769C302.779 80.5836 301.98 81.0055 301.263 81.5282L300.01 80.8697C299.419 80.5534 298.713 80.4624 298.048 80.6167C297.382 80.771 296.811 81.1579 296.46 81.6929L295.615 83.0595C295.271 83.5968 295.174 84.2352 295.344 84.8372C295.513 85.4392 295.937 85.9567 296.523 86.2783L297.777 86.9286C297.633 87.7467 297.633 88.5802 297.777 89.3983L296.523 90.0487C295.933 90.3673 295.507 90.8849 295.336 91.4881C295.166 92.0914 295.267 92.7312 295.615 93.2675L296.46 94.5929C296.807 95.1315 297.375 95.5243 298.039 95.6861C298.704 95.8479 299.412 95.7657 300.01 95.4573L301.263 94.7987C301.98 95.3215 302.779 95.7433 303.633 96.05V97.3507C303.636 97.9737 303.91 98.5705 304.397 99.0103C304.884 99.45 305.543 99.697 306.23 99.6969H307.919C308.608 99.6969 309.269 99.4489 309.756 99.0073C310.243 98.5658 310.516 97.9669 310.516 97.3425V96.0665C311.371 95.7598 312.17 95.3379 312.886 94.8152L314.139 95.4738C314.435 95.6287 314.762 95.7292 315.1 95.7696C315.439 95.81 315.783 95.7894 316.112 95.7091C316.442 95.6288 316.751 95.4904 317.022 95.3017C317.293 95.113 317.52 94.8777 317.69 94.6094L318.534 93.284C318.875 92.7416 318.965 92.0996 318.787 91.4971C318.608 90.8945 318.175 90.38 317.581 90.0651ZM316.954 92.4607L316.155 93.7861C316.053 93.9484 315.883 94.0672 315.684 94.1166C315.485 94.166 315.272 94.1419 315.093 94.0496L312.705 92.7983L312.214 93.2017C311.403 93.8836 310.436 94.3951 309.381 94.6999L308.746 94.881V97.3507C308.746 97.5385 308.663 97.7186 308.517 97.8514C308.371 97.9841 308.172 98.0587 307.965 98.0587H306.23C306.023 98.0587 305.825 97.9841 305.678 97.8514C305.532 97.7186 305.449 97.5385 305.449 97.3507V94.881L304.814 94.6999C303.76 94.3951 302.792 93.8836 301.981 93.2017L301.49 92.7983L299.102 94.0496C298.923 94.1404 298.711 94.164 298.512 94.1154C298.413 94.0921 298.32 94.0509 298.239 93.9943C298.158 93.9377 298.09 93.8669 298.04 93.7861L297.195 92.4607C297.139 92.3793 297.101 92.2883 297.085 92.1932C297.068 92.0981 297.073 92.001 297.1 91.9078C297.126 91.8146 297.173 91.7272 297.238 91.651C297.303 91.5748 297.384 91.5114 297.477 91.4646L299.856 90.2216L299.711 89.6288C299.593 89.1421 299.532 88.6454 299.529 88.147C299.531 87.6481 299.594 87.151 299.72 86.6652L299.856 86.0725L297.477 84.8788C297.388 84.832 297.31 84.7697 297.247 84.6954C297.185 84.6212 297.139 84.5365 297.113 84.4462C297.087 84.3559 297.081 84.2618 297.095 84.1693C297.109 84.0769 297.143 83.9878 297.195 83.9074L298.04 82.582C298.143 82.4197 298.312 82.3009 298.511 82.2515C298.71 82.2022 298.923 82.2263 299.102 82.3185L301.49 83.5699L301.981 83.1665C302.792 82.4845 303.76 81.973 304.814 81.6682L305.449 81.4871V79.0174C305.447 78.923 305.465 78.8292 305.504 78.7414C305.542 78.6536 305.599 78.5736 305.672 78.5061C305.744 78.4386 305.831 78.385 305.927 78.3484C306.023 78.3118 306.126 78.2929 306.23 78.2929H307.919C308.126 78.2929 308.325 78.3675 308.472 78.5003C308.618 78.6331 308.7 78.8132 308.7 79.0009V81.4706L309.336 81.6517C310.39 81.9565 311.357 82.4681 312.169 83.15L312.659 83.5534L315.047 82.3021C315.227 82.2113 315.439 82.1876 315.638 82.2362C315.737 82.2596 315.83 82.3008 315.911 82.3573C315.992 82.4139 316.06 82.4847 316.11 82.5655L316.954 83.8909C317.009 83.972 317.046 84.0624 317.062 84.1566C317.077 84.2508 317.072 84.3469 317.045 84.4392C317.019 84.5314 316.973 84.6179 316.909 84.6934C316.845 84.769 316.764 84.832 316.673 84.8788L314.339 86.0972L314.484 86.6899C314.603 87.1766 314.664 87.6733 314.666 88.1717C314.665 88.6706 314.601 89.1677 314.475 89.6535L314.339 90.2463L316.673 91.4646C316.766 91.5114 316.847 91.5748 316.912 91.651C316.977 91.7272 317.024 91.8146 317.05 91.9078C317.076 92.001 317.081 92.0981 317.065 92.1932C317.049 92.2883 317.011 92.3793 316.954 92.4607Z" fill="#BB051C"/>
<g clip-path="url(#clip0_2238_13961)">
<path d="M295.29 101.045C294.856 101.195 294.48 101.458 294.21 101.801C293.94 102.144 293.789 102.552 293.774 102.973C293.76 103.394 293.884 103.81 294.131 104.167C294.377 104.524 294.735 104.808 295.159 104.98C295.583 105.153 296.054 105.209 296.512 105.139C296.971 105.069 297.396 104.878 297.735 104.589C298.073 104.3 298.309 103.927 298.414 103.516C298.518 103.105 298.486 102.676 298.321 102.282C298.1 101.754 297.657 101.326 297.088 101.094C296.52 100.863 295.873 100.845 295.29 101.045ZM296.54 104.034C296.323 104.108 296.086 104.123 295.86 104.076C295.633 104.028 295.427 103.921 295.268 103.768C295.109 103.614 295.003 103.421 294.965 103.214C294.926 103.006 294.957 102.792 295.052 102.6C295.147 102.408 295.304 102.246 295.501 102.134C295.698 102.022 295.927 101.966 296.159 101.973C296.391 101.979 296.616 102.048 296.806 102.17C296.995 102.292 297.14 102.463 297.222 102.66C297.333 102.924 297.323 103.217 297.195 103.475C297.067 103.732 296.832 103.933 296.54 104.034Z" fill="#BB051C"/>
<path d="M302.959 101.998L302.036 101.865C301.916 101.34 301.705 100.836 301.411 100.371L302.005 99.7165C302.145 99.5615 302.25 99.3831 302.314 99.1913C302.377 98.9995 302.399 98.7982 302.377 98.5989C302.355 98.3996 302.289 98.2062 302.185 98.0298C302.08 97.8533 301.938 97.6974 301.767 97.5707L300.921 96.9445C300.571 96.6967 300.129 96.583 299.688 96.628C299.247 96.673 298.844 96.873 298.564 97.185L297.973 97.8442C297.407 97.6769 296.817 97.5878 296.222 97.5801L295.878 96.7583C295.717 96.3846 295.4 96.0837 294.995 95.9209C294.591 95.7582 294.131 95.7467 293.718 95.889L292.696 96.2404C292.279 96.3837 291.942 96.6711 291.759 97.0396C291.576 97.408 291.562 97.8273 291.72 98.2051L292.043 98.9771C291.604 99.3405 291.227 99.7619 290.926 100.227L290.001 100.089C289.563 100.021 289.113 100.113 288.75 100.345C288.386 100.576 288.139 100.929 288.062 101.326L287.897 102.328C287.824 102.725 287.927 103.132 288.182 103.461C288.437 103.789 288.824 104.014 289.261 104.087L290.183 104.22C290.304 104.745 290.515 105.249 290.808 105.714L290.215 106.368C289.939 106.684 289.811 107.086 289.861 107.486C289.911 107.886 290.133 108.252 290.48 108.504L291.327 109.131C291.673 109.384 292.116 109.504 292.559 109.463C293.002 109.423 293.41 109.226 293.693 108.915L294.285 108.256C294.85 108.423 295.441 108.512 296.035 108.52L296.365 109.307C296.524 109.683 296.841 109.987 297.247 110.152C297.653 110.317 298.114 110.329 298.53 110.186L299.551 109.835C299.968 109.691 300.305 109.404 300.488 109.036C300.671 108.667 300.685 108.248 300.527 107.87L300.204 107.098C300.643 106.735 301.02 106.313 301.321 105.848L302.246 105.986C302.464 106.018 302.687 106.011 302.902 105.965C303.117 105.919 303.32 105.835 303.499 105.718C303.678 105.601 303.83 105.453 303.946 105.282C304.062 105.112 304.14 104.922 304.175 104.724L304.351 103.747C304.419 103.348 304.312 102.941 304.051 102.613C303.791 102.286 303.398 102.065 302.959 101.998ZM303.186 103.577L303.038 104.545C303.017 104.665 302.945 104.772 302.837 104.843C302.729 104.915 302.594 104.944 302.462 104.926L300.701 104.666L300.506 105.012C300.188 105.593 299.732 106.104 299.171 106.507L298.833 106.749L299.458 108.243C299.505 108.357 299.501 108.483 299.446 108.594C299.391 108.705 299.29 108.791 299.164 108.834L298.115 109.195C297.99 109.238 297.851 109.234 297.728 109.184C297.606 109.135 297.511 109.043 297.463 108.929L296.838 107.435L296.408 107.458C295.693 107.492 294.978 107.384 294.315 107.14L293.916 106.998L292.788 108.252C292.702 108.345 292.58 108.403 292.447 108.415C292.381 108.421 292.315 108.416 292.252 108.398C292.188 108.381 292.129 108.352 292.078 108.314L291.232 107.688C291.177 107.65 291.131 107.603 291.097 107.549C291.063 107.495 291.042 107.435 291.034 107.373C291.026 107.311 291.033 107.248 291.053 107.189C291.073 107.129 291.106 107.074 291.15 107.026L292.275 105.779L292.037 105.451C291.842 105.181 291.68 104.893 291.552 104.592C291.427 104.29 291.34 103.976 291.292 103.656L291.225 103.269L289.483 103.042C289.418 103.032 289.355 103.011 289.298 102.979C289.242 102.947 289.193 102.905 289.154 102.856C289.115 102.807 289.088 102.751 289.073 102.692C289.058 102.633 289.056 102.572 289.067 102.513L289.243 101.535C289.264 101.416 289.336 101.309 289.444 101.237C289.552 101.166 289.687 101.136 289.819 101.155L291.58 101.415L291.775 101.069C292.093 100.488 292.549 99.977 293.11 99.5732L293.448 99.3314L292.823 97.8372C292.798 97.7807 292.785 97.7201 292.786 97.659C292.787 97.5979 292.801 97.5377 292.828 97.4817C292.855 97.4257 292.894 97.3752 292.943 97.3331C292.992 97.291 293.049 97.2581 293.112 97.2365L294.134 96.8852C294.26 96.8421 294.399 96.8459 294.521 96.8957C294.643 96.9456 294.738 97.0374 294.786 97.151L295.411 98.6452L295.841 98.6226C296.556 98.5877 297.271 98.696 297.935 98.9397L298.333 99.0818L299.462 97.8279C299.547 97.7356 299.669 97.6772 299.802 97.6653C299.868 97.6588 299.934 97.6644 299.998 97.6818C300.061 97.6991 300.12 97.7279 300.171 97.7663L301.017 98.3925C301.071 98.4301 301.116 98.4772 301.149 98.5309C301.183 98.5847 301.204 98.644 301.211 98.7052C301.219 98.7665 301.212 98.8285 301.193 98.8875C301.173 98.9466 301.141 99.0014 301.097 99.0487L299.994 100.271L300.231 100.6C300.426 100.87 300.589 101.157 300.716 101.458C300.842 101.761 300.929 102.075 300.976 102.395L301.044 102.782L302.764 103.033C302.832 103.042 302.897 103.064 302.956 103.096C303.014 103.129 303.065 103.172 303.104 103.223C303.144 103.274 303.171 103.331 303.186 103.392C303.2 103.453 303.2 103.516 303.186 103.577Z" fill="#BB051C"/>
</g>
<g clip-path="url(#clip1_2238_13961)">
<path d="M315.306 101.048C314.976 101.193 314.701 101.422 314.515 101.708C314.329 101.994 314.24 102.324 314.261 102.656C314.282 102.987 314.41 103.306 314.631 103.571C314.851 103.836 315.153 104.036 315.499 104.146C315.845 104.256 316.219 104.27 316.573 104.187C316.928 104.104 317.247 103.927 317.491 103.68C317.736 103.432 317.893 103.124 317.944 102.795C317.995 102.467 317.938 102.131 317.779 101.832C317.565 101.431 317.185 101.123 316.722 100.976C316.258 100.829 315.749 100.855 315.306 101.048ZM316.512 103.317C316.347 103.39 316.162 103.416 315.981 103.392C315.8 103.369 315.63 103.298 315.493 103.187C315.357 103.077 315.259 102.932 315.214 102.771C315.168 102.61 315.176 102.441 315.236 102.284C315.297 102.127 315.407 101.99 315.553 101.89C315.7 101.791 315.875 101.732 316.058 101.723C316.241 101.714 316.423 101.754 316.581 101.838C316.738 101.922 316.865 102.047 316.944 102.197C317.051 102.397 317.065 102.628 316.984 102.838C316.903 103.048 316.733 103.221 316.512 103.317Z" fill="#BB051C"/>
<path d="M321.399 101.323L320.664 101.275C320.53 100.871 320.327 100.488 320.061 100.141L320.478 99.5906C320.576 99.4603 320.645 99.3137 320.681 99.1592C320.717 99.0047 320.718 98.8454 320.686 98.6902C320.654 98.5351 320.588 98.3873 320.493 98.2553C320.397 98.1232 320.274 98.0095 320.13 97.9207L319.419 97.4813C319.126 97.3083 318.77 97.2464 318.427 97.3089C318.085 97.3714 317.783 97.5534 317.587 97.8156L317.172 98.3696C316.715 98.2732 316.245 98.2397 315.778 98.2704L315.446 97.6464C315.291 97.363 315.02 97.1463 314.69 97.0435C314.36 96.9407 313.999 96.9601 313.684 97.0974L312.908 97.4363C312.592 97.5745 312.349 97.821 312.233 98.1216C312.117 98.4221 312.138 98.7521 312.29 99.039L312.602 99.6251C312.284 99.9376 312.02 100.292 311.819 100.676L311.082 100.624C310.733 100.598 310.387 100.698 310.119 100.902C309.851 101.107 309.683 101.399 309.652 101.715L309.598 102.512C309.571 102.828 309.682 103.141 309.907 103.383C310.132 103.626 310.453 103.779 310.801 103.809L311.535 103.856C311.669 104.261 311.873 104.643 312.138 104.99L311.722 105.541C311.528 105.805 311.459 106.129 311.528 106.44C311.597 106.751 311.799 107.025 312.09 107.202L312.802 107.641C313.093 107.819 313.449 107.885 313.794 107.826C314.139 107.767 314.444 107.587 314.644 107.325L315.059 106.771C315.515 106.868 315.985 106.901 316.453 106.871L316.77 107.468C316.924 107.754 317.195 107.973 317.526 108.077C317.857 108.182 318.22 108.163 318.536 108.025L319.312 107.686C319.628 107.548 319.871 107.301 319.987 107.001C320.103 106.7 320.083 106.37 319.93 106.083L319.619 105.497C319.936 105.185 320.2 104.831 320.402 104.447L321.138 104.498C321.312 104.51 321.486 104.49 321.652 104.441C321.817 104.391 321.97 104.313 322.102 104.21C322.234 104.107 322.342 103.981 322.42 103.84C322.499 103.699 322.545 103.546 322.558 103.388L322.622 102.61C322.646 102.292 322.531 101.979 322.302 101.738C322.073 101.497 321.748 101.348 321.399 101.323ZM321.696 102.549L321.652 103.318C321.645 103.413 321.596 103.502 321.516 103.564C321.437 103.627 321.333 103.659 321.228 103.652L319.826 103.557L319.699 103.84C319.493 104.316 319.173 104.746 318.764 105.097L318.516 105.308L319.119 106.442C319.165 106.529 319.171 106.628 319.136 106.718C319.101 106.809 319.028 106.883 318.933 106.924L318.136 107.272C318.041 107.314 317.932 107.319 317.832 107.288C317.732 107.256 317.65 107.19 317.605 107.104L317.002 105.969L316.665 106.014C316.107 106.085 315.538 106.044 314.998 105.894L314.674 105.807L313.883 106.861C313.823 106.939 313.731 106.992 313.628 107.01C313.577 107.019 313.524 107.019 313.473 107.009C313.422 106.999 313.373 106.98 313.331 106.953L312.619 106.514C312.573 106.488 312.534 106.454 312.503 106.413C312.472 106.373 312.451 106.327 312.44 106.279C312.429 106.231 312.43 106.181 312.441 106.133C312.452 106.085 312.474 106.04 312.505 106L313.295 104.951L313.083 104.708C312.91 104.508 312.761 104.292 312.638 104.064C312.517 103.835 312.425 103.593 312.364 103.345L312.282 103.045L310.897 102.974C310.845 102.971 310.794 102.958 310.747 102.936C310.7 102.915 310.659 102.885 310.625 102.849C310.591 102.813 310.565 102.771 310.549 102.725C310.533 102.68 310.526 102.632 310.531 102.585L310.595 101.806C310.603 101.711 310.652 101.623 310.731 101.56C310.81 101.497 310.914 101.466 311.019 101.472L312.421 101.568L312.548 101.284C312.754 100.808 313.074 100.379 313.484 100.027L313.732 99.8166L313.129 98.6821C313.104 98.6393 313.09 98.5925 313.086 98.5445C313.082 98.4965 313.089 98.4483 313.106 98.4027C313.123 98.357 313.15 98.315 313.185 98.2789C313.22 98.2428 313.263 98.2135 313.31 98.1926L314.086 97.8537C314.181 97.8121 314.291 97.8065 314.391 97.8381C314.49 97.8697 314.572 97.936 314.618 98.0222L315.221 99.1567L315.557 99.1123C316.116 99.0408 316.685 99.0817 317.224 99.2321L317.548 99.319L318.339 98.2649C318.4 98.1871 318.491 98.1338 318.595 98.1162C318.646 98.1071 318.698 98.1074 318.75 98.1171C318.801 98.1268 318.849 98.1457 318.892 98.1727L319.603 98.6121C319.648 98.6383 319.687 98.6725 319.717 98.7127C319.748 98.7528 319.769 98.798 319.779 98.8457C319.789 98.8933 319.789 98.9424 319.778 98.9899C319.767 99.0375 319.746 99.0825 319.715 99.1224L318.941 100.15L319.152 100.394C319.325 100.593 319.474 100.809 319.597 101.038C319.718 101.267 319.81 101.508 319.872 101.757L319.954 102.056L321.323 102.148C321.377 102.151 321.43 102.163 321.478 102.185C321.527 102.207 321.57 102.238 321.605 102.276C321.639 102.313 321.666 102.357 321.681 102.404C321.697 102.451 321.702 102.5 321.696 102.549Z" fill="#BB051C"/>
</g>
<defs>
<filter id="filter0_dd_2238_13961" x="0" y="0" width="415" height="248.5" filterUnits="userSpaceOnUse" color-interpolation-filters="sRGB">
<feFlood flood-opacity="0" result="BackgroundImageFix"/>
<feColorMatrix in="SourceAlpha" type="matrix" values="0 0 0 0 0 0 0 0 0 0 0 0 0 0 0 0 0 0 127 0" result="hardAlpha"/>
<feMorphology radius="4" operator="erode" in="SourceAlpha" result="effect1_dropShadow_2238_13961"/>
<feOffset dy="4"/>
<feGaussianBlur stdDeviation="2"/>
<feComposite in2="hardAlpha" operator="out"/>
<feColorMatrix type="matrix" values="0 0 0 0 0.0470588 0 0 0 0 0.0470588 0 0 0 0 0.0509804 0 0 0 0.05 0"/>
<feBlend mode="normal" in2="BackgroundImageFix" result="effect1_dropShadow_2238_13961"/>
<feColorMatrix in="SourceAlpha" type="matrix" values="0 0 0 0 0 0 0 0 0 0 0 0 0 0 0 0 0 0 127 0" result="hardAlpha"/>
<feMorphology radius="4" operator="erode" in="SourceAlpha" result="effect2_dropShadow_2238_13961"/>
<feOffset dy="16"/>
<feGaussianBlur stdDeviation="16"/>
<feComposite in2="hardAlpha" operator="out"/>
<feColorMatrix type="matrix" values="0 0 0 0 0.0470588 0 0 0 0 0.0470588 0 0 0 0 0.0509804 0 0 0 0.1 0"/>
<feBlend mode="normal" in2="effect1_dropShadow_2238_13961" result="effect2_dropShadow_2238_13961"/>
<feBlend mode="normal" in="SourceGraphic" in2="effect2_dropShadow_2238_13961" result="shape"/>
</filter>
<linearGradient id="paint0_linear_2238_13961" x1="207.5" y1="12" x2="28.0005" y2="204.5" gradientUnits="userSpaceOnUse">
<stop stop-color="#E33349"/>
<stop offset="1" stop-color="#860111"/>
</linearGradient>
<clipPath id="clip0_2238_13961">
<rect width="18.5901" height="17.2764" fill="white" transform="matrix(0.945662 -0.325151 0.385921 0.922532 284 98.0908)"/>
</clipPath>
<clipPath id="clip1_2238_13961">
<rect width="14.5659" height="13.7042" fill="white" transform="matrix(0.916377 -0.400317 0.469323 0.883027 306.22 99.4258)"/>
</clipPath>
</defs>
</svg>
