<svg width="20" height="20" viewBox="0 0 20 20" fill="none" xmlns="http://www.w3.org/2000/svg">
<path d="M8.97917 2.88281H2.77315C2.30288 2.88281 1.85187 3.06963 1.51934 3.40216C1.18681 3.7347 1 4.18571 1 4.65598V17.0682C1 17.5384 1.18681 17.9895 1.51934 18.322C1.85187 18.6545 2.30288 18.8413 2.77315 18.8413H15.1852C15.6555 18.8413 16.1065 18.6545 16.439 18.322C16.7715 17.9895 16.9583 17.5384 16.9583 17.0682V10.8621" stroke="black" stroke-width="2" stroke-linecap="round" stroke-linejoin="round"/>
<path d="M15.6274 1.55085C15.9801 1.19815 16.4585 1 16.9573 1C17.4561 1 17.9344 1.19815 18.2871 1.55085C18.6398 1.90356 18.838 2.38193 18.838 2.88073C18.838 3.37953 18.6398 3.8579 18.2871 4.21061L9.86466 12.6332L6.31836 13.5198L7.20493 9.97341L15.6274 1.55085Z" stroke="black" stroke-width="2" stroke-linecap="round" stroke-linejoin="round"/>
</svg>
