<svg width="18" height="19" viewBox="0 0 18 19" fill="none" xmlns="http://www.w3.org/2000/svg">
<path d="M16.925 7.88903H10.3942C9.80043 7.88903 9.2309 7.68124 8.81098 7.31137C8.39106 6.9415 8.15515 6.43985 8.15515 5.91677V0.164355C8.15515 0.120765 8.1355 0.078961 8.1005 0.0481384C8.06551 0.0173159 8.01805 0 7.96856 0H3.67691C2.8851 0 2.12573 0.277055 1.56584 0.770215C1.00595 1.26337 0.691406 1.93224 0.691406 2.62968V15.7781C0.691406 16.4755 1.00595 17.1444 1.56584 17.6375C2.12573 18.1307 2.8851 18.4077 3.67691 18.4077H14.1261C14.9179 18.4077 15.6773 18.1307 16.2372 17.6375C16.7971 17.1444 17.1116 16.4755 17.1116 15.7781V8.05339C17.1116 8.0098 17.0919 7.96799 17.0569 7.93717C17.022 7.90635 16.9745 7.88903 16.925 7.88903Z" fill="#B33B06"/>
<path d="M16.516 6.43677L9.80751 0.527804C9.79447 0.51638 9.77788 0.508609 9.75983 0.505467C9.74179 0.502324 9.72309 0.503951 9.70609 0.510142C9.68909 0.516334 9.67454 0.526813 9.66429 0.540264C9.65403 0.553715 9.64852 0.569536 9.64844 0.585739V5.91946C9.64844 6.09382 9.72708 6.26104 9.86705 6.38433C10.007 6.50762 10.1968 6.57688 10.3948 6.57688H16.4502C16.4686 6.57681 16.4866 6.57196 16.5018 6.56292C16.5171 6.55389 16.529 6.54108 16.536 6.52611C16.5431 6.51113 16.5449 6.49466 16.5413 6.47877C16.5378 6.46287 16.5289 6.44826 16.516 6.43677Z" fill="#B33B06"/>
</svg>
