<svg width="18" height="17" viewBox="0 0 18 17" fill="none" xmlns="http://www.w3.org/2000/svg">
<path fill-rule="evenodd" clip-rule="evenodd" d="M2.49747 0.207031C2.06198 0.207031 1.64433 0.392063 1.3364 0.721423C1.02846 1.05078 0.855469 1.49749 0.855469 1.96327V14.257C0.855469 14.7228 1.02846 15.1695 1.3364 15.4988C1.64433 15.8282 2.06198 16.0132 2.49747 16.0132H15.6335C16.069 16.0132 16.4866 15.8282 16.7945 15.4988C17.1025 15.1695 17.2755 14.7228 17.2755 14.257V1.96327C17.2755 1.49749 17.1025 1.05078 16.7945 0.721423C16.4866 0.392063 16.069 0.207031 15.6335 0.207031H2.49747ZM6.29459 5.15086C6.31281 4.98298 6.36746 4.82197 6.45419 4.68069C6.54091 4.53941 6.65731 4.42177 6.79409 4.33715C6.93087 4.25252 7.08425 4.20327 7.24199 4.1933C7.39973 4.18334 7.55747 4.21295 7.70261 4.27976C8.11639 4.46943 8.98994 4.8962 10.0966 5.57938C10.8744 6.05483 11.6255 6.5785 12.3462 7.14771C12.4729 7.24854 12.5758 7.37967 12.6467 7.53061C12.7176 7.68155 12.7545 7.84813 12.7545 8.01705C12.7545 8.18596 12.7176 8.35254 12.6467 8.50348C12.5758 8.65443 12.4729 8.78555 12.3462 8.88639C11.6255 9.455 10.8744 9.97808 10.0966 10.453C9.32302 10.9363 8.52365 11.3708 7.70261 11.7543C7.55748 11.8213 7.39971 11.8511 7.2419 11.8412C7.0841 11.8313 6.93064 11.7821 6.79381 11.6975C6.65698 11.6128 6.54057 11.4951 6.45388 11.3537C6.3672 11.2123 6.31265 11.0512 6.29459 10.8832C6.19609 9.93151 6.14784 8.97459 6.1501 8.01705C6.1501 6.65508 6.24205 5.62943 6.29459 5.15086Z" fill="#B33B06"/>
</svg>
