<svg width="25" height="25" viewBox="0 0 25 25" fill="none" xmlns="http://www.w3.org/2000/svg">
<path d="M22.9167 20.7583H2.08333C0.934375 20.7583 0 19.7783 0 18.5733V2.18509C0 0.980012 0.934375 0 2.08333 0H22.9167C24.0656 0 25 0.980012 25 2.18509V18.5733C25 19.7783 24.0656 20.7583 22.9167 20.7583ZM2.08333 1.09254C1.50885 1.09254 1.04167 1.58255 1.04167 2.18509V18.5733C1.04167 19.1758 1.50885 19.6658 2.08333 19.6658H22.9167C23.4911 19.6658 23.9583 19.1758 23.9583 18.5733V2.18509C23.9583 1.58255 23.4911 1.09254 22.9167 1.09254H2.08333Z" fill="#ABB5C7"/>
<path d="M19.7931 24.0379H5.2098C4.9223 24.0379 4.68896 23.7931 4.68896 23.4916C4.68896 23.19 4.9223 22.9453 5.2098 22.9453H19.7931C20.0806 22.9453 20.314 23.19 20.314 23.4916C20.314 23.7931 20.0806 24.0379 19.7931 24.0379Z" fill="#ABB5C7"/>
<path d="M16.1556 24.0362C16.152 24.0362 16.1489 24.0362 16.1452 24.0362H8.85354C8.68636 24.0362 8.52906 23.9521 8.43115 23.8089C8.33323 23.6664 8.30667 23.4834 8.35927 23.3168L9.40094 20.0391C9.47229 19.8162 9.67073 19.666 9.89521 19.666H15.1035C15.328 19.666 15.5265 19.8162 15.5978 20.0397L16.6082 23.2195C16.6515 23.2993 16.6765 23.3916 16.6765 23.4899C16.6765 23.7915 16.4431 24.0362 16.1556 24.0362ZM9.57594 22.9436H15.4228L14.7285 20.7586H10.2707L9.57594 22.9436Z" fill="#ABB5C7"/>
<path d="M22.9176 16.3886H2.08423V2.18555H22.9176V16.3886ZM3.1259 15.2961H21.8759V3.27809H3.1259V15.2961Z" fill="#ABB5C7"/>
<path d="M12.5009 19.1187C13.0762 19.1187 13.5426 18.6295 13.5426 18.0261C13.5426 17.4227 13.0762 16.9336 12.5009 16.9336C11.9256 16.9336 11.4592 17.4227 11.4592 18.0261C11.4592 18.6295 11.9256 19.1187 12.5009 19.1187Z" fill="#ABB5C7"/>
<path d="M12.8969 6.58008C12.7133 6.58008 12.5339 6.63052 12.3812 6.72504C12.2286 6.81955 12.1097 6.95389 12.0394 7.11106C11.9692 7.26823 11.9508 7.44118 11.9866 7.60803C12.0224 7.77488 12.1108 7.92814 12.2406 8.04843C12.3704 8.16873 12.5358 8.25065 12.7158 8.28384C12.8959 8.31703 13.0825 8.29999 13.2521 8.23489C13.4217 8.16979 13.5666 8.05954 13.6686 7.91809C13.7706 7.77664 13.825 7.61034 13.825 7.44022C13.825 7.2121 13.7273 6.99332 13.5532 6.83201C13.3791 6.6707 13.1431 6.58008 12.8969 6.58008ZM12.8969 7.87029C12.8051 7.87029 12.7154 7.84507 12.6391 7.79781C12.5628 7.75056 12.5033 7.68339 12.4681 7.6048C12.433 7.52622 12.4238 7.43974 12.4417 7.35632C12.4596 7.27289 12.5038 7.19626 12.5687 7.13612C12.6336 7.07597 12.7163 7.03501 12.8064 7.01841C12.8964 7.00182 12.9897 7.01034 13.0745 7.04289C13.1593 7.07544 13.2318 7.13056 13.2828 7.20129C13.3338 7.27201 13.361 7.35516 13.361 7.44022C13.361 7.55428 13.3121 7.66367 13.225 7.74433C13.138 7.82498 13.02 7.87029 12.8969 7.87029Z" fill="#ABB5C7"/>
<path d="M15.5817 7.93477L15.2615 7.76489C15.2981 7.5512 15.2981 7.33348 15.2615 7.11979L15.5817 6.94991C15.6573 6.90958 15.7236 6.85583 15.7768 6.79173C15.83 6.72763 15.869 6.65443 15.8917 6.57634C15.9143 6.49824 15.9201 6.41678 15.9087 6.33661C15.8973 6.25643 15.869 6.17913 15.8253 6.10912L15.6095 5.76291C15.5189 5.62404 15.373 5.5237 15.2033 5.48349C15.0337 5.44327 14.8537 5.46639 14.7023 5.54787L14.382 5.7199C14.1991 5.58335 13.9949 5.47316 13.7764 5.39305V5.03824C13.7746 4.87625 13.7039 4.72147 13.5796 4.60753C13.4554 4.49359 13.2876 4.42968 13.1128 4.42969H12.6812C12.5052 4.42969 12.3364 4.49448 12.212 4.60982C12.0875 4.72515 12.0176 4.88158 12.0176 5.04469V5.378C11.7991 5.45811 11.595 5.5683 11.412 5.70485L11.0918 5.53282C10.9406 5.4502 10.7603 5.42644 10.5902 5.46674C10.4202 5.50704 10.2743 5.60812 10.1845 5.74786L9.96871 6.10482C9.88079 6.24519 9.85584 6.41193 9.89923 6.56918C9.94263 6.72642 10.0509 6.86159 10.2007 6.94561L10.521 7.11548C10.4843 7.32918 10.4843 7.5469 10.521 7.76059L10.2007 7.93047C10.05 8.0137 9.94089 8.14889 9.8974 8.30647C9.85392 8.46404 9.87956 8.63116 9.96871 8.77126L10.1845 9.11747C10.2733 9.25816 10.4183 9.36076 10.5881 9.40303C10.7579 9.44529 10.9389 9.42382 11.0918 9.34326L11.412 9.17123C11.595 9.30778 11.7991 9.41797 12.0176 9.49808V9.83784C12.0182 10.0006 12.0884 10.1565 12.2128 10.2713C12.3372 10.3862 12.5056 10.4507 12.6812 10.4507H13.1128C13.2888 10.4507 13.4576 10.3859 13.5821 10.2706C13.7065 10.1552 13.7764 9.9988 13.7764 9.83569V9.50238C13.9949 9.42227 14.1991 9.31208 14.382 9.17553L14.7023 9.34756C14.7778 9.38802 14.8612 9.41427 14.9477 9.42482C15.0342 9.43537 15.1221 9.43001 15.2064 9.40903C15.2907 9.38806 15.3697 9.35189 15.4388 9.3026C15.508 9.25331 15.566 9.19186 15.6095 9.12177L15.8253 8.77556C15.9122 8.6339 15.9354 8.46619 15.8898 8.3088C15.8442 8.15141 15.7335 8.01702 15.5817 7.93477ZM15.4216 8.56053L15.2174 8.90673C15.1911 8.94912 15.1478 8.98015 15.097 8.99305C15.0461 9.00594 14.9918 8.99965 14.9459 8.97554L14.3356 8.64869L14.2103 8.75406C14.0029 8.93218 13.7558 9.0658 13.4864 9.14542L13.324 9.19273V9.83784C13.324 9.88689 13.3029 9.93392 13.2655 9.9686C13.2281 10.0033 13.1773 10.0228 13.1244 10.0228H12.6812C12.6283 10.0228 12.5775 10.0033 12.5401 9.9686C12.5027 9.93392 12.4817 9.88689 12.4817 9.83784V9.19273L12.3192 9.14542C12.0498 9.0658 11.8027 8.93218 11.5953 8.75406L11.47 8.64869L10.8597 8.97554C10.8138 8.99927 10.7597 9.00544 10.7089 8.99275C10.6836 8.98665 10.6599 8.97589 10.6391 8.96111C10.6184 8.94633 10.6011 8.92784 10.5882 8.90673L10.3725 8.56053C10.358 8.53925 10.3484 8.51547 10.3442 8.49064C10.34 8.46581 10.3413 8.44044 10.348 8.41609C10.3547 8.39173 10.3668 8.36891 10.3833 8.34901C10.3999 8.3291 10.4207 8.31254 10.4444 8.30033L11.0523 7.97563L11.0152 7.8208C10.985 7.69366 10.9694 7.56392 10.9688 7.43374C10.9692 7.30342 10.9855 7.17357 11.0175 7.04667L11.0523 6.89185L10.4444 6.58005C10.4216 6.56782 10.4017 6.55154 10.3857 6.53214C10.3698 6.51275 10.3581 6.49062 10.3515 6.46704C10.3448 6.44346 10.3432 6.41888 10.3468 6.39473C10.3504 6.37058 10.3591 6.34732 10.3725 6.3263L10.5882 5.9801C10.6145 5.93771 10.6578 5.90667 10.7087 5.89378C10.7595 5.88089 10.8139 5.88718 10.8597 5.91128L11.47 6.23814L11.5953 6.13277C11.8027 5.95465 12.0498 5.82103 12.3192 5.74141L12.4817 5.6941V5.04899C12.481 5.02435 12.4858 4.99983 12.4955 4.9769C12.5053 4.95396 12.5199 4.93307 12.5384 4.91544C12.557 4.89781 12.5792 4.8838 12.6038 4.87424C12.6283 4.86467 12.6546 4.85975 12.6812 4.85976H13.1128C13.1657 4.85976 13.2165 4.87924 13.2539 4.91392C13.2913 4.94861 13.3124 4.99564 13.3124 5.04469V5.6898L13.4748 5.73711C13.7442 5.81673 13.9913 5.95035 14.1987 6.12847L14.324 6.23384L14.9343 5.90698C14.9802 5.88326 15.0343 5.87709 15.0851 5.88978C15.1104 5.89588 15.1342 5.90664 15.1549 5.92142C15.1756 5.9362 15.1929 5.95469 15.2058 5.9758L15.4216 6.322C15.4356 6.34319 15.445 6.3668 15.449 6.39141C15.453 6.41601 15.4516 6.44111 15.4448 6.46521C15.4381 6.4893 15.4262 6.51189 15.4099 6.53162C15.3935 6.55136 15.373 6.56783 15.3496 6.58005L14.7533 6.8983L14.7904 7.05312C14.8206 7.18026 14.8362 7.31001 14.8368 7.44019C14.8365 7.5705 14.8201 7.70036 14.7881 7.82725L14.7533 7.98208L15.3496 8.30033C15.3733 8.31254 15.3941 8.3291 15.4107 8.34901C15.4273 8.36891 15.4393 8.39173 15.446 8.41609C15.4528 8.44044 15.4541 8.46581 15.4499 8.49064C15.4456 8.51547 15.436 8.53925 15.4216 8.56053Z" fill="#ABB5C7"/>
<path d="M9.88502 10.8007C9.77396 10.8397 9.67789 10.9084 9.60894 10.998C9.54 11.0877 9.50129 11.1942 9.4977 11.3043C9.49411 11.4143 9.52581 11.5228 9.58879 11.6162C9.65177 11.7095 9.7432 11.7834 9.85151 11.8286C9.95983 11.8738 10.0802 11.8882 10.1973 11.87C10.3145 11.8518 10.4231 11.8018 10.5096 11.7263C10.5961 11.6509 10.6565 11.5534 10.6832 11.4461C10.7099 11.3388 10.7016 11.2266 10.6595 11.1237C10.603 10.9857 10.4897 10.8741 10.3445 10.8135C10.1992 10.753 10.034 10.7483 9.88502 10.8007ZM10.2045 11.5813C10.1489 11.6008 10.0884 11.6046 10.0305 11.5922C9.97267 11.5799 9.92005 11.5519 9.87934 11.5118C9.83864 11.4717 9.81167 11.4214 9.80184 11.3671C9.79202 11.3128 9.79979 11.2571 9.82416 11.2069C9.84854 11.1567 9.88842 11.1143 9.93878 11.0851C9.98913 11.056 10.0477 11.0413 10.1071 11.0429C10.1664 11.0446 10.2239 11.0625 10.2723 11.0945C10.3206 11.1264 10.3577 11.1709 10.3788 11.2224C10.407 11.2914 10.4045 11.368 10.3718 11.4353C10.3391 11.5026 10.2789 11.5551 10.2045 11.5813Z" fill="#ABB5C7"/>
<path d="M11.8448 11.0501L11.609 11.0154C11.5782 10.8783 11.5243 10.7466 11.4493 10.6251L11.6009 10.4542C11.6367 10.4137 11.6635 10.3671 11.6798 10.317C11.6961 10.2669 11.7016 10.2144 11.696 10.1623C11.6903 10.1102 11.6737 10.0597 11.6469 10.0136C11.6202 9.96754 11.5839 9.9268 11.5402 9.89372L11.3239 9.73015C11.2347 9.66541 11.1216 9.63572 11.009 9.64747C10.8963 9.65922 10.7932 9.71147 10.7217 9.79298L10.5706 9.96515C10.4261 9.92144 10.2753 9.89819 10.1233 9.89617L10.0354 9.68151C9.99421 9.5839 9.9131 9.5053 9.80971 9.46278C9.70633 9.42027 9.58901 9.41727 9.48326 9.45445L9.22214 9.54622C9.11566 9.58365 9.02958 9.65874 8.98284 9.75498C8.9361 9.85123 8.93253 9.96074 8.97292 10.0594L9.05544 10.2611C8.94311 10.356 8.84687 10.4661 8.76996 10.5876L8.53364 10.5516C8.42172 10.5338 8.30674 10.5577 8.21384 10.6183C8.12095 10.6788 8.05772 10.771 8.03798 10.8746L7.9958 11.1365C7.97736 11.2401 8.00356 11.3463 8.06874 11.4322C8.13393 11.5181 8.2329 11.5769 8.34436 11.5958L8.58015 11.6305C8.6109 11.7676 8.66481 11.8993 8.73988 12.0208L8.58821 12.1917C8.51759 12.2741 8.48508 12.3791 8.49778 12.4837C8.51049 12.5882 8.56738 12.6839 8.656 12.7497L8.87228 12.9133C8.96081 12.9795 9.07394 13.0108 9.18716 13.0002C9.30038 12.9897 9.40455 12.9382 9.47708 12.857L9.62822 12.6848C9.77274 12.7285 9.92355 12.7517 10.0756 12.7538L10.1597 12.9593C10.2003 13.0576 10.2814 13.137 10.3851 13.1801C10.4888 13.2231 10.6067 13.2263 10.7129 13.189L10.974 13.0972C11.0805 13.0598 11.1666 12.9847 11.2133 12.8884C11.2601 12.7922 11.2636 12.6827 11.2233 12.584L11.1407 12.3824C11.2531 12.2874 11.3493 12.1774 11.4262 12.0558L11.6625 12.0918C11.7183 12.1002 11.7752 12.0984 11.8302 12.0864C11.8851 12.0744 11.937 12.0524 11.9828 12.0218C12.0286 11.9912 12.0674 11.9525 12.097 11.908C12.1267 11.8635 12.1466 11.814 12.1555 11.7623L12.2004 11.5069C12.2179 11.4028 12.1904 11.2964 12.1238 11.2108C12.0573 11.1253 11.957 11.0675 11.8448 11.0501ZM11.9029 11.4627L11.865 11.7156C11.8596 11.7468 11.8411 11.7748 11.8135 11.7934C11.786 11.812 11.7515 11.8198 11.7178 11.8149L11.2677 11.747L11.218 11.8373C11.1366 11.9892 11.0201 12.1226 10.8769 12.2281L10.7903 12.2912L10.95 12.6815C10.9622 12.7112 10.9611 12.7441 10.9471 12.7731C10.933 12.802 10.9071 12.8246 10.8751 12.8358L10.607 12.9301C10.5749 12.9413 10.5394 12.9403 10.5082 12.9273C10.477 12.9143 10.4526 12.8903 10.4404 12.8606L10.2807 12.4703L10.1707 12.4763C9.98803 12.4854 9.80541 12.4571 9.63583 12.3934L9.53394 12.3563L9.24566 12.6838C9.22374 12.708 9.19253 12.7232 9.15867 12.7263C9.14184 12.728 9.12482 12.7265 9.10862 12.722C9.09242 12.7175 9.07737 12.71 9.06437 12.6999L8.84809 12.5364C8.83408 12.5266 8.82237 12.5142 8.81368 12.5001C8.80499 12.486 8.79949 12.4703 8.79754 12.4542C8.79558 12.438 8.7972 12.4216 8.8023 12.4061C8.8074 12.3905 8.81587 12.3761 8.82719 12.3636L9.1146 12.0379L9.05381 11.9521C9.00406 11.8816 8.96252 11.8065 8.92989 11.7278C8.89785 11.6489 8.87559 11.5669 8.86354 11.4833L8.84626 11.3822L8.40126 11.3229C8.38446 11.3203 8.36837 11.3147 8.35392 11.3063C8.33947 11.298 8.32694 11.2871 8.31706 11.2742C8.30717 11.2614 8.30013 11.2469 8.29633 11.2315C8.29253 11.2161 8.29205 11.2002 8.29491 11.1846L8.33975 10.9293C8.34514 10.8981 8.36365 10.8701 8.39123 10.8515C8.41882 10.8328 8.45324 10.8251 8.48696 10.8299L8.9371 10.8979L8.98682 10.8075C9.06819 10.6556 9.18465 10.5223 9.32792 10.4168L9.41447 10.3536L9.25475 9.96334C9.24827 9.94856 9.24505 9.93273 9.24527 9.91678C9.24549 9.90083 9.24915 9.88508 9.25603 9.87046C9.26292 9.85584 9.27289 9.84265 9.28535 9.83165C9.29782 9.82065 9.31253 9.81207 9.32863 9.80642L9.58974 9.71464C9.62176 9.70339 9.65729 9.70439 9.68852 9.71741C9.71975 9.73044 9.74412 9.75442 9.75626 9.7841L9.91598 10.1744L10.026 10.1685C10.2087 10.1594 10.3913 10.1876 10.5609 10.2513L10.6628 10.2884L10.951 9.9609C10.973 9.93678 11.0042 9.92154 11.038 9.91842C11.0549 9.91673 11.0719 9.9182 11.0881 9.92273C11.1043 9.92726 11.1193 9.93477 11.1323 9.9448L11.3486 10.1084C11.3624 10.1182 11.3739 10.1305 11.3824 10.1445C11.3909 10.1586 11.3962 10.1741 11.3981 10.1901C11.4 10.2061 11.3984 10.2223 11.3934 10.2377C11.3884 10.2531 11.3801 10.2674 11.369 10.2798L11.087 10.5991L11.1478 10.6849C11.1975 10.7554 11.2391 10.8306 11.2717 10.9092C11.3037 10.9881 11.326 11.0702 11.338 11.1538L11.3553 11.2548L11.7949 11.3206C11.8123 11.3229 11.8289 11.3285 11.8439 11.337C11.8589 11.3456 11.8718 11.3568 11.8819 11.3701C11.892 11.3834 11.8991 11.3985 11.9027 11.4144C11.9063 11.4303 11.9063 11.4468 11.9029 11.4627Z" fill="#ABB5C7"/>
<path d="M14.9996 10.8038C14.9153 10.8414 14.8449 10.9014 14.7974 10.9761C14.7498 11.0508 14.7272 11.137 14.7325 11.2236C14.7378 11.3102 14.7707 11.3934 14.827 11.4627C14.8833 11.532 14.9605 11.5843 15.0488 11.6129C15.1372 11.6415 15.2327 11.6452 15.3234 11.6235C15.414 11.6019 15.4956 11.5557 15.558 11.4911C15.6204 11.4264 15.6606 11.346 15.6737 11.2601C15.6867 11.1742 15.672 11.0866 15.6314 11.0085C15.5769 10.9037 15.4797 10.8232 15.3612 10.7849C15.2428 10.7465 15.1127 10.7533 14.9996 10.8038ZM15.3078 11.3964C15.2656 11.4153 15.2184 11.4221 15.172 11.416C15.1257 11.41 15.0823 11.3913 15.0474 11.3624C15.0125 11.3335 14.9876 11.2957 14.9759 11.2537C14.9642 11.2117 14.9662 11.1674 14.9817 11.1265C14.9971 11.0855 15.0253 11.0498 15.0627 11.0237C15.1001 10.9976 15.145 10.9824 15.1917 10.9799C15.2384 10.9775 15.2849 10.9879 15.3252 11.01C15.3655 11.032 15.3979 11.0646 15.4182 11.1037C15.4455 11.1561 15.4491 11.2164 15.4284 11.2713C15.4077 11.3262 15.3643 11.3712 15.3078 11.3964Z" fill="#ABB5C7"/>
<path d="M16.5565 10.8754L16.3688 10.8631C16.3346 10.7574 16.2826 10.6574 16.2147 10.5667L16.3212 10.423C16.3463 10.389 16.364 10.3507 16.3731 10.3103C16.3822 10.27 16.3826 10.2283 16.3744 10.1878C16.3661 10.1473 16.3493 10.1087 16.325 10.0742C16.3006 10.0397 16.2691 10.01 16.2323 9.98679L16.0505 9.87202C15.9757 9.82683 15.8847 9.81066 15.7972 9.82699C15.7096 9.84332 15.6325 9.89085 15.5824 9.95935L15.4764 10.1041C15.3597 10.0789 15.2396 10.0701 15.1201 10.0781L15.0354 9.91515C14.9958 9.84112 14.9264 9.78453 14.8421 9.75767C14.7578 9.73082 14.6655 9.73587 14.5852 9.77173L14.3869 9.86027C14.3061 9.89637 14.244 9.96076 14.2144 10.0393C14.1848 10.1178 14.19 10.204 14.229 10.2789L14.3086 10.432C14.2274 10.5136 14.1599 10.6061 14.1084 10.7064L13.9203 10.693C13.8311 10.6861 13.7426 10.7122 13.6741 10.7656C13.6056 10.819 13.5627 10.8953 13.5549 10.9779L13.541 11.1862C13.5341 11.2687 13.5625 11.3504 13.62 11.4137C13.6775 11.4771 13.7595 11.5169 13.8484 11.5248L14.0361 11.5371C14.0703 11.6428 14.1223 11.7428 14.1901 11.8335L14.0836 11.9772C14.0342 12.0464 14.0164 12.1308 14.0341 12.2122C14.0517 12.2935 14.1034 12.365 14.1779 12.411L14.3597 12.5258C14.434 12.5722 14.5252 12.5896 14.6133 12.5742C14.7014 12.5588 14.7794 12.5118 14.8304 12.4434L14.9364 12.2987C15.053 12.3239 15.1731 12.3326 15.2926 12.3246L15.3738 12.4807C15.4129 12.5553 15.4824 12.6125 15.567 12.6398C15.6516 12.667 15.7443 12.6621 15.825 12.6261L16.0233 12.5376C16.1041 12.5015 16.1662 12.4371 16.1958 12.3586C16.2254 12.28 16.2202 12.1938 16.1812 12.1189L16.1016 11.9658C16.1828 11.8842 16.2503 11.7917 16.3017 11.6914L16.4899 11.7048C16.5343 11.7079 16.5789 11.7028 16.6211 11.6899C16.6634 11.677 16.7025 11.6565 16.7362 11.6296C16.7699 11.6027 16.7975 11.5699 16.8175 11.533C16.8375 11.4962 16.8495 11.4561 16.8528 11.415L16.8692 11.2117C16.8753 11.1288 16.8459 11.047 16.7873 10.984C16.7288 10.9211 16.6458 10.882 16.5565 10.8754ZM16.6324 11.1957L16.6213 11.3966C16.6193 11.4215 16.6068 11.4446 16.5866 11.461C16.5663 11.4773 16.5398 11.4856 16.513 11.4839L16.1546 11.459L16.1222 11.5331C16.0695 11.6574 15.9878 11.7695 15.8831 11.8613L15.8198 11.9164L15.9739 12.2127C15.9856 12.2353 15.9872 12.2612 15.9783 12.2848C15.9694 12.3084 15.9507 12.3278 15.9264 12.3386L15.7228 12.4295C15.6985 12.4404 15.6705 12.4418 15.645 12.4336C15.6196 12.4253 15.5987 12.408 15.587 12.3855L15.4329 12.0892L15.347 12.1008C15.2042 12.1194 15.0587 12.1088 14.9209 12.0695L14.8382 12.0468L14.6359 12.3221C14.6205 12.3424 14.5971 12.3564 14.5708 12.3609C14.5577 12.3633 14.5442 12.3633 14.5312 12.3607C14.5181 12.3582 14.5058 12.3532 14.4948 12.3462L14.313 12.2314C14.3013 12.2246 14.2912 12.2157 14.2833 12.2051C14.2754 12.1946 14.27 12.1826 14.2673 12.1701C14.2645 12.1575 14.2646 12.1446 14.2675 12.132C14.2703 12.1195 14.2759 12.1076 14.2839 12.0971L14.4856 11.8233L14.4316 11.7598C14.3873 11.7076 14.3492 11.6511 14.3178 11.5915C14.2868 11.5315 14.2633 11.4685 14.2477 11.4037L14.2267 11.3254L13.873 11.3069C13.8596 11.3059 13.8466 11.3026 13.8346 11.2969C13.8227 11.2913 13.812 11.2835 13.8033 11.274C13.7946 11.2646 13.788 11.2536 13.7839 11.2418C13.7798 11.23 13.7782 11.2175 13.7794 11.2051L13.7958 11.0018C13.7977 10.9769 13.8102 10.9538 13.8305 10.9374C13.8508 10.9211 13.8772 10.9128 13.9041 10.9145L14.2625 10.9395L14.2949 10.8654C14.3476 10.741 14.4292 10.6289 14.5339 10.5371L14.5973 10.482L14.4432 10.1857C14.437 10.1745 14.4333 10.1623 14.4323 10.1497C14.4313 10.1372 14.433 10.1246 14.4374 10.1127C14.4417 10.1008 14.4485 10.0898 14.4575 10.0804C14.4665 10.0709 14.4774 10.0633 14.4896 10.0578L14.6879 9.96929C14.7122 9.95844 14.7402 9.95698 14.7657 9.96523C14.7911 9.97349 14.812 9.99078 14.8237 10.0133L14.9778 10.3096L15.0637 10.2981C15.2065 10.2794 15.3519 10.2901 15.4898 10.3293L15.5725 10.352L15.7747 10.0767C15.7902 10.0564 15.8136 10.0425 15.8399 10.0379C15.853 10.0355 15.8665 10.0356 15.8795 10.0381C15.8926 10.0406 15.9049 10.0456 15.9159 10.0526L16.0977 10.1674C16.1092 10.1742 16.1192 10.1832 16.1269 10.1937C16.1346 10.2041 16.1399 10.216 16.1426 10.2284C16.1453 10.2409 16.1452 10.2537 16.1424 10.2661C16.1396 10.2785 16.1341 10.2903 16.1263 10.3007L15.9284 10.5692L15.9824 10.6327C16.0266 10.6849 16.0648 10.7413 16.0962 10.801C16.1271 10.8609 16.1506 10.9239 16.1662 10.9888L16.1872 11.0671L16.5372 11.0909C16.551 11.0917 16.5645 11.095 16.5768 11.1008C16.5892 11.1065 16.6002 11.1145 16.6091 11.1243C16.618 11.1341 16.6247 11.1455 16.6287 11.1578C16.6327 11.1701 16.6339 11.183 16.6324 11.1957Z" fill="#ABB5C7"/>
</svg>
