<svg width="587" height="488" viewBox="0 0 587 488" fill="none" xmlns="http://www.w3.org/2000/svg">
<path d="M538.083 421.305H48.9167C21.9391 421.305 0 401.415 0 376.957V44.3479C0 19.89 21.9391 0 48.9167 0H538.083C565.061 0 587 19.89 587 44.3479V376.957C587 401.415 565.061 421.305 538.083 421.305ZM48.9167 22.1739C35.4279 22.1739 24.4583 32.119 24.4583 44.3479V376.957C24.4583 389.186 35.4279 399.131 48.9167 399.131H538.083C551.572 399.131 562.542 389.186 562.542 376.957V44.3479C562.542 32.119 551.572 22.1739 538.083 22.1739H48.9167Z" fill="#E3E3E8"/>
<path d="M464.708 487.826H122.292C115.541 487.826 110.062 482.859 110.062 476.739C110.062 470.619 115.541 465.652 122.292 465.652H464.708C471.459 465.652 476.938 470.619 476.938 476.739C476.938 482.859 471.459 487.826 464.708 487.826Z" fill="#E3E3E8"/>
<path d="M379.349 487.829C379.263 487.829 379.19 487.829 379.104 487.829H207.896C203.97 487.829 200.277 486.121 197.978 483.216C195.679 480.323 195.055 476.609 196.29 473.227L220.749 406.705C222.424 402.182 227.083 399.133 232.354 399.133H354.646C359.917 399.133 364.576 402.182 366.251 406.716L389.976 471.254C390.991 472.872 391.578 474.746 391.578 476.742C391.578 482.862 386.099 487.829 379.349 487.829ZM224.858 465.655H362.142L345.841 421.307H241.171L224.858 465.655Z" fill="#E3E3E8"/>
<path d="M538.084 332.609H48.917V44.3477H538.084V332.609ZM73.3753 310.435H513.625V66.5216H73.3753V310.435Z" fill="#E3E3E8"/>
<path d="M293.5 388.043C307.008 388.043 317.959 378.116 317.959 365.869C317.959 353.623 307.008 343.695 293.5 343.695C279.992 343.695 269.042 353.623 269.042 365.869C269.042 378.116 279.992 388.043 293.5 388.043Z" fill="#E3E3E8"/>
<path d="M303.754 135.57C300.462 135.57 297.243 136.455 294.506 138.114C291.768 139.772 289.635 142.129 288.375 144.887C287.115 147.644 286.785 150.679 287.427 153.607C288.07 156.534 289.655 159.223 291.983 161.334C294.311 163.444 297.277 164.882 300.507 165.464C303.736 166.046 307.083 165.748 310.125 164.605C313.166 163.463 315.766 161.529 317.595 159.047C319.425 156.565 320.401 153.647 320.401 150.662C320.401 146.66 318.647 142.821 315.525 139.991C312.403 137.16 308.169 135.57 303.754 135.57ZM303.754 158.208C302.108 158.208 300.499 157.766 299.13 156.936C297.761 156.107 296.694 154.929 296.064 153.55C295.434 152.171 295.27 150.654 295.591 149.19C295.912 147.726 296.705 146.382 297.869 145.326C299.033 144.271 300.516 143.552 302.13 143.261C303.745 142.97 305.418 143.12 306.939 143.691C308.46 144.262 309.76 145.229 310.675 146.47C311.589 147.711 312.077 149.17 312.077 150.662C312.077 152.664 311.201 154.583 309.64 155.998C308.079 157.413 305.962 158.208 303.754 158.208Z" fill="#E3E3E8"/>
<path d="M351.905 159.339L346.162 156.359C346.819 152.609 346.819 148.789 346.162 145.04L351.905 142.059C353.261 141.352 354.451 140.408 355.405 139.284C356.359 138.159 357.059 136.875 357.465 135.505C357.87 134.134 357.974 132.705 357.77 131.298C357.566 129.892 357.058 128.535 356.275 127.307L352.404 121.232C350.778 118.796 348.162 117.035 345.119 116.33C342.076 115.624 338.849 116.03 336.132 117.459L330.389 120.478C327.107 118.082 323.445 116.148 319.527 114.743V108.517C319.494 105.675 318.226 102.959 315.997 100.96C313.769 98.961 310.76 97.8397 307.625 97.8398H299.884C296.727 97.8398 293.7 98.9767 291.468 101C289.236 103.024 287.982 105.769 287.982 108.631V114.479C284.064 115.884 280.402 117.818 277.12 120.214L271.377 117.195C268.665 115.746 265.431 115.329 262.381 116.036C259.332 116.743 256.715 118.516 255.104 120.968L251.234 127.231C249.657 129.694 249.21 132.62 249.988 135.379C250.766 138.138 252.708 140.51 255.396 141.984L261.139 144.964C260.482 148.714 260.482 152.534 261.139 156.283L255.396 159.264C252.691 160.724 250.735 163.096 249.955 165.861C249.175 168.626 249.635 171.558 251.234 174.016L255.104 180.091C256.696 182.559 259.297 184.36 262.343 185.101C265.389 185.843 268.635 185.466 271.377 184.052L277.12 181.034C280.402 183.43 284.064 185.363 287.982 186.769V192.73C287.993 195.586 289.252 198.321 291.482 200.336C293.713 202.352 296.735 203.483 299.884 203.483H307.625C310.781 203.483 313.809 202.346 316.041 200.323C318.273 198.299 319.527 195.554 319.527 192.693V186.844C323.445 185.439 327.107 183.505 330.389 181.109L336.132 184.128C337.487 184.838 338.983 185.298 340.535 185.484C342.086 185.669 343.663 185.574 345.175 185.206C346.686 184.839 348.102 184.204 349.343 183.339C350.584 182.474 351.624 181.396 352.404 180.166L356.275 174.092C357.834 171.606 358.249 168.664 357.431 165.902C356.613 163.14 354.628 160.782 351.905 159.339ZM349.033 170.319L345.371 176.393C344.9 177.137 344.124 177.681 343.211 177.908C342.299 178.134 341.325 178.024 340.502 177.601L329.557 171.866L327.309 173.714C323.59 176.84 319.157 179.184 314.325 180.581L311.412 181.411V192.73C311.412 193.591 311.035 194.416 310.364 195.025C309.692 195.633 308.782 195.975 307.833 195.975H299.884C298.935 195.975 298.024 195.633 297.353 195.025C296.682 194.416 296.305 193.591 296.305 192.73V181.411L293.392 180.581C288.56 179.184 284.127 176.84 280.407 173.714L278.16 171.866L267.215 177.601C266.391 178.017 265.42 178.125 264.51 177.902C264.056 177.795 263.63 177.607 263.259 177.347C262.887 177.088 262.576 176.764 262.346 176.393L258.475 170.319C258.216 169.946 258.044 169.528 257.968 169.093C257.893 168.657 257.916 168.212 258.037 167.784C258.158 167.357 258.373 166.957 258.67 166.607C258.968 166.258 259.34 165.968 259.765 165.753L270.669 160.056L270.003 157.34C269.462 155.109 269.183 152.832 269.171 150.548C269.178 148.262 269.471 145.983 270.045 143.757L270.669 141.04L259.765 135.57C259.357 135.355 259 135.069 258.714 134.729C258.428 134.389 258.219 134.001 258.099 133.587C257.979 133.173 257.95 132.742 258.015 132.318C258.08 131.894 258.236 131.486 258.475 131.118L262.346 125.043C262.817 124.299 263.593 123.755 264.506 123.529C265.418 123.302 266.392 123.413 267.215 123.836L278.16 129.571L280.407 127.722C284.127 124.596 288.56 122.252 293.392 120.855L296.305 120.025V108.706C296.294 108.274 296.378 107.844 296.553 107.441C296.728 107.039 296.99 106.672 297.323 106.363C297.657 106.053 298.055 105.808 298.495 105.64C298.935 105.472 299.407 105.386 299.884 105.386H307.625C308.574 105.386 309.484 105.728 310.156 106.336C310.827 106.945 311.204 107.77 311.204 108.631V119.949L314.117 120.78C318.949 122.177 323.382 124.521 327.101 127.646L329.349 129.495L340.294 123.76C341.118 123.344 342.088 123.236 342.999 123.458C343.453 123.565 343.878 123.754 344.25 124.014C344.622 124.273 344.932 124.597 345.163 124.968L349.033 131.042C349.286 131.414 349.453 131.828 349.525 132.26C349.596 132.692 349.571 133.132 349.451 133.555C349.33 133.977 349.117 134.374 348.824 134.72C348.53 135.066 348.163 135.355 347.743 135.57L337.048 141.154L337.714 143.87C338.255 146.101 338.534 148.377 338.546 150.662C338.539 152.948 338.246 155.226 337.672 157.453L337.048 160.169L347.743 165.753C348.169 165.968 348.541 166.258 348.838 166.607C349.136 166.957 349.351 167.357 349.472 167.784C349.593 168.212 349.616 168.657 349.541 169.093C349.465 169.528 349.293 169.946 349.033 170.319Z" fill="#E3E3E8"/>
<g clip-path="url(#clip0_99_15933)">
<path d="M249.744 209.658C247.752 210.343 246.029 211.548 244.793 213.121C243.556 214.694 242.862 216.564 242.797 218.494C242.733 220.425 243.302 222.329 244.431 223.967C245.561 225.604 247.201 226.901 249.143 227.694C251.086 228.487 253.244 228.739 255.345 228.42C257.446 228.1 259.396 227.223 260.947 225.899C262.498 224.576 263.582 222.864 264.06 220.982C264.539 219.1 264.391 217.132 263.635 215.326C262.622 212.904 260.59 210.947 257.985 209.884C255.379 208.821 252.415 208.74 249.744 209.658ZM255.474 223.354C254.478 223.697 253.392 223.764 252.354 223.547C251.316 223.33 250.372 222.839 249.642 222.136C248.912 221.433 248.429 220.549 248.252 219.596C248.076 218.644 248.216 217.666 248.653 216.785C249.09 215.904 249.805 215.161 250.708 214.649C251.612 214.137 252.662 213.879 253.727 213.908C254.791 213.938 255.823 214.252 256.69 214.813C257.557 215.373 258.222 216.155 258.6 217.057C259.106 218.268 259.061 219.612 258.475 220.793C257.889 221.974 256.809 222.895 255.474 223.354Z" fill="#E3E3E8"/>
<path d="M284.892 214.024L280.663 213.416C280.112 211.01 279.145 208.699 277.798 206.568L280.519 203.57C281.16 202.859 281.641 202.041 281.933 201.162C282.226 200.283 282.324 199.361 282.223 198.447C282.122 197.534 281.823 196.648 281.343 195.839C280.864 195.03 280.213 194.316 279.429 193.735L275.55 190.865C273.949 189.729 271.921 189.208 269.901 189.415C267.881 189.621 266.032 190.537 264.75 191.968L262.039 194.988C259.447 194.222 256.742 193.814 254.016 193.778L252.441 190.012C251.701 188.299 250.247 186.92 248.392 186.174C246.538 185.428 244.434 185.375 242.537 186.028L237.854 187.638C235.944 188.295 234.4 189.612 233.562 191.301C232.724 192.99 232.66 194.911 233.384 196.642L234.864 200.181C232.849 201.846 231.123 203.778 229.744 205.91L225.505 205.278C223.498 204.965 221.436 205.386 219.77 206.448C218.104 207.51 216.969 209.128 216.615 210.946L215.859 215.54C215.528 217.359 215.998 219.222 217.167 220.729C218.336 222.236 220.111 223.267 222.111 223.6L226.34 224.209C226.891 226.614 227.858 228.925 229.204 231.057L226.484 234.055C225.217 235.501 224.634 237.343 224.862 239.178C225.09 241.013 226.11 242.691 227.7 243.846L231.579 246.716C233.167 247.878 235.196 248.426 237.226 248.241C239.257 248.056 241.125 247.153 242.426 245.728L245.137 242.707C247.729 243.473 250.434 243.881 253.16 243.917L254.669 247.524C255.398 249.249 256.852 250.642 258.712 251.397C260.572 252.152 262.686 252.208 264.591 251.553L269.275 249.943C271.184 249.286 272.728 247.969 273.567 246.28C274.405 244.591 274.469 242.67 273.745 240.938L272.264 237.4C274.279 235.735 276.005 233.803 277.385 231.671L281.623 232.303C282.623 232.45 283.644 232.418 284.63 232.207C285.616 231.996 286.546 231.611 287.367 231.074C288.188 230.537 288.885 229.859 289.416 229.077C289.948 228.296 290.304 227.427 290.465 226.521L291.27 222.041C291.584 220.212 291.09 218.346 289.897 216.845C288.703 215.344 286.905 214.331 284.892 214.024ZM285.934 221.264L285.255 225.701C285.159 226.249 284.827 226.74 284.332 227.067C283.837 227.393 283.22 227.529 282.615 227.445L274.542 226.252L273.65 227.838C272.19 230.502 270.102 232.843 267.532 234.693L265.98 235.801L268.844 242.649C269.062 243.17 269.043 243.748 268.791 244.256C268.539 244.763 268.074 245.16 267.5 245.357L262.691 247.011C262.117 247.208 261.48 247.191 260.919 246.962C260.359 246.734 259.922 246.313 259.705 245.792L256.84 238.944L254.867 239.048C251.59 239.208 248.315 238.711 245.274 237.594L243.446 236.943L238.276 242.69C237.882 243.113 237.323 243.381 236.715 243.435C236.414 243.465 236.108 243.439 235.818 243.36C235.527 243.28 235.257 243.148 235.024 242.972L231.145 240.102C230.894 239.93 230.684 239.714 230.528 239.466C230.372 239.218 230.273 238.944 230.238 238.66C230.203 238.377 230.232 238.09 230.324 237.816C230.415 237.543 230.567 237.29 230.77 237.072L235.925 231.357L234.835 229.852C233.942 228.615 233.197 227.296 232.612 225.916C232.038 224.531 231.638 223.092 231.422 221.626L231.112 219.852L223.131 218.81C222.83 218.766 222.541 218.667 222.282 218.521C222.023 218.374 221.798 218.183 221.621 217.958C221.443 217.732 221.317 217.477 221.249 217.207C221.181 216.938 221.172 216.658 221.224 216.385L222.028 211.905C222.124 211.357 222.456 210.866 222.951 210.539C223.446 210.213 224.063 210.077 224.668 210.162L232.741 211.354L233.633 209.768C235.093 207.104 237.181 204.763 239.751 202.913L241.303 201.805L238.439 194.957C238.323 194.697 238.265 194.42 238.269 194.14C238.273 193.86 238.338 193.584 238.462 193.327C238.585 193.071 238.764 192.839 238.988 192.646C239.211 192.453 239.475 192.303 239.764 192.203L244.447 190.593C245.021 190.396 245.658 190.413 246.219 190.642C246.779 190.87 247.216 191.291 247.433 191.812L250.298 198.66L252.271 198.556C255.548 198.396 258.823 198.892 261.864 200.009L263.692 200.66L268.862 194.914C269.256 194.491 269.815 194.223 270.423 194.169C270.724 194.139 271.03 194.165 271.32 194.244C271.611 194.324 271.881 194.455 272.114 194.631L275.993 197.501C276.24 197.674 276.446 197.89 276.598 198.136C276.751 198.382 276.847 198.654 276.881 198.935C276.916 199.216 276.887 199.5 276.797 199.77C276.707 200.041 276.558 200.292 276.358 200.509L271.301 206.112L272.391 207.617C273.283 208.854 274.028 210.174 274.613 211.553C275.188 212.938 275.587 214.377 275.804 215.844L276.113 217.617L283.998 218.771C284.309 218.812 284.608 218.91 284.876 219.059C285.144 219.209 285.376 219.406 285.557 219.64C285.739 219.873 285.865 220.137 285.93 220.417C285.995 220.696 285.996 220.984 285.934 221.264Z" fill="#E3E3E8"/>
</g>
<g clip-path="url(#clip1_99_15933)">
<path d="M341.481 209.679C339.968 210.34 338.706 211.392 337.853 212.703C337.001 214.014 336.596 215.525 336.691 217.045C336.785 218.565 337.375 220.025 338.384 221.241C339.394 222.456 340.779 223.374 342.364 223.876C343.949 224.378 345.662 224.443 347.288 224.063C348.913 223.682 350.378 222.873 351.496 221.738C352.614 220.603 353.336 219.193 353.571 217.686C353.805 216.179 353.541 214.642 352.812 213.271C351.835 211.433 350.092 210.021 347.967 209.347C345.842 208.674 343.509 208.793 341.481 209.679ZM347.008 220.078C346.252 220.408 345.404 220.528 344.573 220.422C343.742 220.316 342.964 219.988 342.338 219.481C341.712 218.974 341.266 218.31 341.056 217.574C340.846 216.837 340.882 216.06 341.159 215.342C341.436 214.623 341.942 213.996 342.613 213.538C343.283 213.08 344.089 212.813 344.927 212.77C345.765 212.727 346.598 212.911 347.321 213.297C348.044 213.684 348.625 214.256 348.989 214.941C349.478 215.861 349.543 216.918 349.172 217.882C348.8 218.845 348.022 219.635 347.008 220.078Z" fill="#E3E3E8"/>
<path d="M369.403 210.936L366.037 210.72C365.424 208.866 364.491 207.111 363.274 205.52L365.184 202.999C365.635 202.401 365.951 201.729 366.114 201.021C366.278 200.313 366.286 199.583 366.138 198.872C365.99 198.161 365.688 197.484 365.251 196.878C364.814 196.273 364.249 195.752 363.59 195.345L360.329 193.331C358.987 192.538 357.356 192.255 355.785 192.541C354.215 192.828 352.832 193.662 351.933 194.863L350.032 197.402C347.939 196.961 345.785 196.807 343.642 196.948L342.122 194.088C341.413 192.789 340.167 191.796 338.655 191.325C337.143 190.854 335.488 190.942 334.048 191.572L330.492 193.125C329.042 193.758 327.929 194.888 327.397 196.266C326.866 197.643 326.96 199.156 327.659 200.47L329.087 203.157C327.63 204.589 326.42 206.212 325.497 207.971L322.122 207.737C320.523 207.615 318.935 208.072 317.707 209.009C316.479 209.946 315.71 211.286 315.568 212.735L315.32 216.389C315.197 217.837 315.705 219.271 316.736 220.382C317.768 221.493 319.239 222.193 320.833 222.331L324.199 222.547C324.813 224.401 325.745 226.156 326.962 227.747L325.052 230.268C324.166 231.482 323.847 232.964 324.164 234.391C324.48 235.817 325.407 237.072 326.742 237.88L330.003 239.894C331.337 240.708 332.971 241.014 334.551 240.743C336.132 240.472 337.531 239.648 338.445 238.448L340.346 235.909C342.439 236.351 344.593 236.505 346.736 236.364L348.192 239.103C348.894 240.412 350.14 241.416 351.657 241.894C353.173 242.372 354.838 242.286 356.284 241.654L359.84 240.1C361.29 239.467 362.403 238.337 362.935 236.96C363.466 235.582 363.372 234.07 362.673 232.755L361.245 230.069C362.702 228.637 363.912 227.014 364.835 225.254L368.21 225.488C369.006 225.543 369.805 225.454 370.563 225.228C371.321 225.001 372.022 224.642 372.627 224.169C373.231 223.697 373.727 223.121 374.086 222.475C374.445 221.829 374.659 221.125 374.717 220.403L375.012 216.836C375.122 215.382 374.594 213.946 373.544 212.842C372.494 211.738 371.006 211.053 369.403 210.936ZM370.765 216.556L370.565 220.082C370.531 220.518 370.307 220.924 369.943 221.211C369.579 221.498 369.105 221.642 368.624 221.613L362.196 221.175L361.615 222.475C360.669 224.658 359.205 226.624 357.327 228.235L356.191 229.201L358.954 234.401C359.165 234.796 359.193 235.251 359.033 235.665C358.873 236.079 358.539 236.419 358.103 236.61L354.451 238.205C354.015 238.395 353.514 238.421 353.057 238.276C352.6 238.131 352.225 237.828 352.015 237.432L349.251 232.233L347.711 232.436C345.15 232.764 342.541 232.577 340.07 231.887L338.586 231.489L334.958 236.32C334.681 236.676 334.262 236.921 333.789 237.001C333.555 237.043 333.313 237.042 333.079 236.997C332.845 236.953 332.623 236.866 332.427 236.742L329.166 234.729C328.955 234.609 328.774 234.452 328.633 234.267C328.492 234.082 328.394 233.873 328.346 233.652C328.297 233.432 328.298 233.205 328.349 232.985C328.4 232.765 328.501 232.556 328.644 232.373L332.261 227.567L331.292 226.453C330.499 225.537 329.815 224.547 329.252 223.501C328.697 222.449 328.275 221.343 327.995 220.205L327.619 218.832L321.274 218.507C321.034 218.491 320.801 218.431 320.586 218.332C320.372 218.233 320.181 218.097 320.025 217.931C319.869 217.765 319.75 217.573 319.676 217.365C319.603 217.157 319.575 216.938 319.595 216.721L319.89 213.154C319.924 212.718 320.148 212.312 320.512 212.025C320.876 211.738 321.35 211.593 321.832 211.622L328.26 212.06L328.841 210.76C329.786 208.578 331.25 206.611 333.129 205L334.264 204.034L331.501 198.835C331.39 198.638 331.324 198.424 331.306 198.204C331.288 197.984 331.319 197.763 331.396 197.554C331.474 197.345 331.597 197.152 331.758 196.987C331.919 196.821 332.115 196.687 332.334 196.591L335.89 195.038C336.326 194.847 336.828 194.822 337.284 194.967C337.741 195.112 338.116 195.415 338.326 195.81L341.09 201.01L342.63 200.806C345.191 200.479 347.8 200.666 350.272 201.355L351.755 201.754L355.383 196.923C355.66 196.566 356.079 196.322 356.552 196.241C356.787 196.199 357.028 196.201 357.262 196.245C357.496 196.29 357.718 196.376 357.914 196.5L361.175 198.514C361.382 198.634 361.56 198.791 361.698 198.975C361.837 199.159 361.933 199.366 361.981 199.584C362.028 199.803 362.027 200.028 361.977 200.246C361.927 200.463 361.828 200.67 361.688 200.853L358.138 205.564L359.107 206.678C359.901 207.594 360.585 208.584 361.148 209.631C361.703 210.683 362.125 211.788 362.405 212.926L362.781 214.299L369.057 214.718C369.305 214.731 369.547 214.79 369.769 214.891C369.991 214.991 370.188 215.132 370.347 215.304C370.507 215.476 370.627 215.676 370.698 215.891C370.77 216.106 370.793 216.333 370.765 216.556Z" fill="#E3E3E8"/>
</g>
<defs>
<clipPath id="clip0_99_15933">
<rect width="85.2009" height="79.1799" fill="white" transform="matrix(0.945662 -0.325151 0.385921 0.922532 198 196.117)"/>
</clipPath>
<clipPath id="clip1_99_15933">
<rect width="66.7575" height="62.8082" fill="white" transform="matrix(0.916377 -0.400317 0.469323 0.883027 299.84 202.242)"/>
</clipPath>
</defs>
</svg>
