<svg width="18" height="19" viewBox="0 0 18 19" fill="none" xmlns="http://www.w3.org/2000/svg">
<path d="M16.927 7.88903H10.3962C9.80238 7.88903 9.23285 7.68124 8.81293 7.31137C8.39301 6.9415 8.1571 6.43985 8.1571 5.91677V0.164355C8.1571 0.120765 8.13745 0.078961 8.10245 0.0481384C8.06746 0.0173159 8.02 0 7.97051 0H3.67886C2.88705 0 2.12768 0.277055 1.56779 0.770215C1.0079 1.26337 0.693359 1.93224 0.693359 2.62968V15.7781C0.693359 16.4755 1.0079 17.1444 1.56779 17.6375C2.12768 18.1307 2.88705 18.4077 3.67886 18.4077H14.1281C14.9199 18.4077 15.6793 18.1307 16.2392 17.6375C16.7991 17.1444 17.1136 16.4755 17.1136 15.7781V8.05339C17.1136 8.0098 17.0939 7.96799 17.0589 7.93717C17.024 7.90635 16.9765 7.88903 16.927 7.88903Z" fill="#656565"/>
<path d="M16.518 6.43677L9.80946 0.527804C9.79642 0.51638 9.77983 0.508609 9.76178 0.505467C9.74374 0.502324 9.72504 0.503951 9.70804 0.510142C9.69104 0.516334 9.67649 0.526813 9.66624 0.540264C9.65598 0.553715 9.65047 0.569536 9.65039 0.585739V5.91946C9.65039 6.09382 9.72903 6.26104 9.869 6.38433C10.009 6.50762 10.1988 6.57688 10.3968 6.57688H16.4522C16.4706 6.57681 16.4886 6.57196 16.5038 6.56292C16.5191 6.55389 16.531 6.54108 16.538 6.52611C16.5451 6.51113 16.5469 6.49466 16.5433 6.47877C16.5398 6.46287 16.5309 6.44826 16.518 6.43677Z" fill="#656565"/>
</svg>
