<svg width="249" height="328" viewBox="0 0 249 328" fill="none" xmlns="http://www.w3.org/2000/svg">
<path fill-rule="evenodd" clip-rule="evenodd" d="M52.4211 39.3158V26.2105H65.5263V13.1053H235.895V275.211H222.789V288.316H209.684V39.3158H52.4211V0H249V288.316H209.684V327.632H0V39.3158H52.4211ZM13.1053 52.4211H196.579V314.526H13.1053V52.4211ZM39.3158 78.6316H170.368V91.7368H39.3158V78.6316ZM39.3158 117.947H170.368V131.053H39.3158V117.947ZM39.3158 157.263H170.368V170.368H39.3158V157.263ZM39.3158 196.579H170.368V209.684H39.3158V196.579ZM39.3158 235.895H170.368V249H39.3158V235.895ZM39.3158 275.211H170.368V288.316H39.3158V275.211Z" fill="#E3E3E8"/>
</svg>
