<svg width="26" height="26" viewBox="0 0 26 26" fill="none" xmlns="http://www.w3.org/2000/svg">
<path d="M13 25.5C6.09625 25.5 0.5 19.9037 0.5 13C0.5 6.09625 6.09625 0.5 13 0.5C19.9037 0.5 25.5 6.09625 25.5 13C25.5 19.9037 19.9037 25.5 13 25.5ZM11.75 16.75V19.25H14.25V16.75H11.75ZM14.25 14.6937C15.2546 14.391 16.117 13.7374 16.6802 12.8522C17.2434 11.9669 17.4699 10.9088 17.3184 9.87058C17.167 8.83235 16.6476 7.88305 15.855 7.19557C15.0624 6.50809 14.0492 6.12817 13 6.125C11.9886 6.12492 11.0083 6.47519 10.226 7.11624C9.44365 7.75729 8.90751 8.64954 8.70875 9.64125L11.1613 10.1325C11.2308 9.78429 11.3979 9.463 11.643 9.20602C11.888 8.94904 12.201 8.76693 12.5455 8.68088C12.89 8.59483 13.2519 8.60839 13.589 8.71996C13.9261 8.83154 14.2246 9.03655 14.4498 9.31114C14.6749 9.58573 14.8175 9.91861 14.8609 10.2711C14.9042 10.6235 14.8466 10.981 14.6947 11.302C14.5428 11.623 14.3029 11.8942 14.0029 12.0842C13.7029 12.2741 13.3551 12.375 13 12.375C12.6685 12.375 12.3505 12.5067 12.1161 12.7411C11.8817 12.9755 11.75 13.2935 11.75 13.625V15.5H14.25V14.6937Z" fill="#00436C"/>
</svg>
