<svg width="39" height="39" viewBox="0 0 39 39" fill="none" xmlns="http://www.w3.org/2000/svg">
<path d="M19.4678 39C30.2196 39 38.9357 30.2696 38.9357 19.5C38.9357 8.73045 30.2196 0 19.4678 0C8.71605 0 0 8.73045 0 19.5C0 30.2696 8.71605 39 19.4678 39Z" fill="#F5EEE5"/>
<mask id="mask0_2129_2936" style="mask-type:luminance" maskUnits="userSpaceOnUse" x="0" y="0" width="39" height="39">
<path d="M19.4678 39C30.2196 39 38.9357 30.2696 38.9357 19.5C38.9357 8.73045 30.2196 0 19.4678 0C8.71605 0 0 8.73045 0 19.5C0 30.2696 8.71605 39 19.4678 39Z" fill="white"/>
</mask>
<g mask="url(#mask0_2129_2936)">
<path d="M25.3082 29.6001L36.1712 32.6031C37.4172 33.0321 38.3906 33.9681 38.9357 35.1771V38.9991H0V35.1771C0.506164 33.9681 1.51849 33.0321 2.76443 32.6031L13.6275 29.6001V23.7891H25.3082V29.6001Z" fill="#D4B08C"/>
</g>
<mask id="mask1_2129_2936" style="mask-type:luminance" maskUnits="userSpaceOnUse" x="0" y="0" width="39" height="39">
<path d="M19.4678 39C30.2196 39 38.9357 30.2696 38.9357 19.5C38.9357 8.73045 30.2196 0 19.4678 0C8.71605 0 0 8.73045 0 19.5C0 30.2696 8.71605 39 19.4678 39Z" fill="white"/>
</mask>
<g mask="url(#mask1_2129_2936)">
<mask id="mask2_2129_2936" style="mask-type:luminance" maskUnits="userSpaceOnUse" x="0" y="23" width="39" height="16">
<path d="M25.3082 29.6001L36.1712 32.6031C37.4172 33.0321 38.3906 33.9681 38.9357 35.1771V38.9991H0V35.1771C0.506164 33.9681 1.51849 33.0321 2.76443 32.6031L13.6275 29.6001V23.7891H25.3082V29.6001Z" fill="white"/>
</mask>
<g mask="url(#mask2_2129_2936)">
<path d="M19.5457 31.2H16.7423L14.8734 29.25H0V39H19.5457H39.0525V29.25H24.218L22.3491 31.2H19.5457Z" fill="#1E1E23"/>
</g>
<mask id="mask3_2129_2936" style="mask-type:luminance" maskUnits="userSpaceOnUse" x="0" y="23" width="39" height="16">
<path d="M25.3082 29.6001L36.1712 32.6031C37.4172 33.0321 38.3906 33.9681 38.9357 35.1771V38.9991H0V35.1771C0.506164 33.9681 1.51849 33.0321 2.76443 32.6031L13.6275 29.6001V23.7891H25.3082V29.6001Z" fill="white"/>
</mask>
<g mask="url(#mask3_2129_2936)">
<path d="M19.4678 31.1983H19.8572L25.5807 28.1953L23.3224 39.4663L19.4678 39.0373L15.6132 39.4663L13.355 28.1953L19.0785 31.1983H19.4678Z" fill="#C1CAD4"/>
</g>
<mask id="mask4_2129_2936" style="mask-type:luminance" maskUnits="userSpaceOnUse" x="0" y="23" width="39" height="16">
<path d="M25.3082 29.6001L36.1712 32.6031C37.4172 33.0321 38.3906 33.9681 38.9357 35.1771V38.9991H0V35.1771C0.506164 33.9681 1.51849 33.0321 2.76443 32.6031L13.6275 29.6001V23.7891H25.3082V29.6001Z" fill="white"/>
</mask>
<g mask="url(#mask4_2129_2936)">
<path d="M18.4944 34.7109H20.4412L21.9987 39.3909H16.937L18.4944 34.7109Z" fill="#216DD9"/>
</g>
<mask id="mask5_2129_2936" style="mask-type:luminance" maskUnits="userSpaceOnUse" x="0" y="23" width="39" height="16">
<path d="M25.3082 29.6001L36.1712 32.6031C37.4172 33.0321 38.3906 33.9681 38.9357 35.1771V38.9991H0V35.1771C0.506164 33.9681 1.51849 33.0321 2.76443 32.6031L13.6275 29.6001V23.7891H25.3082V29.6001Z" fill="white"/>
</mask>
<g mask="url(#mask5_2129_2936)">
<path d="M15.3796 31.1992H23.556L20.4412 34.7092H18.4945L15.3796 31.1992Z" fill="#249CF2"/>
</g>
<mask id="mask6_2129_2936" style="mask-type:luminance" maskUnits="userSpaceOnUse" x="0" y="23" width="39" height="16">
<path d="M25.3082 29.6001L36.1712 32.6031C37.4172 33.0321 38.3906 33.9681 38.9357 35.1771V38.9991H0V35.1771C0.506164 33.9681 1.51849 33.0321 2.76443 32.6031L13.6275 29.6001V23.7891H25.3082V29.6001Z" fill="white"/>
</mask>
<g mask="url(#mask6_2129_2936)">
<path d="M25.503 27.3008L19.8962 31.2008L24.1013 35.4908L25.6976 27.6908L25.503 27.3008ZM13.433 27.3008L19.0397 31.2008L14.8346 35.4908L13.2383 27.6908L13.433 27.3008Z" fill="white"/>
</g>
</g>
<path d="M19.4678 28.8583C18.8838 28.8583 18.1051 28.7413 17.5989 28.5073C16.9759 28.2343 14.7955 26.7133 14.0558 26.0503C13.0824 25.1533 12.5762 24.0613 12.4204 22.1503C12.2647 20.2393 11.6807 13.4533 11.6807 11.8933C11.6807 9.67028 13.6664 6.23828 19.4678 6.23828C25.2693 6.23828 27.255 9.67028 27.255 11.8933C27.255 13.4533 26.671 20.2783 26.5152 22.1893C26.3595 24.1003 25.8923 25.1923 24.8799 26.0893C24.1401 26.7523 21.9208 28.2733 21.3368 28.5463C20.8306 28.7413 20.0519 28.8583 19.4678 28.8583Z" fill="#F2CEA5"/>
<path d="M22.1935 23.3984H16.7424C16.5867 23.3984 16.5088 23.5544 16.5867 23.7104C17.0929 24.6074 18.0273 25.0754 19.1954 25.1534C20.4024 25.2314 21.7262 24.6464 22.3492 23.7104C22.4271 23.5934 22.3492 23.3984 22.1935 23.3984Z" fill="#A3705F"/>
<path d="M22.972 18.3295C23.4021 18.3295 23.7507 17.9803 23.7507 17.5495C23.7507 17.1187 23.4021 16.7695 22.972 16.7695C22.542 16.7695 22.1934 17.1187 22.1934 17.5495C22.1934 17.9803 22.542 18.3295 22.972 18.3295Z" fill="#262626"/>
<path d="M15.9637 18.3295C16.3938 18.3295 16.7424 17.9803 16.7424 17.5495C16.7424 17.1187 16.3938 16.7695 15.9637 16.7695C15.5337 16.7695 15.1851 17.1187 15.1851 17.5495C15.1851 17.9803 15.5337 18.3295 15.9637 18.3295Z" fill="#262626"/>
<path d="M13.6274 16.3809C13.6274 16.3809 14.0557 15.2109 16.0025 15.2109C17.3263 15.2109 18.105 15.7959 18.4944 16.3809" stroke="#CC9872" stroke-width="2"/>
<path d="M25.3472 16.3809C25.3472 16.3809 24.9189 15.2109 22.9721 15.2109C21.1032 15.2109 20.2466 16.3809 20.2466 17.1609C20.2466 17.9019 20.2466 20.6709 20.2466 20.6709" stroke="#BB8660" stroke-width="2"/>
<path d="M26.7877 18.7981C26.7877 18.7981 27.0992 16.3411 28.2283 15.9901C28.3841 15.2881 28.8124 13.2601 28.8124 12.1291C28.8124 10.9981 28.6956 9.90609 28.0726 8.97009C27.3718 7.95609 25.8922 7.37109 25.1135 7.37109C24.218 7.91709 22.1154 9.16509 21.4535 9.90609C21.1031 10.2961 21.6093 10.6081 21.6093 10.6081C21.6093 10.6081 22.0765 10.4131 22.2712 10.3741C23.2446 10.1011 25.386 9.90609 26.0479 10.8811C26.8656 12.0511 26.8656 15.4831 26.8656 15.9901C26.8656 16.4581 26.7877 18.7981 26.7877 18.7981Z" fill="#D98C21"/>
<path d="M10.7073 15.9886C11.8365 16.3786 12.1479 18.7966 12.1479 18.7966C12.1479 18.7966 12.0701 16.4566 12.0701 15.9886C12.0701 15.3646 12.1479 12.4396 13.3939 11.0356C14.7956 9.47556 16.6645 8.96856 17.7158 9.67056C18.2609 10.0216 20.0908 11.8156 22.0376 10.3336C23.2057 9.43656 25.3472 7.40856 25.3472 7.40856C25.3472 7.40856 24.218 3.93756 19.0785 4.32756C16.8981 4.52256 14.4841 3.97656 14.4841 3.97656C14.4841 3.97656 14.4452 4.95156 14.8345 5.45856C11.6028 6.39456 10.5516 8.73456 10.2401 10.5286C10.1622 10.8796 10.1233 11.2306 10.1233 11.5816C10.1233 11.7766 10.1233 11.9716 10.1233 12.1276C10.1233 13.2586 10.5516 15.2476 10.7073 15.9886Z" fill="#E6A422"/>
</svg>
