<svg width="415" height="249" viewBox="0 0 415 249" fill="none" xmlns="http://www.w3.org/2000/svg">
<g filter="url(#filter0_dd_2238_13963)">
<path d="M28 22C28 16.4772 32.3776 12 37.9005 12C76.8945 12 218.497 12 234 12C252 12 260.5 53.5 276 53.5C288.416 53.5 352.165 53.5 377.041 53.5C382.564 53.5 387 57.9772 387 63.5V194.5C387 200.023 382.523 204.5 377 204.5H38C32.4772 204.5 28 200.023 28 194.5V22Z" fill="url(#paint0_linear_2238_13963)"/>
</g>
<path d="M50.473 50.5L41.598 27.5938H44.8793L50.8324 44.2344C51.3116 45.5677 51.7126 46.8177 52.0355 47.9844C52.3897 46.7344 52.8011 45.4844 53.2699 44.2344L59.4574 27.5938H62.5511L53.5824 50.5H50.473ZM64.3324 30.8281V27.5938H67.1449V30.8281H64.3324ZM64.3324 50.5V33.9062H67.1449V50.5H64.3324ZM82.2074 50.5V48.4062C81.1553 50.0521 79.6084 50.875 77.5668 50.875C76.2439 50.875 75.0251 50.5104 73.9105 49.7812C72.8064 49.0521 71.947 48.0365 71.3324 46.7344C70.7282 45.4219 70.4261 43.9167 70.4261 42.2188C70.4261 40.5625 70.7022 39.0625 71.2543 37.7188C71.8064 36.3646 72.6345 35.3281 73.7386 34.6094C74.8428 33.8906 76.0772 33.5312 77.4418 33.5312C78.4418 33.5312 79.3324 33.7448 80.1136 34.1719C80.8949 34.5885 81.5303 35.1354 82.0199 35.8125V27.5938H84.8168V50.5H82.2074ZM73.3168 42.2188C73.3168 44.3438 73.7647 45.9323 74.6605 46.9844C75.5564 48.0365 76.6136 48.5625 77.8324 48.5625C79.0616 48.5625 80.1032 48.0625 80.9574 47.0625C81.822 46.0521 82.2543 44.5156 82.2543 42.4531C82.2543 40.1823 81.8168 38.5156 80.9418 37.4531C80.0668 36.3906 78.9886 35.8594 77.7074 35.8594C76.4574 35.8594 75.4105 36.3698 74.5668 37.3906C73.7334 38.4115 73.3168 40.0208 73.3168 42.2188ZM100.614 45.1562L103.52 45.5156C103.062 47.2135 102.213 48.5312 100.973 49.4688C99.7334 50.4062 98.1501 50.875 96.223 50.875C93.7959 50.875 91.8689 50.1302 90.4418 48.6406C89.0251 47.1406 88.3168 45.0417 88.3168 42.3438C88.3168 39.5521 89.0355 37.3854 90.473 35.8438C91.9105 34.3021 93.7751 33.5312 96.0668 33.5312C98.2855 33.5312 100.098 34.2865 101.504 35.7969C102.911 37.3073 103.614 39.4323 103.614 42.1719C103.614 42.3385 103.608 42.5885 103.598 42.9219H91.223C91.3272 44.7448 91.8428 46.1406 92.7699 47.1094C93.697 48.0781 94.8532 48.5625 96.2386 48.5625C97.2699 48.5625 98.1501 48.2917 98.8793 47.75C99.6084 47.2083 100.187 46.3438 100.614 45.1562ZM91.3793 40.6094H100.645C100.52 39.2135 100.166 38.1667 99.5824 37.4688C98.6866 36.3854 97.5251 35.8438 96.098 35.8438C94.8064 35.8438 93.7178 36.276 92.8324 37.1406C91.9574 38.0052 91.473 39.1615 91.3793 40.6094ZM106.02 42.2031C106.02 39.1302 106.874 36.8542 108.582 35.375C110.009 34.1458 111.749 33.5312 113.801 33.5312C116.082 33.5312 117.947 34.2812 119.395 35.7812C120.843 37.2708 121.567 39.3333 121.567 41.9688C121.567 44.1042 121.244 45.7865 120.598 47.0156C119.963 48.2344 119.03 49.1823 117.801 49.8594C116.582 50.5365 115.249 50.875 113.801 50.875C111.478 50.875 109.598 50.1302 108.161 48.6406C106.733 47.151 106.02 45.0052 106.02 42.2031ZM108.911 42.2031C108.911 44.3281 109.374 45.9219 110.301 46.9844C111.228 48.0365 112.395 48.5625 113.801 48.5625C115.197 48.5625 116.358 48.0312 117.286 46.9688C118.213 45.9062 118.676 44.2865 118.676 42.1094C118.676 40.0573 118.207 38.5052 117.27 37.4531C116.343 36.3906 115.187 35.8594 113.801 35.8594C112.395 35.8594 111.228 36.3854 110.301 37.4375C109.374 38.4896 108.911 40.0781 108.911 42.2031ZM123.754 45.5469L126.536 45.1094C126.692 46.224 127.124 47.0781 127.832 47.6719C128.551 48.2656 129.551 48.5625 130.832 48.5625C132.124 48.5625 133.082 48.3021 133.707 47.7812C134.332 47.25 134.645 46.6302 134.645 45.9219C134.645 45.2865 134.369 44.7865 133.817 44.4219C133.431 44.1719 132.473 43.8542 130.942 43.4688C128.879 42.9479 127.447 42.5 126.645 42.125C125.853 41.7396 125.249 41.2135 124.832 40.5469C124.426 39.8698 124.223 39.125 124.223 38.3125C124.223 37.5729 124.39 36.8906 124.723 36.2656C125.067 35.6302 125.53 35.1042 126.114 34.6875C126.551 34.3646 127.145 34.0938 127.895 33.875C128.655 33.6458 129.468 33.5312 130.332 33.5312C131.634 33.5312 132.775 33.7188 133.754 34.0938C134.744 34.4688 135.473 34.9792 135.942 35.625C136.411 36.2604 136.733 37.1146 136.911 38.1875L134.161 38.5625C134.036 37.7083 133.671 37.0417 133.067 36.5625C132.473 36.0833 131.629 35.8438 130.536 35.8438C129.244 35.8438 128.322 36.0573 127.77 36.4844C127.218 36.9115 126.942 37.4115 126.942 37.9844C126.942 38.349 127.056 38.6771 127.286 38.9688C127.515 39.2708 127.874 39.5208 128.364 39.7188C128.645 39.8229 129.473 40.0625 130.848 40.4375C132.838 40.9688 134.223 41.4062 135.004 41.75C135.796 42.0833 136.416 42.5729 136.864 43.2188C137.312 43.8646 137.536 44.6667 137.536 45.625C137.536 46.5625 137.259 47.4479 136.707 48.2812C136.166 49.1042 135.379 49.7448 134.348 50.2031C133.317 50.651 132.15 50.875 130.848 50.875C128.692 50.875 127.046 50.4271 125.911 49.5312C124.786 48.6354 124.067 47.3073 123.754 45.5469Z" fill="white"/>
<path d="M267.987 79.8697H257.494V138.606C257.494 143.242 262.19 146.997 267.987 146.997H341.443V138.606H267.987V79.8697ZM351.937 63.0879H288.975C283.177 63.0879 278.481 66.8428 278.481 71.4788V121.824C278.481 126.46 283.177 130.215 288.975 130.215H351.937C357.735 130.215 362.431 126.46 362.431 121.824V71.4788C362.431 66.8428 357.735 63.0879 351.937 63.0879ZM309.962 115.531V77.772L341.443 96.6515L309.962 115.531Z" fill="black" fill-opacity="0.2"/>
<defs>
<filter id="filter0_dd_2238_13963" x="0" y="0" width="415" height="248.5" filterUnits="userSpaceOnUse" color-interpolation-filters="sRGB">
<feFlood flood-opacity="0" result="BackgroundImageFix"/>
<feColorMatrix in="SourceAlpha" type="matrix" values="0 0 0 0 0 0 0 0 0 0 0 0 0 0 0 0 0 0 127 0" result="hardAlpha"/>
<feMorphology radius="4" operator="erode" in="SourceAlpha" result="effect1_dropShadow_2238_13963"/>
<feOffset dy="4"/>
<feGaussianBlur stdDeviation="2"/>
<feComposite in2="hardAlpha" operator="out"/>
<feColorMatrix type="matrix" values="0 0 0 0 0.0470588 0 0 0 0 0.0470588 0 0 0 0 0.0509804 0 0 0 0.05 0"/>
<feBlend mode="normal" in2="BackgroundImageFix" result="effect1_dropShadow_2238_13963"/>
<feColorMatrix in="SourceAlpha" type="matrix" values="0 0 0 0 0 0 0 0 0 0 0 0 0 0 0 0 0 0 127 0" result="hardAlpha"/>
<feMorphology radius="4" operator="erode" in="SourceAlpha" result="effect2_dropShadow_2238_13963"/>
<feOffset dy="16"/>
<feGaussianBlur stdDeviation="16"/>
<feComposite in2="hardAlpha" operator="out"/>
<feColorMatrix type="matrix" values="0 0 0 0 0.0470588 0 0 0 0 0.0470588 0 0 0 0 0.0509804 0 0 0 0.1 0"/>
<feBlend mode="normal" in2="effect1_dropShadow_2238_13963" result="effect2_dropShadow_2238_13963"/>
<feBlend mode="normal" in="SourceGraphic" in2="effect2_dropShadow_2238_13963" result="shape"/>
</filter>
<linearGradient id="paint0_linear_2238_13963" x1="207.5" y1="12" x2="28" y2="204.5" gradientUnits="userSpaceOnUse">
<stop stop-color="#CFA40C"/>
<stop offset="1" stop-color="#A89703"/>
</linearGradient>
</defs>
</svg>
