<svg width="244" height="48" viewBox="0 0 244 48" fill="none" xmlns="http://www.w3.org/2000/svg">
<path d="M30.9963 25.4847C30.9953 25.4574 30.9913 25.4308 30.9879 25.4035C30.9821 25.3577 30.9741 25.3131 30.9621 25.2695C30.9586 25.2566 30.9587 25.2433 30.9546 25.2305L25.9546 9.68186C25.8242 9.27616 25.4375 9 25 9H6C5.5625 9 5.17578 9.27616 5.04541 9.68186L0.0454102 25.2305C0.0412903 25.2433 0.0414428 25.2566 0.0379028 25.2695C0.0258179 25.3132 0.0177918 25.3579 0.012085 25.4038C0.00872807 25.4309 0.00473025 25.4574 0.0037232 25.4845C0.0032654 25.4967 0 25.5081 0 25.5204V36.21C0 36.7467 0.447754 37.1818 1 37.1818H24C24.5522 37.1818 25 36.7467 25 36.21C25 35.6734 24.5522 35.2382 24 35.2382H2V26.4922H29V35.2382H27.5C26.9478 35.2382 26.5 35.6734 26.5 36.21C26.5 36.7467 26.9478 37.1818 27.5 37.1818H30C30.5522 37.1818 31 36.7467 31 36.21V25.5204C31 25.5082 30.9968 25.4968 30.9963 25.4847ZM2.36035 24.5486L5.0166 16.2884H10C10.3149 16.2884 10.6113 16.1442 10.7998 15.8998L12 14.3448H19L20.2002 15.8998C20.3887 16.1442 20.6851 16.2884 21 16.2884H23C23.5522 16.2884 24 15.8533 24 15.3166C24 14.7799 23.5522 14.3448 23 14.3448H21.5L20.2998 12.7899C20.1113 12.5455 19.8149 12.4013 19.5 12.4013H11.5C11.1851 12.4013 10.8887 12.5455 10.7002 12.7899L9.5 14.3448H5.6416L6.73535 10.9436H24.2646L27.2334 20.1755H23.5664L22.3574 18.2177C22.1768 17.925 21.8511 17.7461 21.5 17.7461H9.5C9.14893 17.7461 8.82324 17.925 8.64258 18.2177L7.43359 20.1755H6C5.44775 20.1755 5 20.6107 5 21.1473C5 21.684 5.44775 22.1191 6 22.1191H8C8.35107 22.1191 8.67676 21.9402 8.85742 21.6475L10.0664 19.6897H20.9336L22.1426 21.6475C22.3232 21.9402 22.6489 22.1191 23 22.1191H27.8584L28.6396 24.5486H2.36035Z" fill="white"/>
<path d="M13 29.8936C12.4478 29.8936 12 30.3287 12 30.8653C12 31.402 12.4478 31.8371 13 31.8371H18C18.5522 31.8371 19 31.402 19 30.8653C19 30.3287 18.5522 29.8936 18 29.8936H13Z" fill="white"/>
<path d="M49.4 37H41.6L52.2 9H60.2L70.8 37H63L61.2 32H51.2L49.4 37ZM53 26.8H59.4L56.2 17.4L53 26.8ZM80.5984 20.4C79.5318 20.4 78.9984 20.9333 78.9984 22V24.2H85.7984V22C85.7984 20.9333 85.2651 20.4 84.1984 20.4H80.5984ZM91.9984 36.6C86.8518 37.1333 82.1851 37.4 77.9984 37.4C76.1851 37.4 74.7318 36.8533 73.6384 35.76C72.5451 34.6667 71.9984 33.2133 71.9984 31.4V21.8C71.9984 19.8 72.5584 18.24 73.6784 17.12C74.8251 15.9733 76.3984 15.4 78.3984 15.4H86.3984C88.3984 15.4 89.9584 15.9733 91.0784 17.12C92.2251 18.24 92.7984 19.8 92.7984 21.8V29.2H78.9984V30.8C78.9984 31.2 79.1318 31.5333 79.3984 31.8C79.6651 32.0667 79.9984 32.2 80.3984 32.2C83.0384 32.2 86.9051 32 91.9984 31.6V36.6ZM108.583 21.6C106.903 21.6 105.169 22 103.383 22.8V37H96.3828V15.8H102.583L102.983 18.4C105.276 16.4 107.676 15.4 110.183 15.4H111.983V21.6H108.583ZM135.6 31C135.6 33 135.027 34.5733 133.88 35.72C132.76 36.84 131.2 37.4 129.2 37.4H120C118 37.4 116.427 36.84 115.28 35.72C114.16 34.5733 113.6 33 113.6 31V21.8C113.6 19.8 114.16 18.24 115.28 17.12C116.427 15.9733 118 15.4 120 15.4H129.2C131.2 15.4 132.76 15.9733 133.88 17.12C135.027 18.24 135.6 19.8 135.6 21.8V31ZM128.6 22.4C128.6 21.3333 128.067 20.8 127 20.8H122.2C121.133 20.8 120.6 21.3333 120.6 22.4V30.4C120.6 31.4667 121.133 32 122.2 32H127C128.067 32 128.6 31.4667 128.6 30.4V22.4Z" fill="white"/>
<path d="M151.395 28.6L158.195 9H165.995L155.395 37H147.395L136.795 9H144.595L151.395 28.6ZM174.392 31.8C175.806 31.8 177.406 31.5333 179.192 31V28.6H173.392C172.992 28.6 172.659 28.7333 172.392 29C172.126 29.2667 171.992 29.6 171.992 30V30.4C171.992 30.8 172.126 31.1333 172.392 31.4C172.659 31.6667 172.992 31.8 173.392 31.8H174.392ZM166.992 16.2C171.872 15.6667 176.272 15.4 180.192 15.4C182.006 15.4 183.459 15.9467 184.552 17.04C185.646 18.1333 186.192 19.5867 186.192 21.4V37H179.992L179.592 35C178.339 35.8267 177.046 36.44 175.712 36.84C174.406 37.2133 173.299 37.4 172.392 37.4H170.992C169.179 37.4 167.726 36.8533 166.632 35.76C165.539 34.6667 164.992 33.2133 164.992 31.4V29.6C164.992 27.7867 165.539 26.3333 166.632 25.24C167.726 24.1467 169.179 23.6 170.992 23.6H179.192V22C179.192 21.6 179.059 21.2667 178.792 21C178.526 20.7333 178.192 20.6 177.792 20.6C176.059 20.6 174.139 20.68 172.032 20.84C169.952 21 168.272 21.12 166.992 21.2V16.2ZM199.581 31.6C200.995 31.6 202.595 31.3333 204.381 30.8V15.8H211.381V37H205.181L204.781 35C203.528 35.8267 202.235 36.44 200.901 36.84C199.595 37.2133 198.488 37.4 197.581 37.4H195.781C193.968 37.4 192.515 36.8533 191.421 35.76C190.328 34.6667 189.781 33.2133 189.781 31.4V15.8H196.781V30.2C196.781 30.6 196.915 30.9333 197.181 31.2C197.448 31.4667 197.781 31.6 198.181 31.6H199.581ZM226.167 37C224.381 37.2667 222.674 37.4 221.047 37.4C219.447 37.4 218.101 36.8533 217.007 35.76C215.914 34.6667 215.367 33.2133 215.367 31.4V9H222.367V30.4C222.367 30.8 222.501 31.1333 222.767 31.4C223.034 31.6667 223.367 31.8 223.767 31.8H226.167V37ZM242.98 37C240.393 37.2667 237.86 37.4 235.38 37.4C233.566 37.4 232.113 36.8533 231.02 35.76C229.926 34.6667 229.38 33.2133 229.38 31.4V21.2H226.98V15.8H229.38L230.18 11H236.38V15.8H241.38V21.2H236.38V30.4C236.38 30.8 236.513 31.1333 236.78 31.4C237.046 31.6667 237.38 31.8 237.78 31.8H242.98V37Z" fill="#21C7FF"/>
</svg>
