<svg width="253" height="161" viewBox="0 0 253 161" fill="none" xmlns="http://www.w3.org/2000/svg">
<g filter="url(#filter0_dd_2401_2955)">
<path d="M28 22C28 16.4772 32.4558 12 37.9787 12C64.1059 12 133.057 12 141.042 12C150.919 12 155.584 34.4555 164.089 34.4555C170.242 34.4555 199.368 34.4555 215.01 34.4555C220.533 34.4555 225 38.9327 225 44.4555V106.161C225 111.684 220.523 116.161 215 116.161H38C32.4771 116.161 28 111.684 28 106.161V22Z" fill="url(#paint0_linear_2401_2955)"/>
</g>
<path d="M36.5444 22.6836H41.8276C43.019 22.6836 43.9272 22.7747 44.5522 22.957C45.3921 23.2044 46.1115 23.6439 46.7104 24.2754C47.3094 24.9069 47.7651 25.6816 48.0776 26.5996C48.3901 27.5111 48.5464 28.6374 48.5464 29.9785C48.5464 31.1569 48.3999 32.1725 48.1069 33.0254C47.7488 34.0671 47.2378 34.9102 46.5737 35.5547C46.0724 36.043 45.3953 36.4238 44.5424 36.6973C43.9044 36.8991 43.0516 37 41.9839 37H36.5444V22.6836ZM39.435 25.1055V34.5879H41.5932C42.4005 34.5879 42.9832 34.5423 43.3413 34.4512C43.81 34.334 44.1974 34.1354 44.5034 33.8555C44.8159 33.5755 45.0698 33.1165 45.2651 32.4785C45.4604 31.834 45.5581 30.9583 45.5581 29.8516C45.5581 28.7448 45.4604 27.8952 45.2651 27.3027C45.0698 26.7103 44.7964 26.248 44.4448 25.916C44.0932 25.584 43.6473 25.3594 43.1069 25.2422C42.7033 25.151 41.9122 25.1055 40.7339 25.1055H39.435ZM50.353 31.668C50.353 30.7565 50.5776 29.8743 51.0268 29.0215C51.476 28.1686 52.1108 27.5176 52.9311 27.0684C53.7579 26.6191 54.6792 26.3945 55.6948 26.3945C57.2638 26.3945 58.5496 26.9056 59.5522 27.9277C60.5548 28.9434 61.0561 30.2292 61.0561 31.7852C61.0561 33.3542 60.5483 34.6562 59.5327 35.6914C58.5236 36.7201 57.2508 37.2344 55.7143 37.2344C54.7638 37.2344 53.8556 37.0195 52.9897 36.5898C52.1303 36.1602 51.476 35.5319 51.0268 34.7051C50.5776 33.8717 50.353 32.8594 50.353 31.668ZM53.1655 31.8145C53.1655 32.8431 53.4096 33.6309 53.8979 34.1777C54.3862 34.7246 54.9884 34.998 55.7046 34.998C56.4207 34.998 57.0197 34.7246 57.5014 34.1777C57.9897 33.6309 58.2339 32.8366 58.2339 31.7949C58.2339 30.7793 57.9897 29.998 57.5014 29.4512C57.0197 28.9043 56.4207 28.6309 55.7046 28.6309C54.9884 28.6309 54.3862 28.9043 53.8979 29.4512C53.4096 29.998 53.1655 30.7858 53.1655 31.8145ZM72.2573 29.6953L69.5522 30.1836C69.4611 29.6432 69.2527 29.2363 68.9272 28.9629C68.6082 28.6895 68.1915 28.5527 67.6772 28.5527C66.9936 28.5527 66.4467 28.7904 66.0366 29.2656C65.6329 29.7344 65.4311 30.5221 65.4311 31.6289C65.4311 32.8594 65.6362 33.7285 66.0464 34.2363C66.463 34.7441 67.0197 34.998 67.7163 34.998C68.2371 34.998 68.6635 34.8516 68.9956 34.5586C69.3276 34.2591 69.562 33.748 69.6987 33.0254L72.394 33.4844C72.1141 34.7214 71.577 35.6556 70.7827 36.2871C69.9884 36.9186 68.924 37.2344 67.5893 37.2344C66.0724 37.2344 64.8615 36.7559 63.9565 35.7988C63.0581 34.8418 62.6089 33.5169 62.6089 31.8242C62.6089 30.112 63.0613 28.7806 63.9663 27.8301C64.8712 26.873 66.0952 26.3945 67.6382 26.3945C68.9012 26.3945 69.9038 26.668 70.646 27.2148C71.3947 27.7552 71.9318 28.582 72.2573 29.6953ZM81.1733 37V35.4473C80.7957 36.0007 80.2977 36.4368 79.6792 36.7559C79.0672 37.0749 78.4194 37.2344 77.7358 37.2344C77.0392 37.2344 76.4142 37.0814 75.8608 36.7754C75.3074 36.4694 74.907 36.0397 74.6596 35.4863C74.4122 34.9329 74.2885 34.168 74.2885 33.1914V26.6289H77.0327V31.3945C77.0327 32.8529 77.0815 33.748 77.1792 34.0801C77.2833 34.4056 77.4689 34.666 77.7358 34.8613C78.0027 35.0501 78.3413 35.1445 78.7514 35.1445C79.2202 35.1445 79.6401 35.0176 80.0112 34.7637C80.3823 34.5033 80.6362 34.1842 80.7729 33.8066C80.9096 33.4225 80.978 32.4883 80.978 31.0039V26.6289H83.7221V37H81.1733ZM86.3686 26.6289H88.8979V28.0449C89.8029 26.9447 90.8803 26.3945 92.1303 26.3945C92.7944 26.3945 93.3706 26.5312 93.8589 26.8047C94.3471 27.0781 94.7475 27.4915 95.06 28.0449C95.5158 27.4915 96.0073 27.0781 96.5346 26.8047C97.062 26.5312 97.6251 26.3945 98.2241 26.3945C98.9858 26.3945 99.6303 26.5508 100.158 26.8633C100.685 27.1693 101.079 27.6217 101.339 28.2207C101.528 28.6634 101.623 29.3796 101.623 30.3691V37H98.8784V31.0723C98.8784 30.0436 98.784 29.3796 98.5952 29.0801C98.3413 28.6895 97.9507 28.4941 97.4233 28.4941C97.0392 28.4941 96.6779 28.6113 96.3393 28.8457C96.0008 29.0801 95.7566 29.4251 95.6069 29.8809C95.4572 30.3301 95.3823 31.043 95.3823 32.0195V37H92.6382V31.3164C92.6382 30.3073 92.5893 29.6562 92.4917 29.3633C92.394 29.0703 92.241 28.8522 92.0327 28.709C91.8309 28.5658 91.5542 28.4941 91.2026 28.4941C90.7794 28.4941 90.3986 28.6081 90.06 28.8359C89.7215 29.0638 89.4773 29.3926 89.3276 29.8223C89.1844 30.252 89.1128 30.9648 89.1128 31.9609V37H86.3686V26.6289ZM110.373 33.6992L113.107 34.1582C112.755 35.1608 112.199 35.9258 111.437 36.4531C110.682 36.974 109.735 37.2344 108.595 37.2344C106.792 37.2344 105.457 36.6452 104.591 35.4668C103.908 34.5228 103.566 33.3314 103.566 31.8926C103.566 30.1738 104.015 28.8294 104.914 27.8594C105.812 26.8828 106.948 26.3945 108.322 26.3945C109.865 26.3945 111.082 26.9056 111.974 27.9277C112.866 28.9434 113.292 30.5026 113.253 32.6055H106.378C106.398 33.4193 106.619 34.054 107.042 34.5098C107.466 34.959 107.993 35.1836 108.624 35.1836C109.054 35.1836 109.415 35.0664 109.708 34.832C110.001 34.5977 110.223 34.2201 110.373 33.6992ZM110.529 30.9258C110.509 30.1315 110.304 29.5293 109.914 29.1191C109.523 28.7025 109.048 28.4941 108.488 28.4941C107.889 28.4941 107.394 28.7122 107.003 29.1484C106.613 29.5846 106.421 30.1771 106.427 30.9258H110.529ZM124.933 37H122.189V31.707C122.189 30.5872 122.13 29.8646 122.013 29.5391C121.896 29.207 121.704 28.9499 121.437 28.7676C121.177 28.5853 120.861 28.4941 120.49 28.4941C120.014 28.4941 119.588 28.6243 119.21 28.8848C118.833 29.1452 118.572 29.4902 118.429 29.9199C118.292 30.3496 118.224 31.1439 118.224 32.3027V37H115.48V26.6289H118.029V28.1523C118.934 26.9805 120.073 26.3945 121.447 26.3945C122.052 26.3945 122.606 26.5052 123.107 26.7266C123.608 26.9414 123.986 27.2181 124.24 27.5566C124.5 27.8952 124.679 28.2793 124.777 28.709C124.881 29.1387 124.933 29.7539 124.933 30.5547V37ZM132.482 26.6289V28.8164H130.607V32.9961C130.607 33.8424 130.623 34.3372 130.656 34.4805C130.695 34.6172 130.776 34.7311 130.9 34.8223C131.03 34.9134 131.186 34.959 131.369 34.959C131.623 34.959 131.99 34.8711 132.472 34.6953L132.707 36.8242C132.068 37.0977 131.346 37.2344 130.539 37.2344C130.044 37.2344 129.598 37.153 129.201 36.9902C128.804 36.821 128.511 36.6061 128.322 36.3457C128.139 36.0788 128.013 35.7207 127.941 35.2715C127.882 34.9525 127.853 34.3079 127.853 33.3379V28.8164H126.593V26.6289H127.853V24.5684L130.607 22.9668V26.6289H132.482ZM133.419 34.041L136.173 33.6211C136.29 34.1549 136.528 34.5618 136.886 34.8418C137.244 35.1152 137.746 35.252 138.39 35.252C139.1 35.252 139.634 35.1217 139.992 34.8613C140.233 34.679 140.353 34.4349 140.353 34.1289C140.353 33.9206 140.288 33.748 140.158 33.6113C140.021 33.4811 139.715 33.3607 139.24 33.25C137.026 32.7617 135.623 32.3158 135.031 31.9121C134.21 31.3522 133.8 30.5742 133.8 29.5781C133.8 28.6797 134.155 27.9245 134.865 27.3125C135.574 26.7005 136.675 26.3945 138.165 26.3945C139.585 26.3945 140.639 26.6257 141.33 27.0879C142.02 27.5501 142.495 28.2337 142.755 29.1387L140.167 29.6172C140.057 29.2135 139.845 28.9043 139.533 28.6895C139.227 28.4746 138.787 28.3672 138.214 28.3672C137.492 28.3672 136.974 28.4681 136.662 28.6699C136.453 28.8132 136.349 28.9987 136.349 29.2266C136.349 29.4219 136.44 29.5879 136.623 29.7246C136.87 29.9069 137.723 30.1641 139.181 30.4961C140.646 30.8281 141.668 31.235 142.248 31.7168C142.82 32.2051 143.107 32.8854 143.107 33.7578C143.107 34.7083 142.71 35.5254 141.915 36.209C141.121 36.8926 139.946 37.2344 138.39 37.2344C136.977 37.2344 135.858 36.9479 135.031 36.375C134.21 35.8021 133.673 35.0241 133.419 34.041Z" fill="white"/>
<path d="M179.03 57H167V100H179.03V57ZM176.022 94.625H170.007V91.9375H176.022V94.625ZM176.022 89.25H170.007V86.5625H176.022V89.25ZM176.022 83.875H170.007V81.1875H176.022V83.875ZM173.015 65.0625C171.355 65.0625 170.007 63.8585 170.007 62.375C170.007 60.8915 171.355 59.6875 173.015 59.6875C174.675 59.6875 176.022 60.8915 176.022 62.375C176.022 63.8585 174.675 65.0625 173.015 65.0625Z" fill="#869CA7"/>
<path d="M182.037 100H194.067V57H182.037V100ZM188.052 59.6875C189.712 59.6875 191.06 60.8915 191.06 62.375C191.06 63.8585 189.712 65.0625 188.052 65.0625C186.392 65.0625 185.045 63.8585 185.045 62.375C185.045 60.8915 186.392 59.6875 188.052 59.6875ZM185.045 81.1875H191.06V83.875H185.045V81.1875ZM185.045 86.5625H191.06V89.25H185.045V86.5625ZM185.045 91.9375H191.06V94.625H185.045V91.9375Z" fill="#869CA7"/>
<path d="M209.104 57H197.074V100H209.104V57ZM206.097 94.625H200.082V91.9375H206.097V94.625ZM206.097 89.25H200.082V86.5625H206.097V89.25ZM206.097 83.875H200.082V81.1875H206.097V83.875ZM203.089 65.0625C201.429 65.0625 200.082 63.8585 200.082 62.375C200.082 60.8915 201.429 59.6875 203.089 59.6875C204.749 59.6875 206.097 60.8915 206.097 62.375C206.097 63.8585 204.749 65.0625 203.089 65.0625Z" fill="#869CA7"/>
<defs>
<filter id="filter0_dd_2401_2955" x="0" y="0" width="253" height="160.161" filterUnits="userSpaceOnUse" color-interpolation-filters="sRGB">
<feFlood flood-opacity="0" result="BackgroundImageFix"/>
<feColorMatrix in="SourceAlpha" type="matrix" values="0 0 0 0 0 0 0 0 0 0 0 0 0 0 0 0 0 0 127 0" result="hardAlpha"/>
<feMorphology radius="4" operator="erode" in="SourceAlpha" result="effect1_dropShadow_2401_2955"/>
<feOffset dy="4"/>
<feGaussianBlur stdDeviation="2"/>
<feComposite in2="hardAlpha" operator="out"/>
<feColorMatrix type="matrix" values="0 0 0 0 0.0470588 0 0 0 0 0.0470588 0 0 0 0 0.0509804 0 0 0 0.05 0"/>
<feBlend mode="normal" in2="BackgroundImageFix" result="effect1_dropShadow_2401_2955"/>
<feColorMatrix in="SourceAlpha" type="matrix" values="0 0 0 0 0 0 0 0 0 0 0 0 0 0 0 0 0 0 127 0" result="hardAlpha"/>
<feMorphology radius="4" operator="erode" in="SourceAlpha" result="effect2_dropShadow_2401_2955"/>
<feOffset dy="16"/>
<feGaussianBlur stdDeviation="16"/>
<feComposite in2="hardAlpha" operator="out"/>
<feColorMatrix type="matrix" values="0 0 0 0 0.0470588 0 0 0 0 0.0470588 0 0 0 0 0.0509804 0 0 0 0.1 0"/>
<feBlend mode="normal" in2="effect1_dropShadow_2401_2955" result="effect2_dropShadow_2401_2955"/>
<feBlend mode="normal" in="SourceGraphic" in2="effect2_dropShadow_2401_2955" result="shape"/>
</filter>
<linearGradient id="paint0_linear_2401_2955" x1="126.5" y1="12" x2="29.4777" y2="117.52" gradientUnits="userSpaceOnUse">
<stop stop-color="#00436C"/>
<stop offset="1" stop-color="#2360A0"/>
</linearGradient>
</defs>
</svg>
