<svg width="60" height="76" viewBox="0 0 60 76" fill="none" xmlns="http://www.w3.org/2000/svg">
<path d="M57.8571 11.875H46.8241L42.2705 3.45117C40.9955 1.31026 39.0268 0 36.7768 0H23.2232C20.9732 0 18.8839 1.31026 17.7321 3.45117L13.1759 11.875H2.14286C0.954241 11.875 0 12.9334 0 14.25V16.625C0 17.9461 0.954241 19 2.14286 19H4.28571V66.5C4.28571 71.7473 8.12277 76 12.8571 76H47.1429C51.8772 76 55.7143 71.7473 55.7143 66.5V19H57.8571C59.0491 19 60 17.9461 60 16.625V14.25C60 12.9334 59.0491 11.875 57.8571 11.875ZM23.0223 7.5525C23.1562 7.29273 23.4241 7.125 23.7054 7.125H36.2946C36.5792 7.125 36.8471 7.29199 36.981 7.55176L39.3214 11.875H20.6786L23.0223 7.5525ZM47.1429 68.875H12.8571C11.6736 68.875 10.7143 67.8117 10.7143 66.5V19H49.2857V66.5C49.2857 67.8063 48.3214 68.875 47.1429 68.875ZM30 61.75C31.1845 61.75 32.1429 60.6878 32.1429 59.375V28.5C32.1429 27.1872 31.1845 26.125 30 26.125C28.8155 26.125 27.8571 27.1938 27.8571 28.5V59.375C27.8571 60.6813 28.8214 61.75 30 61.75ZM19.2857 61.75C20.4643 61.75 21.4286 60.6813 21.4286 59.375V28.5C21.4286 27.1872 20.4702 26.125 19.2857 26.125C18.1013 26.125 17.1429 27.1938 17.1429 28.5V59.375C17.1429 60.6813 18.1071 61.75 19.2857 61.75ZM40.7143 61.75C41.8988 61.75 42.8571 60.6878 42.8571 59.375V28.5C42.8571 27.1872 41.8988 26.125 40.7143 26.125C39.5298 26.125 38.5714 27.1938 38.5714 28.5V59.375C38.5714 60.6813 39.5357 61.75 40.7143 61.75Z" fill="#585353"/>
</svg>
