<svg width="44" height="32" viewBox="0 0 44 32" fill="none" xmlns="http://www.w3.org/2000/svg">
<rect x="0.5" y="0.5" width="43" height="31" rx="7.5" fill="white" stroke="#135176"/>
<path d="M21.9468 13.9085C21.155 13.9085 20.3956 14.2006 19.8358 14.7205C19.2759 15.2404 18.9613 15.9455 18.9613 16.6808C18.9613 17.4161 19.2759 18.1212 19.8358 18.6411C20.3956 19.161 21.155 19.4531 21.9468 19.4531C22.7386 19.4531 23.498 19.161 24.0579 18.6411C24.6178 18.1212 24.9323 17.4161 24.9323 16.6808C24.9323 15.9455 24.6178 15.2404 24.0579 14.7205C23.498 14.2006 22.7386 13.9085 21.9468 13.9085ZM21.9468 21.3013C20.6272 21.3013 19.3615 20.8145 18.4284 19.948C17.4952 19.0815 16.971 17.9062 16.971 16.6808C16.971 15.4554 17.4952 14.2801 18.4284 13.4136C19.3615 12.5471 20.6272 12.0603 21.9468 12.0603C23.2665 12.0603 24.5321 12.5471 25.4653 13.4136C26.3984 14.2801 26.9227 15.4554 26.9227 16.6808C26.9227 17.9062 26.3984 19.0815 25.4653 19.948C24.5321 20.8145 23.2665 21.3013 21.9468 21.3013ZM21.9468 9.75C16.971 9.75 12.7216 12.624 11 16.6808C12.7216 20.7376 16.971 23.6116 21.9468 23.6116C26.9227 23.6116 31.172 20.7376 32.8937 16.6808C31.172 12.624 26.9227 9.75 21.9468 9.75Z" fill="#33318D"/>
</svg>
