<svg width="421" height="125" viewBox="0 0 421 125" fill="none" xmlns="http://www.w3.org/2000/svg">
<path d="M53.9077 46.1986C53.906 46.1536 53.8993 46.1096 53.8936 46.0647C53.884 45.9891 53.8706 45.9155 53.8504 45.8435C53.8445 45.8222 53.8448 45.8003 53.8379 45.7791L45.4647 20.125C45.2463 19.4556 44.5987 19 43.8661 19H12.0479C11.3152 19 10.6676 19.4556 10.4493 20.125L2.07605 45.7791C2.06915 45.8003 2.0694 45.8222 2.06347 45.8435C2.04324 45.9156 2.02979 45.9894 2.02024 46.0651C2.01462 46.1098 2.00792 46.1536 2.00624 46.1983C2.00547 46.2184 2 46.2372 2 46.2575V63.8947C2 64.7801 2.74983 65.498 3.67464 65.498H42.1914C43.1162 65.498 43.8661 64.7801 43.8661 63.8947C43.8661 63.0092 43.1162 62.2913 42.1914 62.2913H5.34928V47.8609H50.5646V62.2913H48.0527C47.1278 62.2913 46.378 63.0092 46.378 63.8947C46.378 64.7801 47.1278 65.498 48.0527 65.498H52.2393C53.1641 65.498 53.9139 64.7801 53.9139 63.8947V46.2575C53.9139 46.2373 53.9085 46.2186 53.9077 46.1986ZM5.95274 44.6541L10.401 31.0254H18.7464C19.2738 31.0254 19.7702 30.7874 20.0858 30.3842L22.0957 27.8186H33.8182L35.8281 30.3842C36.1437 30.7874 36.6401 31.0254 37.1675 31.0254H40.5168C41.4416 31.0254 42.1914 30.3074 42.1914 29.422C42.1914 28.5365 41.4416 27.8186 40.5168 27.8186H38.0048L35.9949 25.253C35.6793 24.8498 35.1829 24.6118 34.6555 24.6118H21.2584C20.731 24.6118 20.2346 24.8498 19.919 25.253L17.9091 27.8186H11.4477L13.2793 22.2068H42.6346L47.6062 37.4389H41.4653L39.4407 34.2086C39.1381 33.7256 38.5927 33.4304 38.0048 33.4304H17.9091C17.3212 33.4304 16.7758 33.7256 16.4732 34.2086L14.4486 37.4389H12.0479C11.123 37.4389 10.3732 38.1568 10.3732 39.0423C10.3732 39.9277 11.123 40.6456 12.0479 40.6456H15.3971C15.9851 40.6456 16.5305 40.3505 16.833 39.8674L18.8576 36.6372H37.0563L39.0809 39.8674C39.3834 40.3505 39.9288 40.6456 40.5168 40.6456H48.6529L49.9612 44.6541H5.95274Z" fill="#0083AF"/>
<path d="M23.7705 53.4736C22.8457 53.4736 22.0959 54.1916 22.0959 55.077C22.0959 55.9625 22.8457 56.6804 23.7705 56.6804H32.1437C33.0686 56.6804 33.8184 55.9625 33.8184 55.077C33.8184 54.1916 33.0686 53.4736 32.1437 53.4736H23.7705Z" fill="#0083AF"/>
<path d="M79.7137 65H66.0637L84.6137 16H98.6137L117.164 65H103.514L100.364 56.25H82.8637L79.7137 65ZM86.0137 47.15H97.2137L91.6137 30.7L86.0137 47.15ZM134.311 35.95C132.444 35.95 131.511 36.8833 131.511 38.75V42.6H143.411V38.75C143.411 36.8833 142.478 35.95 140.611 35.95H134.311ZM154.261 64.3C145.254 65.2333 137.088 65.7 129.761 65.7C126.588 65.7 124.044 64.7433 122.131 62.83C120.218 60.9167 119.261 58.3733 119.261 55.2V38.4C119.261 34.9 120.241 32.17 122.201 30.21C124.208 28.2033 126.961 27.2 130.461 27.2H144.461C147.961 27.2 150.691 28.2033 152.651 30.21C154.658 32.17 155.661 34.9 155.661 38.4V51.35H131.511V54.15C131.511 54.85 131.744 55.4333 132.211 55.9C132.678 56.3667 133.261 56.6 133.961 56.6C138.581 56.6 145.348 56.25 154.261 55.55V64.3ZM183.284 38.05C180.344 38.05 177.31 38.75 174.184 40.15V65H161.934V27.9H172.784L173.484 32.45C177.497 28.95 181.697 27.2 186.084 27.2H189.234V38.05H183.284ZM230.564 54.5C230.564 58 229.56 60.7533 227.554 62.76C225.594 64.72 222.864 65.7 219.364 65.7H203.264C199.764 65.7 197.01 64.72 195.004 62.76C193.044 60.7533 192.064 58 192.064 54.5V38.4C192.064 34.9 193.044 32.17 195.004 30.21C197.01 28.2033 199.764 27.2 203.264 27.2H219.364C222.864 27.2 225.594 28.2033 227.554 30.21C229.56 32.17 230.564 34.9 230.564 38.4V54.5ZM218.314 39.45C218.314 37.5833 217.38 36.65 215.514 36.65H207.114C205.247 36.65 204.314 37.5833 204.314 39.45V53.45C204.314 55.3167 205.247 56.25 207.114 56.25H215.514C217.38 56.25 218.314 55.3167 218.314 53.45V39.45Z" fill="#0083AF"/>
<path d="M258.205 50.3L270.105 16H283.755L265.205 65H251.205L232.655 16H246.305L258.205 50.3ZM298.45 55.9C300.923 55.9 303.723 55.4333 306.85 54.5V50.3H296.7C296 50.3 295.417 50.5333 294.95 51C294.483 51.4667 294.25 52.05 294.25 52.75V53.45C294.25 54.15 294.483 54.7333 294.95 55.2C295.417 55.6667 296 55.9 296.7 55.9H298.45ZM285.5 28.6C294.04 27.6667 301.74 27.2 308.6 27.2C311.773 27.2 314.317 28.1567 316.23 30.07C318.143 31.9833 319.1 34.5267 319.1 37.7V65H308.25L307.55 61.5C305.357 62.9467 303.093 64.02 300.76 64.72C298.473 65.3733 296.537 65.7 294.95 65.7H292.5C289.327 65.7 286.783 64.7433 284.87 62.83C282.957 60.9167 282 58.3733 282 55.2V52.05C282 48.8767 282.957 46.3333 284.87 44.42C286.783 42.5067 289.327 41.55 292.5 41.55H306.85V38.75C306.85 38.05 306.617 37.4667 306.15 37C305.683 36.5333 305.1 36.3 304.4 36.3C301.367 36.3 298.007 36.44 294.32 36.72C290.68 37 287.74 37.21 285.5 37.35V28.6ZM342.531 55.55C345.004 55.55 347.804 55.0833 350.931 54.15V27.9H363.181V65H352.331L351.631 61.5C349.438 62.9467 347.174 64.02 344.841 64.72C342.554 65.3733 340.618 65.7 339.031 65.7H335.881C332.708 65.7 330.164 64.7433 328.251 62.83C326.338 60.9167 325.381 58.3733 325.381 55.2V27.9H337.631V53.1C337.631 53.8 337.864 54.3833 338.331 54.85C338.798 55.3167 339.381 55.55 340.081 55.55H342.531ZM389.056 65C385.93 65.4667 382.943 65.7 380.096 65.7C377.296 65.7 374.94 64.7433 373.026 62.83C371.113 60.9167 370.156 58.3733 370.156 55.2V16H382.406V53.45C382.406 54.15 382.64 54.7333 383.106 55.2C383.573 55.6667 384.156 55.9 384.856 55.9H389.056V65ZM418.478 65C413.951 65.4667 409.518 65.7 405.178 65.7C402.005 65.7 399.461 64.7433 397.548 62.83C395.635 60.9167 394.678 58.3733 394.678 55.2V37.35H390.478V27.9H394.678L396.078 19.5H406.928V27.9H415.678V37.35H406.928V53.45C406.928 54.15 407.161 54.7333 407.628 55.2C408.095 55.6667 408.678 55.9 409.378 55.9H418.478V65Z" fill="#585858"/>
<path d="M5.57617 120V113.936L0.0585938 105.684H2.36328L5.18555 110C5.70638 110.807 6.19141 111.615 6.64062 112.422C7.07031 111.673 7.59115 110.83 8.20312 109.893L10.9766 105.684H13.1836L7.4707 113.936V120H5.57617ZM12.168 114.814C12.168 112.894 12.7018 111.471 13.7695 110.547C14.6615 109.779 15.7487 109.395 17.0312 109.395C18.457 109.395 19.6224 109.863 20.5273 110.801C21.4323 111.732 21.8848 113.021 21.8848 114.668C21.8848 116.003 21.6829 117.054 21.2793 117.822C20.8822 118.584 20.2995 119.176 19.5312 119.6C18.7695 120.023 17.9362 120.234 17.0312 120.234C15.5794 120.234 14.4043 119.769 13.5059 118.838C12.6139 117.907 12.168 116.566 12.168 114.814ZM13.9746 114.814C13.9746 116.143 14.2643 117.139 14.8438 117.803C15.4232 118.46 16.1523 118.789 17.0312 118.789C17.9036 118.789 18.6296 118.457 19.209 117.793C19.7884 117.129 20.0781 116.117 20.0781 114.756C20.0781 113.473 19.7852 112.503 19.1992 111.846C18.6198 111.182 17.8971 110.85 17.0312 110.85C16.1523 110.85 15.4232 111.178 14.8438 111.836C14.2643 112.493 13.9746 113.486 13.9746 114.814ZM30.752 120V118.477C29.9447 119.648 28.8477 120.234 27.4609 120.234C26.849 120.234 26.276 120.117 25.7422 119.883C25.2148 119.648 24.821 119.355 24.5605 119.004C24.3066 118.646 24.1276 118.21 24.0234 117.695C23.9518 117.35 23.916 116.803 23.916 116.055V109.629H25.6738V115.381C25.6738 116.299 25.7096 116.917 25.7812 117.236C25.8919 117.699 26.1263 118.063 26.4844 118.33C26.8424 118.59 27.2852 118.721 27.8125 118.721C28.3398 118.721 28.8346 118.587 29.2969 118.32C29.7591 118.047 30.0846 117.679 30.2734 117.217C30.4688 116.748 30.5664 116.071 30.5664 115.186V109.629H32.3242V120H30.752ZM35.0684 120V109.629H36.6504V111.201C37.054 110.465 37.4251 109.98 37.7637 109.746C38.1087 109.512 38.4863 109.395 38.8965 109.395C39.4889 109.395 40.0911 109.583 40.7031 109.961L40.0977 111.592C39.668 111.338 39.2383 111.211 38.8086 111.211C38.4245 111.211 38.0794 111.328 37.7734 111.562C37.4674 111.79 37.2493 112.109 37.1191 112.52C36.9238 113.145 36.8262 113.828 36.8262 114.57V120H35.0684ZM47.8613 120V105.684H49.7559V120H47.8613ZM56.748 120V107.373H52.0312V105.684H63.3789V107.373H58.6426V120H56.748ZM70.5859 120V105.684H72.4805V111.562H79.9219V105.684H81.8164V120H79.9219V113.252H72.4805V120H70.5859ZM91.5527 120V118.477C90.7454 119.648 89.6484 120.234 88.2617 120.234C87.6497 120.234 87.0768 120.117 86.543 119.883C86.0156 119.648 85.6217 119.355 85.3613 119.004C85.1074 118.646 84.9284 118.21 84.8242 117.695C84.7526 117.35 84.7168 116.803 84.7168 116.055V109.629H86.4746V115.381C86.4746 116.299 86.5104 116.917 86.582 117.236C86.6927 117.699 86.9271 118.063 87.2852 118.33C87.6432 118.59 88.0859 118.721 88.6133 118.721C89.1406 118.721 89.6354 118.587 90.0977 118.32C90.5599 118.047 90.8854 117.679 91.0742 117.217C91.2695 116.748 91.3672 116.071 91.3672 115.186V109.629H93.125V120H91.5527ZM97.5098 120H95.8789V105.684H97.6367V110.791C98.3789 109.86 99.3262 109.395 100.479 109.395C101.117 109.395 101.719 109.525 102.285 109.785C102.858 110.039 103.327 110.4 103.691 110.869C104.062 111.331 104.352 111.891 104.561 112.549C104.769 113.206 104.873 113.91 104.873 114.658C104.873 116.436 104.434 117.809 103.555 118.779C102.676 119.749 101.621 120.234 100.391 120.234C99.1667 120.234 98.2064 119.723 97.5098 118.701V120ZM97.4902 114.736C97.4902 115.98 97.6595 116.878 97.998 117.432C98.5514 118.337 99.3001 118.789 100.244 118.789C101.012 118.789 101.676 118.457 102.236 117.793C102.796 117.122 103.076 116.126 103.076 114.805C103.076 113.451 102.806 112.451 102.266 111.807C101.732 111.162 101.084 110.84 100.322 110.84C99.554 110.84 98.89 111.175 98.3301 111.846C97.7702 112.51 97.4902 113.473 97.4902 114.736ZM113.008 120V110.996H111.455V109.629H113.008V108.525C113.008 107.829 113.07 107.311 113.193 106.973C113.363 106.517 113.659 106.149 114.082 105.869C114.512 105.583 115.111 105.439 115.879 105.439C116.374 105.439 116.921 105.498 117.52 105.615L117.256 107.148C116.891 107.083 116.546 107.051 116.221 107.051C115.687 107.051 115.309 107.165 115.088 107.393C114.867 107.62 114.756 108.047 114.756 108.672V109.629H116.777V110.996H114.756V120H113.008ZM117.5 114.814C117.5 112.894 118.034 111.471 119.102 110.547C119.993 109.779 121.081 109.395 122.363 109.395C123.789 109.395 124.954 109.863 125.859 110.801C126.764 111.732 127.217 113.021 127.217 114.668C127.217 116.003 127.015 117.054 126.611 117.822C126.214 118.584 125.632 119.176 124.863 119.6C124.102 120.023 123.268 120.234 122.363 120.234C120.911 120.234 119.736 119.769 118.838 118.838C117.946 117.907 117.5 116.566 117.5 114.814ZM119.307 114.814C119.307 116.143 119.596 117.139 120.176 117.803C120.755 118.46 121.484 118.789 122.363 118.789C123.236 118.789 123.962 118.457 124.541 117.793C125.12 117.129 125.41 116.117 125.41 114.756C125.41 113.473 125.117 112.503 124.531 111.846C123.952 111.182 123.229 110.85 122.363 110.85C121.484 110.85 120.755 111.178 120.176 111.836C119.596 112.493 119.307 113.486 119.307 114.814ZM129.268 120V109.629H130.85V111.201C131.253 110.465 131.624 109.98 131.963 109.746C132.308 109.512 132.686 109.395 133.096 109.395C133.688 109.395 134.29 109.583 134.902 109.961L134.297 111.592C133.867 111.338 133.438 111.211 133.008 111.211C132.624 111.211 132.279 111.328 131.973 111.562C131.667 111.79 131.449 112.109 131.318 112.52C131.123 113.145 131.025 113.828 131.025 114.57V120H129.268ZM141.094 115.4L142.881 115.244C142.965 115.96 143.161 116.549 143.467 117.012C143.779 117.467 144.261 117.839 144.912 118.125C145.563 118.405 146.296 118.545 147.109 118.545C147.832 118.545 148.47 118.438 149.023 118.223C149.577 118.008 149.987 117.715 150.254 117.344C150.527 116.966 150.664 116.556 150.664 116.113C150.664 115.664 150.534 115.273 150.273 114.941C150.013 114.603 149.583 114.32 148.984 114.092C148.6 113.942 147.751 113.711 146.436 113.398C145.12 113.079 144.199 112.78 143.672 112.5C142.988 112.142 142.477 111.699 142.139 111.172C141.807 110.638 141.641 110.042 141.641 109.385C141.641 108.662 141.846 107.988 142.256 107.363C142.666 106.732 143.265 106.253 144.053 105.928C144.84 105.602 145.716 105.439 146.68 105.439C147.741 105.439 148.675 105.612 149.482 105.957C150.296 106.296 150.921 106.797 151.357 107.461C151.794 108.125 152.028 108.877 152.061 109.717L150.244 109.854C150.146 108.949 149.814 108.265 149.248 107.803C148.688 107.34 147.858 107.109 146.758 107.109C145.612 107.109 144.775 107.321 144.248 107.744C143.727 108.161 143.467 108.665 143.467 109.258C143.467 109.772 143.652 110.195 144.023 110.527C144.388 110.859 145.339 111.201 146.875 111.553C148.418 111.898 149.476 112.201 150.049 112.461C150.882 112.845 151.497 113.333 151.895 113.926C152.292 114.512 152.49 115.189 152.49 115.957C152.49 116.719 152.272 117.438 151.836 118.115C151.4 118.786 150.771 119.31 149.951 119.688C149.137 120.059 148.219 120.244 147.197 120.244C145.902 120.244 144.814 120.055 143.936 119.678C143.063 119.3 142.376 118.734 141.875 117.979C141.38 117.217 141.12 116.357 141.094 115.4ZM154.775 123.994L154.58 122.344C154.964 122.448 155.299 122.5 155.586 122.5C155.977 122.5 156.289 122.435 156.523 122.305C156.758 122.174 156.95 121.992 157.1 121.758C157.21 121.582 157.389 121.146 157.637 120.449C157.669 120.352 157.721 120.208 157.793 120.02L153.857 109.629H155.752L157.91 115.635C158.19 116.396 158.441 117.197 158.662 118.037C158.864 117.23 159.105 116.442 159.385 115.674L161.602 109.629H163.359L159.414 120.176C158.991 121.315 158.662 122.1 158.428 122.529C158.115 123.109 157.757 123.532 157.354 123.799C156.95 124.072 156.468 124.209 155.908 124.209C155.57 124.209 155.192 124.137 154.775 123.994ZM164.15 116.904L165.889 116.631C165.986 117.327 166.257 117.861 166.699 118.232C167.148 118.604 167.773 118.789 168.574 118.789C169.382 118.789 169.98 118.626 170.371 118.301C170.762 117.969 170.957 117.581 170.957 117.139C170.957 116.742 170.785 116.429 170.439 116.201C170.199 116.045 169.6 115.846 168.643 115.605C167.354 115.28 166.458 115 165.957 114.766C165.462 114.525 165.085 114.196 164.824 113.779C164.57 113.356 164.443 112.891 164.443 112.383C164.443 111.921 164.548 111.494 164.756 111.104C164.971 110.706 165.26 110.378 165.625 110.117C165.898 109.915 166.27 109.746 166.738 109.609C167.214 109.466 167.721 109.395 168.262 109.395C169.076 109.395 169.788 109.512 170.4 109.746C171.019 109.98 171.475 110.299 171.768 110.703C172.061 111.1 172.262 111.634 172.373 112.305L170.654 112.539C170.576 112.005 170.348 111.589 169.971 111.289C169.6 110.99 169.072 110.84 168.389 110.84C167.581 110.84 167.005 110.973 166.66 111.24C166.315 111.507 166.143 111.82 166.143 112.178C166.143 112.406 166.214 112.611 166.357 112.793C166.501 112.982 166.725 113.138 167.031 113.262C167.207 113.327 167.725 113.477 168.584 113.711C169.827 114.043 170.693 114.316 171.182 114.531C171.676 114.74 172.064 115.046 172.344 115.449C172.624 115.853 172.764 116.354 172.764 116.953C172.764 117.539 172.591 118.092 172.246 118.613C171.908 119.128 171.416 119.528 170.771 119.814C170.127 120.094 169.398 120.234 168.584 120.234C167.236 120.234 166.208 119.954 165.498 119.395C164.795 118.835 164.346 118.005 164.15 116.904ZM178.691 118.428L178.945 119.98C178.451 120.085 178.008 120.137 177.617 120.137C176.979 120.137 176.484 120.036 176.133 119.834C175.781 119.632 175.534 119.368 175.391 119.043C175.247 118.711 175.176 118.018 175.176 116.963V110.996H173.887V109.629H175.176V107.061L176.924 106.006V109.629H178.691V110.996H176.924V117.061C176.924 117.562 176.953 117.884 177.012 118.027C177.077 118.171 177.178 118.285 177.314 118.369C177.458 118.454 177.66 118.496 177.92 118.496C178.115 118.496 178.372 118.473 178.691 118.428ZM187.52 116.66L189.336 116.885C189.049 117.946 188.519 118.77 187.744 119.355C186.969 119.941 185.98 120.234 184.775 120.234C183.258 120.234 182.054 119.769 181.162 118.838C180.277 117.9 179.834 116.589 179.834 114.902C179.834 113.158 180.283 111.803 181.182 110.84C182.08 109.876 183.245 109.395 184.678 109.395C186.064 109.395 187.197 109.867 188.076 110.811C188.955 111.755 189.395 113.083 189.395 114.795C189.395 114.899 189.391 115.055 189.385 115.264H181.65C181.715 116.403 182.038 117.275 182.617 117.881C183.197 118.486 183.919 118.789 184.785 118.789C185.43 118.789 185.98 118.62 186.436 118.281C186.891 117.943 187.253 117.402 187.52 116.66ZM181.748 113.818H187.539C187.461 112.946 187.24 112.292 186.875 111.855C186.315 111.178 185.589 110.84 184.697 110.84C183.89 110.84 183.21 111.11 182.656 111.65C182.109 112.191 181.807 112.913 181.748 113.818ZM191.553 120V109.629H193.125V111.084C193.451 110.576 193.883 110.169 194.424 109.863C194.964 109.551 195.579 109.395 196.27 109.395C197.038 109.395 197.666 109.554 198.154 109.873C198.649 110.192 198.997 110.638 199.199 111.211C200.02 110 201.087 109.395 202.402 109.395C203.431 109.395 204.222 109.681 204.775 110.254C205.329 110.82 205.605 111.696 205.605 112.881V120H203.857V113.467C203.857 112.764 203.799 112.259 203.682 111.953C203.571 111.641 203.366 111.39 203.066 111.201C202.767 111.012 202.415 110.918 202.012 110.918C201.283 110.918 200.677 111.162 200.195 111.65C199.714 112.132 199.473 112.907 199.473 113.975V120H197.715V113.262C197.715 112.48 197.572 111.895 197.285 111.504C196.999 111.113 196.53 110.918 195.879 110.918C195.384 110.918 194.925 111.048 194.502 111.309C194.085 111.569 193.783 111.95 193.594 112.451C193.405 112.952 193.311 113.675 193.311 114.619V120H191.553ZM207.51 116.904L209.248 116.631C209.346 117.327 209.616 117.861 210.059 118.232C210.508 118.604 211.133 118.789 211.934 118.789C212.741 118.789 213.34 118.626 213.73 118.301C214.121 117.969 214.316 117.581 214.316 117.139C214.316 116.742 214.144 116.429 213.799 116.201C213.558 116.045 212.959 115.846 212.002 115.605C210.713 115.28 209.818 115 209.316 114.766C208.822 114.525 208.444 114.196 208.184 113.779C207.93 113.356 207.803 112.891 207.803 112.383C207.803 111.921 207.907 111.494 208.115 111.104C208.33 110.706 208.62 110.378 208.984 110.117C209.258 109.915 209.629 109.746 210.098 109.609C210.573 109.466 211.081 109.395 211.621 109.395C212.435 109.395 213.148 109.512 213.76 109.746C214.378 109.98 214.834 110.299 215.127 110.703C215.42 111.1 215.622 111.634 215.732 112.305L214.014 112.539C213.936 112.005 213.708 111.589 213.33 111.289C212.959 110.99 212.432 110.84 211.748 110.84C210.941 110.84 210.365 110.973 210.02 111.24C209.674 111.507 209.502 111.82 209.502 112.178C209.502 112.406 209.574 112.611 209.717 112.793C209.86 112.982 210.085 113.138 210.391 113.262C210.566 113.327 211.084 113.477 211.943 113.711C213.187 114.043 214.053 114.316 214.541 114.531C215.036 114.74 215.423 115.046 215.703 115.449C215.983 115.853 216.123 116.354 216.123 116.953C216.123 117.539 215.951 118.092 215.605 118.613C215.267 119.128 214.775 119.528 214.131 119.814C213.486 120.094 212.757 120.234 211.943 120.234C210.596 120.234 209.567 119.954 208.857 119.395C208.154 118.835 207.705 118.005 207.51 116.904ZM230.547 118.721C229.896 119.274 229.268 119.665 228.662 119.893C228.063 120.12 227.419 120.234 226.729 120.234C225.589 120.234 224.714 119.958 224.102 119.404C223.49 118.844 223.184 118.132 223.184 117.266C223.184 116.758 223.298 116.296 223.525 115.879C223.76 115.456 224.062 115.117 224.434 114.863C224.811 114.609 225.234 114.417 225.703 114.287C226.048 114.196 226.569 114.108 227.266 114.023C228.685 113.854 229.73 113.652 230.4 113.418C230.407 113.177 230.41 113.024 230.41 112.959C230.41 112.243 230.244 111.738 229.912 111.445C229.463 111.048 228.796 110.85 227.91 110.85C227.083 110.85 226.471 110.996 226.074 111.289C225.684 111.576 225.394 112.087 225.205 112.822L223.486 112.588C223.643 111.852 223.9 111.26 224.258 110.811C224.616 110.355 225.133 110.007 225.811 109.766C226.488 109.518 227.272 109.395 228.164 109.395C229.049 109.395 229.769 109.499 230.322 109.707C230.876 109.915 231.283 110.179 231.543 110.498C231.803 110.811 231.986 111.208 232.09 111.689C232.148 111.989 232.178 112.529 232.178 113.311V115.654C232.178 117.288 232.214 118.324 232.285 118.76C232.363 119.189 232.513 119.603 232.734 120H230.898C230.716 119.635 230.599 119.209 230.547 118.721ZM230.4 114.795C229.762 115.055 228.805 115.277 227.529 115.459C226.807 115.563 226.296 115.68 225.996 115.811C225.697 115.941 225.465 116.133 225.303 116.387C225.14 116.634 225.059 116.911 225.059 117.217C225.059 117.686 225.234 118.076 225.586 118.389C225.944 118.701 226.465 118.857 227.148 118.857C227.826 118.857 228.428 118.711 228.955 118.418C229.482 118.118 229.87 117.712 230.117 117.197C230.306 116.8 230.4 116.214 230.4 115.439V114.795ZM234.912 120V109.629H236.494V111.104C237.256 109.964 238.356 109.395 239.795 109.395C240.42 109.395 240.993 109.508 241.514 109.736C242.041 109.958 242.435 110.251 242.695 110.615C242.956 110.98 243.138 111.413 243.242 111.914C243.307 112.24 243.34 112.809 243.34 113.623V120H241.582V113.691C241.582 112.975 241.514 112.441 241.377 112.09C241.24 111.732 240.996 111.449 240.645 111.24C240.299 111.025 239.893 110.918 239.424 110.918C238.675 110.918 238.027 111.156 237.48 111.631C236.94 112.106 236.67 113.008 236.67 114.336V120H234.912ZM252.773 120V118.691C252.116 119.72 251.149 120.234 249.873 120.234C249.046 120.234 248.285 120.007 247.588 119.551C246.898 119.095 246.361 118.46 245.977 117.646C245.599 116.826 245.41 115.885 245.41 114.824C245.41 113.789 245.583 112.852 245.928 112.012C246.273 111.165 246.79 110.518 247.48 110.068C248.171 109.619 248.942 109.395 249.795 109.395C250.42 109.395 250.977 109.528 251.465 109.795C251.953 110.055 252.35 110.397 252.656 110.82V105.684H254.404V120H252.773ZM247.217 114.824C247.217 116.152 247.497 117.145 248.057 117.803C248.617 118.46 249.277 118.789 250.039 118.789C250.807 118.789 251.458 118.477 251.992 117.852C252.533 117.22 252.803 116.26 252.803 114.971C252.803 113.551 252.529 112.51 251.982 111.846C251.436 111.182 250.762 110.85 249.961 110.85C249.18 110.85 248.525 111.169 247.998 111.807C247.477 112.445 247.217 113.451 247.217 114.824ZM263.066 120V105.684H272.725V107.373H264.961V111.807H271.68V113.496H264.961V120H263.066ZM274.98 107.705V105.684H276.738V107.705H274.98ZM274.98 120V109.629H276.738V120H274.98ZM279.385 120V105.684H281.143V120H279.385ZM290.977 116.66L292.793 116.885C292.507 117.946 291.976 118.77 291.201 119.355C290.426 119.941 289.437 120.234 288.232 120.234C286.715 120.234 285.511 119.769 284.619 118.838C283.734 117.9 283.291 116.589 283.291 114.902C283.291 113.158 283.74 111.803 284.639 110.84C285.537 109.876 286.702 109.395 288.135 109.395C289.521 109.395 290.654 109.867 291.533 110.811C292.412 111.755 292.852 113.083 292.852 114.795C292.852 114.899 292.848 115.055 292.842 115.264H285.107C285.173 116.403 285.495 117.275 286.074 117.881C286.654 118.486 287.376 118.789 288.242 118.789C288.887 118.789 289.437 118.62 289.893 118.281C290.348 117.943 290.71 117.402 290.977 116.66ZM285.205 113.818H290.996C290.918 112.946 290.697 112.292 290.332 111.855C289.772 111.178 289.046 110.84 288.154 110.84C287.347 110.84 286.667 111.11 286.113 111.65C285.566 112.191 285.264 112.913 285.205 113.818ZM300.742 120V105.684H303.594L306.982 115.82C307.295 116.764 307.523 117.471 307.666 117.939C307.829 117.419 308.083 116.654 308.428 115.645L311.855 105.684H314.404V120H312.578V108.018L308.418 120H306.709L302.568 107.812V120H300.742ZM324.004 118.721C323.353 119.274 322.725 119.665 322.119 119.893C321.52 120.12 320.876 120.234 320.186 120.234C319.046 120.234 318.171 119.958 317.559 119.404C316.947 118.844 316.641 118.132 316.641 117.266C316.641 116.758 316.755 116.296 316.982 115.879C317.217 115.456 317.52 115.117 317.891 114.863C318.268 114.609 318.691 114.417 319.16 114.287C319.505 114.196 320.026 114.108 320.723 114.023C322.142 113.854 323.187 113.652 323.857 113.418C323.864 113.177 323.867 113.024 323.867 112.959C323.867 112.243 323.701 111.738 323.369 111.445C322.92 111.048 322.253 110.85 321.367 110.85C320.54 110.85 319.928 110.996 319.531 111.289C319.141 111.576 318.851 112.087 318.662 112.822L316.943 112.588C317.1 111.852 317.357 111.26 317.715 110.811C318.073 110.355 318.59 110.007 319.268 109.766C319.945 109.518 320.729 109.395 321.621 109.395C322.507 109.395 323.226 109.499 323.779 109.707C324.333 109.915 324.74 110.179 325 110.498C325.26 110.811 325.443 111.208 325.547 111.689C325.605 111.989 325.635 112.529 325.635 113.311V115.654C325.635 117.288 325.671 118.324 325.742 118.76C325.82 119.189 325.97 119.603 326.191 120H324.355C324.173 119.635 324.056 119.209 324.004 118.721ZM323.857 114.795C323.219 115.055 322.262 115.277 320.986 115.459C320.264 115.563 319.753 115.68 319.453 115.811C319.154 115.941 318.923 116.133 318.76 116.387C318.597 116.634 318.516 116.911 318.516 117.217C318.516 117.686 318.691 118.076 319.043 118.389C319.401 118.701 319.922 118.857 320.605 118.857C321.283 118.857 321.885 118.711 322.412 118.418C322.939 118.118 323.327 117.712 323.574 117.197C323.763 116.8 323.857 116.214 323.857 115.439V114.795ZM328.369 120V109.629H329.951V111.104C330.713 109.964 331.813 109.395 333.252 109.395C333.877 109.395 334.45 109.508 334.971 109.736C335.498 109.958 335.892 110.251 336.152 110.615C336.413 110.98 336.595 111.413 336.699 111.914C336.764 112.24 336.797 112.809 336.797 113.623V120H335.039V113.691C335.039 112.975 334.971 112.441 334.834 112.09C334.697 111.732 334.453 111.449 334.102 111.24C333.757 111.025 333.35 110.918 332.881 110.918C332.132 110.918 331.484 111.156 330.938 111.631C330.397 112.106 330.127 113.008 330.127 114.336V120H328.369ZM346.27 118.721C345.618 119.274 344.99 119.665 344.385 119.893C343.786 120.12 343.141 120.234 342.451 120.234C341.312 120.234 340.436 119.958 339.824 119.404C339.212 118.844 338.906 118.132 338.906 117.266C338.906 116.758 339.02 116.296 339.248 115.879C339.482 115.456 339.785 115.117 340.156 114.863C340.534 114.609 340.957 114.417 341.426 114.287C341.771 114.196 342.292 114.108 342.988 114.023C344.408 113.854 345.452 113.652 346.123 113.418C346.13 113.177 346.133 113.024 346.133 112.959C346.133 112.243 345.967 111.738 345.635 111.445C345.186 111.048 344.518 110.85 343.633 110.85C342.806 110.85 342.194 110.996 341.797 111.289C341.406 111.576 341.117 112.087 340.928 112.822L339.209 112.588C339.365 111.852 339.622 111.26 339.98 110.811C340.339 110.355 340.856 110.007 341.533 109.766C342.21 109.518 342.995 109.395 343.887 109.395C344.772 109.395 345.492 109.499 346.045 109.707C346.598 109.915 347.005 110.179 347.266 110.498C347.526 110.811 347.708 111.208 347.812 111.689C347.871 111.989 347.9 112.529 347.9 113.311V115.654C347.9 117.288 347.936 118.324 348.008 118.76C348.086 119.189 348.236 119.603 348.457 120H346.621C346.439 119.635 346.322 119.209 346.27 118.721ZM346.123 114.795C345.485 115.055 344.528 115.277 343.252 115.459C342.529 115.563 342.018 115.68 341.719 115.811C341.419 115.941 341.188 116.133 341.025 116.387C340.863 116.634 340.781 116.911 340.781 117.217C340.781 117.686 340.957 118.076 341.309 118.389C341.667 118.701 342.188 118.857 342.871 118.857C343.548 118.857 344.15 118.711 344.678 118.418C345.205 118.118 345.592 117.712 345.84 117.197C346.029 116.8 346.123 116.214 346.123 115.439V114.795ZM350.312 120.859L352.021 121.113C352.093 121.641 352.292 122.025 352.617 122.266C353.053 122.591 353.649 122.754 354.404 122.754C355.218 122.754 355.846 122.591 356.289 122.266C356.732 121.94 357.031 121.484 357.188 120.898C357.279 120.54 357.321 119.788 357.314 118.643C356.546 119.548 355.589 120 354.443 120C353.018 120 351.914 119.486 351.133 118.457C350.352 117.428 349.961 116.195 349.961 114.756C349.961 113.766 350.14 112.855 350.498 112.021C350.856 111.182 351.374 110.534 352.051 110.078C352.734 109.622 353.535 109.395 354.453 109.395C355.677 109.395 356.686 109.889 357.48 110.879V109.629H359.102V118.594C359.102 120.208 358.936 121.351 358.604 122.021C358.278 122.699 357.757 123.232 357.041 123.623C356.331 124.014 355.456 124.209 354.414 124.209C353.177 124.209 352.178 123.929 351.416 123.369C350.654 122.816 350.286 121.979 350.312 120.859ZM351.768 114.629C351.768 115.99 352.038 116.982 352.578 117.607C353.118 118.232 353.796 118.545 354.609 118.545C355.417 118.545 356.094 118.236 356.641 117.617C357.188 116.992 357.461 116.016 357.461 114.688C357.461 113.418 357.178 112.461 356.611 111.816C356.051 111.172 355.374 110.85 354.58 110.85C353.799 110.85 353.135 111.169 352.588 111.807C352.041 112.438 351.768 113.379 351.768 114.629ZM368.867 116.66L370.684 116.885C370.397 117.946 369.867 118.77 369.092 119.355C368.317 119.941 367.327 120.234 366.123 120.234C364.606 120.234 363.402 119.769 362.51 118.838C361.624 117.9 361.182 116.589 361.182 114.902C361.182 113.158 361.631 111.803 362.529 110.84C363.428 109.876 364.593 109.395 366.025 109.395C367.412 109.395 368.545 109.867 369.424 110.811C370.303 111.755 370.742 113.083 370.742 114.795C370.742 114.899 370.739 115.055 370.732 115.264H362.998C363.063 116.403 363.385 117.275 363.965 117.881C364.544 118.486 365.267 118.789 366.133 118.789C366.777 118.789 367.327 118.62 367.783 118.281C368.239 117.943 368.6 117.402 368.867 116.66ZM363.096 113.818H368.887C368.809 112.946 368.587 112.292 368.223 111.855C367.663 111.178 366.937 110.84 366.045 110.84C365.238 110.84 364.557 111.11 364.004 111.65C363.457 112.191 363.154 112.913 363.096 113.818ZM372.9 120V109.629H374.473V111.084C374.798 110.576 375.231 110.169 375.771 109.863C376.312 109.551 376.927 109.395 377.617 109.395C378.385 109.395 379.014 109.554 379.502 109.873C379.997 110.192 380.345 110.638 380.547 111.211C381.367 110 382.435 109.395 383.75 109.395C384.779 109.395 385.57 109.681 386.123 110.254C386.676 110.82 386.953 111.696 386.953 112.881V120H385.205V113.467C385.205 112.764 385.146 112.259 385.029 111.953C384.919 111.641 384.714 111.39 384.414 111.201C384.115 111.012 383.763 110.918 383.359 110.918C382.63 110.918 382.025 111.162 381.543 111.65C381.061 112.132 380.82 112.907 380.82 113.975V120H379.062V113.262C379.062 112.48 378.919 111.895 378.633 111.504C378.346 111.113 377.878 110.918 377.227 110.918C376.732 110.918 376.273 111.048 375.85 111.309C375.433 111.569 375.13 111.95 374.941 112.451C374.753 112.952 374.658 113.675 374.658 114.619V120H372.9ZM396.66 116.66L398.477 116.885C398.19 117.946 397.66 118.77 396.885 119.355C396.11 119.941 395.12 120.234 393.916 120.234C392.399 120.234 391.195 119.769 390.303 118.838C389.417 117.9 388.975 116.589 388.975 114.902C388.975 113.158 389.424 111.803 390.322 110.84C391.221 109.876 392.386 109.395 393.818 109.395C395.205 109.395 396.338 109.867 397.217 110.811C398.096 111.755 398.535 113.083 398.535 114.795C398.535 114.899 398.532 115.055 398.525 115.264H390.791C390.856 116.403 391.178 117.275 391.758 117.881C392.337 118.486 393.06 118.789 393.926 118.789C394.57 118.789 395.12 118.62 395.576 118.281C396.032 117.943 396.393 117.402 396.66 116.66ZM390.889 113.818H396.68C396.602 112.946 396.38 112.292 396.016 111.855C395.456 111.178 394.73 110.84 393.838 110.84C393.031 110.84 392.35 111.11 391.797 111.65C391.25 112.191 390.947 112.913 390.889 113.818ZM400.693 120V109.629H402.275V111.104C403.037 109.964 404.137 109.395 405.576 109.395C406.201 109.395 406.774 109.508 407.295 109.736C407.822 109.958 408.216 110.251 408.477 110.615C408.737 110.98 408.919 111.413 409.023 111.914C409.089 112.24 409.121 112.809 409.121 113.623V120H407.363V113.691C407.363 112.975 407.295 112.441 407.158 112.09C407.021 111.732 406.777 111.449 406.426 111.24C406.081 111.025 405.674 110.918 405.205 110.918C404.456 110.918 403.809 111.156 403.262 111.631C402.721 112.106 402.451 113.008 402.451 114.336V120H400.693ZM415.664 118.428L415.918 119.98C415.423 120.085 414.98 120.137 414.59 120.137C413.952 120.137 413.457 120.036 413.105 119.834C412.754 119.632 412.507 119.368 412.363 119.043C412.22 118.711 412.148 118.018 412.148 116.963V110.996H410.859V109.629H412.148V107.061L413.896 106.006V109.629H415.664V110.996H413.896V117.061C413.896 117.562 413.926 117.884 413.984 118.027C414.049 118.171 414.15 118.285 414.287 118.369C414.43 118.454 414.632 118.496 414.893 118.496C415.088 118.496 415.345 118.473 415.664 118.428Z" fill="#8E8A8A"/>
</svg>
