<svg width="12" height="16" viewBox="0 0 12 16" fill="none" xmlns="http://www.w3.org/2000/svg">
<path d="M6 12.1905C6.39782 12.1905 6.77936 12.0299 7.06066 11.7442C7.34196 11.4584 7.5 11.0708 7.5 10.6667C7.5 10.2625 7.34196 9.87494 7.06066 9.58917C6.77936 9.3034 6.39782 9.14286 6 9.14286C5.60218 9.14286 5.22064 9.3034 4.93934 9.58917C4.65804 9.87494 4.5 10.2625 4.5 10.6667C4.5 11.0708 4.65804 11.4584 4.93934 11.7442C5.22064 12.0299 5.60218 12.1905 6 12.1905ZM10.5 5.33333C10.8978 5.33333 11.2794 5.49388 11.5607 5.77965C11.842 6.06542 12 6.453 12 6.85714V14.4762C12 14.8803 11.842 15.2679 11.5607 15.5537C11.2794 15.8395 10.8978 16 10.5 16H1.5C1.10218 16 0.720644 15.8395 0.43934 15.5537C0.158035 15.2679 0 14.8803 0 14.4762V6.85714C0 6.453 0.158035 6.06542 0.43934 5.77965C0.720644 5.49388 1.10218 5.33333 1.5 5.33333H2.25V3.80952C2.25 2.79918 2.64509 1.83021 3.34835 1.11578C4.05161 0.401359 5.00544 0 6 0C6.49246 0 6.98009 0.0985363 7.43506 0.289983C7.89003 0.481429 8.30343 0.762037 8.65165 1.11578C8.99987 1.46953 9.27609 1.88949 9.46455 2.35168C9.653 2.81387 9.75 3.30925 9.75 3.80952V5.33333H10.5ZM6 1.52381C5.40326 1.52381 4.83097 1.76463 4.40901 2.19328C3.98705 2.62193 3.75 3.20331 3.75 3.80952V5.33333H8.25V3.80952C8.25 3.20331 8.01295 2.62193 7.59099 2.19328C7.16903 1.76463 6.59674 1.52381 6 1.52381Z" fill="#666565"/>
</svg>
