<svg width="22" height="16" viewBox="0 0 22 16" fill="none" xmlns="http://www.w3.org/2000/svg">
<path fill-rule="evenodd" clip-rule="evenodd" d="M21.2832 0.492899C21.5893 0.808239 21.7613 1.23587 21.7613 1.68176C21.7613 2.12765 21.5893 2.55529 21.2832 2.87063L9.04341 15.4745C8.88165 15.6411 8.68962 15.7733 8.47826 15.8634C8.2669 15.9536 8.04037 16 7.81159 16C7.58281 16 7.35628 15.9536 7.14492 15.8634C6.93356 15.7733 6.74152 15.6411 6.57977 15.4745L0.498532 9.21348C0.342565 9.05836 0.21816 8.87281 0.132577 8.66766C0.0469939 8.4625 0.00194582 8.24184 6.1656e-05 8.01857C-0.00182251 7.79529 0.039495 7.57386 0.121603 7.36721C0.203711 7.16055 0.324965 6.9728 0.478291 6.81491C0.631616 6.65702 0.813942 6.53216 1.01463 6.44761C1.21532 6.36306 1.43035 6.32052 1.64718 6.32246C1.864 6.3244 2.07828 6.37078 2.27751 6.45891C2.47675 6.54704 2.65694 6.67515 2.80757 6.83575L7.81104 11.9881L18.9731 0.492899C19.1247 0.336638 19.3048 0.212678 19.503 0.128104C19.7012 0.0435305 19.9136 0 20.1281 0C20.3427 0 20.5551 0.0435305 20.7533 0.128104C20.9515 0.212678 21.1315 0.336638 21.2832 0.492899Z" fill="#03A042"/>
</svg>
