<svg width="18" height="18" viewBox="0 0 18 18" fill="none" xmlns="http://www.w3.org/2000/svg">
<path d="M6.92313 11.5C8.24484 11.5 9.37959 11.0039 10.2992 10.0316C11.218 9.06008 11.6766 7.87279 11.6759 6.49975C11.6752 5.12709 11.2168 3.94036 10.2994 2.96957C9.38087 1.99768 8.24619 1.50149 6.92369 1.5C5.60027 1.49851 4.46521 1.99516 3.54719 2.97026C2.63124 3.94316 2.17246 5.12924 2.17038 6.49924C2.16831 7.87042 2.62757 9.05765 3.54785 10.0314C4.46885 11.006 5.60321 11.5027 6.92313 11.5ZM6.92313 11.5V11L6.92426 11.5C6.92388 11.5 6.92351 11.5 6.92313 11.5ZM16.4682 17.272L10.8777 11.3566L10.5526 11.0125L10.1913 11.3184C9.76464 11.6795 9.27112 11.9681 8.70657 12.1826C8.15206 12.3932 7.55886 12.5 6.92313 12.5C5.34515 12.5 4.02336 11.9283 2.92802 10.7687C1.83139 9.60766 1.28086 8.19509 1.28027 6.49983C1.27969 4.80483 1.83011 3.39247 2.92784 2.23153C4.02458 1.07164 5.34651 0.5 6.92313 0.5C8.49976 0.5 9.82206 1.07165 10.9195 2.23162C12.0177 3.39249 12.5678 4.80468 12.566 6.49948V6.5C12.566 7.18245 12.4635 7.81954 12.2617 8.41437C12.0568 9.0185 11.7814 9.54499 11.4386 9.99846L11.1834 10.3359L11.474 10.6434L17.1033 16.6L16.4682 17.272Z" fill="#938C8C" stroke="black"/>
</svg>
