<svg width="25" height="25" viewBox="0 0 25 25" fill="none" xmlns="http://www.w3.org/2000/svg">
<path d="M22.9167 20.7583H2.08333C0.934375 20.7583 0 19.7783 0 18.5733V2.18509C0 0.980012 0.934375 0 2.08333 0H22.9167C24.0656 0 25 0.980012 25 2.18509V18.5733C25 19.7783 24.0656 20.7583 22.9167 20.7583ZM2.08333 1.09254C1.50885 1.09254 1.04167 1.58255 1.04167 2.18509V18.5733C1.04167 19.1758 1.50885 19.6658 2.08333 19.6658H22.9167C23.4911 19.6658 23.9583 19.1758 23.9583 18.5733V2.18509C23.9583 1.58255 23.4911 1.09254 22.9167 1.09254H2.08333Z" fill="black"/>
<path d="M19.7936 24.0379H5.21029C4.92279 24.0379 4.68945 23.7931 4.68945 23.4916C4.68945 23.19 4.92279 22.9453 5.21029 22.9453H19.7936C20.0811 22.9453 20.3145 23.19 20.3145 23.4916C20.3145 23.7931 20.0811 24.0379 19.7936 24.0379Z" fill="black"/>
<path d="M16.1549 24.0343C16.1513 24.0343 16.1482 24.0343 16.1445 24.0343H8.85281C8.68563 24.0343 8.52833 23.9502 8.43042 23.807C8.3325 23.6645 8.30594 23.4815 8.35854 23.3149L9.40021 20.0372C9.47156 19.8143 9.67 19.6641 9.89448 19.6641H15.1028C15.3273 19.6641 15.5258 19.8143 15.5971 20.0378L16.6075 23.2176C16.6508 23.2974 16.6758 23.3897 16.6758 23.488C16.6758 23.7896 16.4424 24.0343 16.1549 24.0343ZM9.57521 22.9417H15.4221L14.7278 20.7567H10.27L9.57521 22.9417Z" fill="black"/>
<path d="M22.9174 16.3905H2.08398V2.1875H22.9174V16.3905ZM3.12565 15.298H21.8757V3.28004H3.12565V15.298Z" fill="black"/>
<path d="M12.5007 19.1187C13.076 19.1187 13.5424 18.6295 13.5424 18.0261C13.5424 17.4227 13.076 16.9336 12.5007 16.9336C11.9254 16.9336 11.459 17.4227 11.459 18.0261C11.459 18.6295 11.9254 19.1187 12.5007 19.1187Z" fill="black"/>
<path d="M12.8969 6.58203C12.7133 6.58203 12.5339 6.63247 12.3812 6.72699C12.2286 6.8215 12.1097 6.95584 12.0394 7.11301C11.9692 7.27018 11.9508 7.44313 11.9866 7.60998C12.0224 7.77683 12.1108 7.93009 12.2406 8.05038C12.3704 8.17068 12.5358 8.2526 12.7158 8.28579C12.8959 8.31898 13.0825 8.30194 13.2521 8.23684C13.4217 8.17174 13.5666 8.06149 13.6686 7.92004C13.7706 7.77859 13.825 7.61229 13.825 7.44217C13.825 7.21405 13.7273 6.99527 13.5532 6.83396C13.3791 6.67265 13.1431 6.58203 12.8969 6.58203ZM12.8969 7.87224C12.8051 7.87224 12.7154 7.84702 12.6391 7.79976C12.5628 7.75251 12.5033 7.68534 12.4681 7.60675C12.433 7.52817 12.4238 7.44169 12.4417 7.35827C12.4596 7.27484 12.5038 7.19821 12.5687 7.13807C12.6336 7.07792 12.7163 7.03696 12.8064 7.02036C12.8964 7.00377 12.9897 7.01229 13.0745 7.04484C13.1593 7.07739 13.2318 7.13251 13.2828 7.20324C13.3338 7.27396 13.361 7.35711 13.361 7.44217C13.361 7.55623 13.3121 7.66562 13.225 7.74628C13.138 7.82693 13.02 7.87224 12.8969 7.87224Z" fill="black"/>
<path d="M15.5819 7.93477L15.2617 7.76489C15.2983 7.5512 15.2983 7.33348 15.2617 7.11979L15.5819 6.94991C15.6575 6.90958 15.7238 6.85583 15.777 6.79173C15.8302 6.72763 15.8692 6.65443 15.8919 6.57634C15.9145 6.49824 15.9203 6.41678 15.9089 6.33661C15.8975 6.25643 15.8692 6.17913 15.8255 6.10912L15.6097 5.76291C15.5191 5.62404 15.3732 5.5237 15.2035 5.48349C15.0339 5.44327 14.8539 5.46639 14.7025 5.54787L14.3822 5.7199C14.1993 5.58335 13.9951 5.47316 13.7766 5.39305V5.03824C13.7748 4.87625 13.7041 4.72147 13.5798 4.60753C13.4556 4.49359 13.2878 4.42968 13.113 4.42969H12.6814C12.5054 4.42969 12.3366 4.49448 12.2122 4.60982C12.0877 4.72515 12.0178 4.88158 12.0178 5.04469V5.378C11.7993 5.45811 11.5952 5.5683 11.4122 5.70485L11.092 5.53282C10.9408 5.4502 10.7605 5.42644 10.5904 5.46674C10.4204 5.50704 10.2745 5.60812 10.1847 5.74786L9.96895 6.10482C9.88103 6.24519 9.85608 6.41193 9.89947 6.56918C9.94287 6.72642 10.0511 6.86159 10.2009 6.94561L10.5212 7.11548C10.4845 7.32918 10.4845 7.5469 10.5212 7.76059L10.2009 7.93047C10.0502 8.0137 9.94113 8.14889 9.89764 8.30647C9.85416 8.46404 9.8798 8.63116 9.96895 8.77126L10.1847 9.11747C10.2735 9.25816 10.4185 9.36076 10.5883 9.40303C10.7581 9.44529 10.9391 9.42382 11.092 9.34326L11.4122 9.17123C11.5952 9.30778 11.7993 9.41797 12.0178 9.49808V9.83784C12.0184 10.0006 12.0886 10.1565 12.213 10.2713C12.3374 10.3862 12.5058 10.4507 12.6814 10.4507H13.113C13.289 10.4507 13.4578 10.3859 13.5823 10.2706C13.7067 10.1552 13.7766 9.9988 13.7766 9.83569V9.50238C13.9951 9.42227 14.1993 9.31208 14.3822 9.17553L14.7025 9.34756C14.778 9.38802 14.8614 9.41427 14.9479 9.42482C15.0344 9.43537 15.1223 9.43001 15.2066 9.40903C15.2909 9.38806 15.3699 9.35189 15.439 9.3026C15.5082 9.25331 15.5662 9.19186 15.6097 9.12177L15.8255 8.77556C15.9124 8.6339 15.9356 8.46619 15.89 8.3088C15.8444 8.15141 15.7337 8.01702 15.5819 7.93477ZM15.4218 8.56053L15.2176 8.90673C15.1913 8.94912 15.148 8.98015 15.0972 8.99305C15.0463 9.00594 14.992 8.99965 14.9461 8.97554L14.3358 8.64869L14.2105 8.75406C14.0031 8.93218 13.756 9.0658 13.4866 9.14542L13.3242 9.19273V9.83784C13.3242 9.88689 13.3031 9.93392 13.2657 9.9686C13.2283 10.0033 13.1775 10.0228 13.1246 10.0228H12.6814C12.6285 10.0228 12.5777 10.0033 12.5403 9.9686C12.5029 9.93392 12.4819 9.88689 12.4819 9.83784V9.19273L12.3194 9.14542C12.05 9.0658 11.8029 8.93218 11.5955 8.75406L11.4702 8.64869L10.8599 8.97554C10.814 8.99927 10.7599 9.00544 10.7091 8.99275C10.6838 8.98665 10.6601 8.97589 10.6393 8.96111C10.6186 8.94633 10.6013 8.92784 10.5884 8.90673L10.3727 8.56053C10.3582 8.53925 10.3486 8.51547 10.3444 8.49064C10.3402 8.46581 10.3415 8.44044 10.3482 8.41609C10.3549 8.39173 10.367 8.36891 10.3835 8.34901C10.4001 8.3291 10.4209 8.31254 10.4446 8.30033L11.0525 7.97563L11.0154 7.8208C10.9852 7.69366 10.9696 7.56392 10.969 7.43374C10.9694 7.30342 10.9857 7.17357 11.0177 7.04667L11.0525 6.89185L10.4446 6.58005C10.4218 6.56782 10.4019 6.55154 10.3859 6.53214C10.37 6.51275 10.3583 6.49062 10.3517 6.46704C10.345 6.44346 10.3434 6.41888 10.347 6.39473C10.3506 6.37058 10.3593 6.34732 10.3727 6.3263L10.5884 5.9801C10.6147 5.93771 10.658 5.90667 10.7089 5.89378C10.7597 5.88089 10.8141 5.88718 10.8599 5.91128L11.4702 6.23814L11.5955 6.13277C11.8029 5.95465 12.05 5.82103 12.3194 5.74141L12.4819 5.6941V5.04899C12.4812 5.02435 12.486 4.99983 12.4957 4.9769C12.5055 4.95396 12.5201 4.93307 12.5386 4.91544C12.5572 4.89781 12.5794 4.8838 12.604 4.87424C12.6285 4.86467 12.6548 4.85975 12.6814 4.85976H13.113C13.1659 4.85976 13.2167 4.87924 13.2541 4.91392C13.2915 4.94861 13.3126 4.99564 13.3126 5.04469V5.6898L13.475 5.73711C13.7444 5.81673 13.9915 5.95035 14.1989 6.12847L14.3242 6.23384L14.9345 5.90698C14.9804 5.88326 15.0345 5.87709 15.0853 5.88978C15.1106 5.89588 15.1344 5.90664 15.1551 5.92142C15.1758 5.9362 15.1931 5.95469 15.206 5.9758L15.4218 6.322C15.4358 6.34319 15.4452 6.3668 15.4492 6.39141C15.4532 6.41601 15.4518 6.44111 15.445 6.46521C15.4383 6.4893 15.4264 6.51189 15.4101 6.53162C15.3937 6.55136 15.3732 6.56783 15.3498 6.58005L14.7535 6.8983L14.7906 7.05312C14.8208 7.18026 14.8364 7.31001 14.837 7.44019C14.8367 7.5705 14.8203 7.70036 14.7883 7.82725L14.7535 7.98208L15.3498 8.30033C15.3735 8.31254 15.3943 8.3291 15.4109 8.34901C15.4275 8.36891 15.4395 8.39173 15.4462 8.41609C15.453 8.44044 15.4543 8.46581 15.4501 8.49064C15.4458 8.51547 15.4362 8.53925 15.4218 8.56053Z" fill="black"/>
<path d="M9.88564 10.8018C9.77458 10.8408 9.67851 10.9095 9.60956 10.9991C9.54062 11.0888 9.50191 11.1953 9.49832 11.3054C9.49473 11.4154 9.52643 11.5239 9.58941 11.6173C9.65239 11.7106 9.74382 11.7845 9.85213 11.8297C9.96045 11.8749 10.0808 11.8893 10.1979 11.8711C10.3151 11.8529 10.4237 11.8029 10.5102 11.7274C10.5967 11.652 10.6571 11.5545 10.6838 11.4472C10.7105 11.3399 10.7022 11.2277 10.6601 11.1248C10.6036 10.9868 10.4903 10.8752 10.3451 10.8146C10.1998 10.7541 10.0346 10.7494 9.88564 10.8018ZM10.2051 11.5824C10.1495 11.6019 10.089 11.6057 10.0311 11.5933C9.97329 11.581 9.92067 11.553 9.87996 11.5129C9.83926 11.4728 9.81229 11.4225 9.80246 11.3682C9.79264 11.3139 9.80041 11.2582 9.82478 11.208C9.84916 11.1578 9.88904 11.1154 9.9394 11.0862C9.98975 11.0571 10.0483 11.0424 10.1077 11.044C10.167 11.0457 10.2245 11.0636 10.2729 11.0956C10.3212 11.1275 10.3583 11.172 10.3794 11.2235C10.4076 11.2925 10.4051 11.3691 10.3724 11.4364C10.3397 11.5037 10.2795 11.5562 10.2051 11.5824Z" fill="black"/>
<path d="M11.845 11.0512L11.6092 11.0165C11.5784 10.8794 11.5245 10.7477 11.4495 10.6262L11.6011 10.4553C11.6369 10.4148 11.6637 10.3682 11.68 10.3181C11.6963 10.268 11.7018 10.2155 11.6962 10.1634C11.6905 10.1113 11.6739 10.0608 11.6471 10.0147C11.6204 9.96865 11.5841 9.92791 11.5404 9.89483L11.3241 9.73126C11.2349 9.66652 11.1218 9.63683 11.0092 9.64858C10.8965 9.66033 10.7934 9.71258 10.7219 9.79409L10.5708 9.96626C10.4263 9.92255 10.2755 9.8993 10.1235 9.89728L10.0356 9.68262C9.99441 9.58501 9.9133 9.50641 9.80991 9.46389C9.70653 9.42138 9.58921 9.41838 9.48346 9.45556L9.22234 9.54733C9.11586 9.58476 9.02978 9.65985 8.98304 9.75609C8.9363 9.85234 8.93273 9.96185 8.97312 10.0605L9.05564 10.2622C8.94331 10.3571 8.84707 10.4672 8.77016 10.5887L8.53384 10.5527C8.42192 10.5349 8.30694 10.5588 8.21404 10.6194C8.12115 10.6799 8.05792 10.7721 8.03818 10.8757L7.996 11.1376C7.97756 11.2412 8.00376 11.3474 8.06894 11.4333C8.13413 11.5192 8.2331 11.578 8.34456 11.5969L8.58035 11.6316C8.6111 11.7687 8.66501 11.9004 8.74008 12.0219L8.58841 12.1928C8.51779 12.2752 8.48528 12.3802 8.49798 12.4848C8.51069 12.5893 8.56758 12.685 8.6562 12.7508L8.87248 12.9144C8.96101 12.9806 9.07414 13.0119 9.18736 13.0013C9.30058 12.9908 9.40475 12.9393 9.47728 12.8581L9.62842 12.6859C9.77294 12.7296 9.92375 12.7528 10.0758 12.7549L10.1599 12.9604C10.2005 13.0587 10.2816 13.1381 10.3853 13.1812C10.489 13.2242 10.6069 13.2274 10.7131 13.1901L10.9742 13.0983C11.0807 13.0609 11.1668 12.9858 11.2135 12.8895C11.2603 12.7933 11.2638 12.6838 11.2235 12.5851L11.1409 12.3835C11.2533 12.2885 11.3495 12.1785 11.4264 12.0569L11.6627 12.0929C11.7185 12.1013 11.7754 12.0995 11.8304 12.0875C11.8853 12.0755 11.9372 12.0535 11.983 12.0229C12.0288 11.9923 12.0676 11.9536 12.0972 11.9091C12.1269 11.8646 12.1468 11.8151 12.1557 11.7634L12.2006 11.508C12.2181 11.4039 12.1906 11.2975 12.124 11.2119C12.0575 11.1264 11.9572 11.0686 11.845 11.0512ZM11.9031 11.4638L11.8652 11.7167C11.8598 11.7479 11.8413 11.7759 11.8137 11.7945C11.7862 11.8131 11.7517 11.8209 11.718 11.816L11.2679 11.7481L11.2182 11.8384C11.1368 11.9903 11.0203 12.1237 10.8771 12.2292L10.7905 12.2923L10.9502 12.6826C10.9624 12.7123 10.9613 12.7452 10.9473 12.7742C10.9332 12.8031 10.9073 12.8257 10.8753 12.8369L10.6072 12.9312C10.5751 12.9424 10.5396 12.9414 10.5084 12.9284C10.4772 12.9154 10.4528 12.8914 10.4406 12.8617L10.2809 12.4714L10.1709 12.4774C9.98823 12.4865 9.80561 12.4582 9.63603 12.3945L9.53414 12.3574L9.24586 12.6849C9.22394 12.7091 9.19273 12.7243 9.15887 12.7274C9.14204 12.7291 9.12502 12.7276 9.10882 12.7231C9.09262 12.7186 9.07757 12.7111 9.06457 12.701L8.84829 12.5375C8.83428 12.5277 8.82257 12.5153 8.81388 12.5012C8.80519 12.4871 8.79969 12.4714 8.79774 12.4553C8.79578 12.4391 8.7974 12.4227 8.8025 12.4072C8.8076 12.3916 8.81607 12.3772 8.82739 12.3647L9.1148 12.039L9.05401 11.9532C9.00426 11.8827 8.96272 11.8076 8.93009 11.7289C8.89805 11.65 8.87579 11.568 8.86374 11.4844L8.84646 11.3833L8.40146 11.324C8.38466 11.3214 8.36857 11.3158 8.35412 11.3074C8.33967 11.2991 8.32714 11.2882 8.31726 11.2753C8.30737 11.2625 8.30033 11.248 8.29653 11.2326C8.29273 11.2172 8.29225 11.2013 8.29511 11.1857L8.33995 10.9304C8.34534 10.8992 8.36385 10.8712 8.39143 10.8526C8.41902 10.8339 8.45344 10.8262 8.48716 10.831L8.9373 10.899L8.98702 10.8086C9.06839 10.6567 9.18485 10.5234 9.32812 10.4179L9.41467 10.3547L9.25495 9.96445C9.24847 9.94967 9.24525 9.93384 9.24547 9.91789C9.24569 9.90194 9.24935 9.88619 9.25623 9.87157C9.26312 9.85695 9.27309 9.84376 9.28555 9.83276C9.29802 9.82176 9.31273 9.81318 9.32883 9.80753L9.58994 9.71575C9.62196 9.7045 9.65749 9.7055 9.68872 9.71852C9.71995 9.73155 9.74432 9.75553 9.75646 9.78521L9.91618 10.1755L10.0262 10.1696C10.2089 10.1605 10.3915 10.1887 10.5611 10.2524L10.663 10.2895L10.9512 9.96201C10.9732 9.93789 11.0044 9.92265 11.0382 9.91953C11.0551 9.91784 11.0721 9.91931 11.0883 9.92384C11.1045 9.92837 11.1195 9.93588 11.1325 9.94591L11.3488 10.1095C11.3626 10.1193 11.3741 10.1316 11.3826 10.1456C11.3911 10.1597 11.3964 10.1752 11.3983 10.1912C11.4002 10.2072 11.3986 10.2234 11.3936 10.2388C11.3886 10.2542 11.3803 10.2685 11.3692 10.2809L11.0872 10.6002L11.148 10.686C11.1977 10.7565 11.2393 10.8317 11.2719 10.9103C11.3039 10.9892 11.3262 11.0713 11.3382 11.1549L11.3555 11.2559L11.7951 11.3217C11.8125 11.324 11.8291 11.3296 11.8441 11.3381C11.8591 11.3467 11.872 11.3579 11.8821 11.3712C11.8922 11.3845 11.8993 11.3996 11.9029 11.4155C11.9065 11.4314 11.9065 11.4479 11.9031 11.4638Z" fill="black"/>
<path d="M15.0003 10.8052C14.916 10.8428 14.8456 10.9028 14.7981 10.9775C14.7505 11.0522 14.7279 11.1384 14.7332 11.225C14.7385 11.3116 14.7714 11.3948 14.8277 11.4641C14.884 11.5334 14.9612 11.5857 15.0495 11.6143C15.1379 11.6429 15.2334 11.6466 15.3241 11.6249C15.4147 11.6033 15.4963 11.5571 15.5587 11.4925C15.6211 11.4278 15.6613 11.3474 15.6744 11.2615C15.6874 11.1756 15.6727 11.088 15.6321 11.0099C15.5776 10.9051 15.4804 10.8246 15.3619 10.7863C15.2435 10.7479 15.1134 10.7547 15.0003 10.8052ZM15.3085 11.3978C15.2663 11.4167 15.2191 11.4235 15.1727 11.4174C15.1264 11.4114 15.083 11.3927 15.0481 11.3638C15.0132 11.3349 14.9883 11.2971 14.9766 11.2551C14.9649 11.2131 14.9669 11.1688 14.9824 11.1279C14.9978 11.0869 15.026 11.0512 15.0634 11.0251C15.1008 10.999 15.1457 10.9838 15.1924 10.9813C15.2391 10.9789 15.2856 10.9893 15.3259 11.0114C15.3662 11.0334 15.3986 11.066 15.4189 11.1051C15.4462 11.1575 15.4498 11.2178 15.4291 11.2727C15.4084 11.3276 15.365 11.3726 15.3085 11.3978Z" fill="black"/>
<path d="M16.5556 10.8769L16.3679 10.8646C16.3337 10.7589 16.2817 10.6589 16.2138 10.5682L16.3203 10.4245C16.3454 10.3905 16.3631 10.3522 16.3722 10.3118C16.3813 10.2715 16.3817 10.2298 16.3735 10.1893C16.3652 10.1488 16.3484 10.1102 16.3241 10.0757C16.2997 10.0412 16.2682 10.0115 16.2314 9.98834L16.0496 9.87357C15.9748 9.82838 15.8838 9.81221 15.7963 9.82854C15.7087 9.84487 15.6316 9.8924 15.5815 9.9609L15.4755 10.1056C15.3588 10.0804 15.2387 10.0716 15.1192 10.0796L15.0345 9.9167C14.9949 9.84267 14.9255 9.78608 14.8412 9.75922C14.7569 9.73237 14.6646 9.73742 14.5843 9.77328L14.386 9.86182C14.3052 9.89792 14.2431 9.96231 14.2135 10.0408C14.1839 10.1193 14.1891 10.2055 14.2281 10.2804L14.3077 10.4335C14.2265 10.5151 14.159 10.6076 14.1075 10.7079L13.9194 10.6945C13.8302 10.6876 13.7417 10.7137 13.6732 10.7671C13.6047 10.8205 13.5618 10.8968 13.554 10.9794L13.5401 11.1877C13.5332 11.2702 13.5616 11.3519 13.6191 11.4152C13.6766 11.4786 13.7586 11.5184 13.8475 11.5263L14.0352 11.5386C14.0694 11.6443 14.1214 11.7443 14.1892 11.835L14.0827 11.9787C14.0333 12.0479 14.0155 12.1323 14.0332 12.2137C14.0508 12.295 14.1025 12.3665 14.177 12.4125L14.3588 12.5273C14.4331 12.5737 14.5243 12.5911 14.6124 12.5757C14.7005 12.5603 14.7785 12.5133 14.8295 12.4449L14.9355 12.3002C15.0521 12.3254 15.1722 12.3341 15.2917 12.3261L15.3729 12.4822C15.412 12.5568 15.4815 12.614 15.5661 12.6413C15.6507 12.6685 15.7434 12.6636 15.8241 12.6276L16.0224 12.5391C16.1032 12.503 16.1653 12.4386 16.1949 12.3601C16.2245 12.2815 16.2193 12.1953 16.1803 12.1204L16.1007 11.9673C16.1819 11.8857 16.2494 11.7932 16.3008 11.6929L16.489 11.7063C16.5334 11.7094 16.578 11.7043 16.6202 11.6914C16.6625 11.6785 16.7016 11.658 16.7353 11.6311C16.769 11.6042 16.7966 11.5714 16.8166 11.5345C16.8366 11.4977 16.8486 11.4576 16.8519 11.4165L16.8683 11.2132C16.8744 11.1303 16.845 11.0485 16.7864 10.9855C16.7279 10.9226 16.6449 10.8835 16.5556 10.8769ZM16.6315 11.1972L16.6204 11.3981C16.6184 11.423 16.6059 11.4461 16.5857 11.4625C16.5654 11.4788 16.5389 11.4871 16.5121 11.4854L16.1537 11.4605L16.1213 11.5346C16.0686 11.6589 15.9869 11.771 15.8822 11.8628L15.8189 11.9179L15.973 12.2142C15.9847 12.2368 15.9863 12.2627 15.9774 12.2863C15.9685 12.3099 15.9498 12.3293 15.9255 12.3401L15.7219 12.431C15.6976 12.4419 15.6696 12.4433 15.6441 12.4351C15.6187 12.4268 15.5978 12.4095 15.5861 12.387L15.432 12.0907L15.3461 12.1023C15.2033 12.1209 15.0578 12.1103 14.92 12.071L14.8373 12.0483L14.635 12.3236C14.6196 12.3439 14.5962 12.3579 14.5699 12.3624C14.5568 12.3648 14.5433 12.3648 14.5303 12.3622C14.5172 12.3597 14.5049 12.3547 14.4939 12.3477L14.3121 12.2329C14.3004 12.2261 14.2903 12.2172 14.2824 12.2066C14.2745 12.1961 14.2691 12.1841 14.2664 12.1716C14.2636 12.159 14.2637 12.1461 14.2666 12.1335C14.2694 12.121 14.275 12.1091 14.283 12.0986L14.4847 11.8248L14.4307 11.7613C14.3864 11.7091 14.3483 11.6526 14.3169 11.593C14.2859 11.533 14.2624 11.47 14.2468 11.4052L14.2258 11.3269L13.8721 11.3084C13.8587 11.3074 13.8457 11.3041 13.8337 11.2984C13.8218 11.2928 13.8111 11.285 13.8024 11.2755C13.7937 11.2661 13.7871 11.2551 13.783 11.2433C13.7789 11.2315 13.7773 11.219 13.7785 11.2066L13.7949 11.0033C13.7968 10.9784 13.8093 10.9553 13.8296 10.9389C13.8499 10.9226 13.8763 10.9143 13.9032 10.916L14.2616 10.941L14.294 10.8669C14.3467 10.7425 14.4283 10.6304 14.533 10.5386L14.5964 10.4835L14.4423 10.1872C14.4361 10.176 14.4324 10.1638 14.4314 10.1512C14.4304 10.1387 14.4321 10.1261 14.4365 10.1142C14.4408 10.1023 14.4476 10.0913 14.4566 10.0819C14.4656 10.0724 14.4765 10.0648 14.4887 10.0593L14.687 9.97084C14.7113 9.95999 14.7393 9.95853 14.7648 9.96678C14.7902 9.97504 14.8111 9.99233 14.8228 10.0148L14.9769 10.3111L15.0628 10.2996C15.2056 10.2809 15.351 10.2916 15.4889 10.3308L15.5716 10.3535L15.7738 10.0782C15.7893 10.0579 15.8127 10.044 15.839 10.0394C15.8521 10.037 15.8656 10.0371 15.8786 10.0396C15.8917 10.0421 15.904 10.0471 15.915 10.0541L16.0968 10.1689C16.1083 10.1757 16.1183 10.1847 16.126 10.1952C16.1337 10.2056 16.139 10.2175 16.1417 10.2299C16.1444 10.2424 16.1443 10.2552 16.1415 10.2676C16.1387 10.28 16.1332 10.2918 16.1254 10.3022L15.9275 10.5707L15.9815 10.6342C16.0257 10.6864 16.0639 10.7428 16.0953 10.8025C16.1262 10.8624 16.1497 10.9254 16.1653 10.9903L16.1863 11.0686L16.5363 11.0924C16.5501 11.0932 16.5636 11.0965 16.5759 11.1023C16.5883 11.108 16.5993 11.116 16.6082 11.1258C16.6171 11.1356 16.6238 11.147 16.6278 11.1593C16.6318 11.1716 16.633 11.1845 16.6315 11.1972Z" fill="black"/>
</svg>
