<svg width="253" height="161" viewBox="0 0 253 161" fill="none" xmlns="http://www.w3.org/2000/svg">
<g filter="url(#filter0_dd_2401_2925)">
<path d="M28 22C28 16.4772 32.4558 12 37.9787 12C64.1059 12 133.057 12 141.042 12C150.919 12 155.584 34.4555 164.089 34.4555C170.242 34.4555 199.368 34.4555 215.01 34.4555C220.533 34.4555 225 38.9327 225 44.4555V106.161C225 111.684 220.523 116.161 215 116.161H38C32.4771 116.161 28 111.684 28 106.161V22Z" fill="url(#paint0_linear_2401_2925)"/>
</g>
<path d="M35.8217 32.3418L38.6342 32.0684C38.8035 33.0124 39.1453 33.7057 39.6596 34.1484C40.1804 34.5911 40.8803 34.8125 41.7592 34.8125C42.6902 34.8125 43.3901 34.6172 43.8588 34.2266C44.3341 33.8294 44.5717 33.3672 44.5717 32.8398C44.5717 32.5013 44.4708 32.2148 44.269 31.9805C44.0737 31.7396 43.7286 31.5312 43.2338 31.3555C42.8953 31.2383 42.1238 31.0299 40.9194 30.7305C39.3699 30.3464 38.2827 29.8743 37.6577 29.3145C36.7787 28.5267 36.3393 27.5664 36.3393 26.4336C36.3393 25.7044 36.5444 25.0241 36.9545 24.3926C37.3712 23.7546 37.9669 23.2695 38.7416 22.9375C39.5229 22.6055 40.4636 22.4395 41.5639 22.4395C43.3608 22.4395 44.7117 22.8333 45.6166 23.6211C46.5281 24.4089 47.0066 25.4603 47.0522 26.7754L44.1616 26.9023C44.0379 26.1667 43.7709 25.6393 43.3608 25.3203C42.9571 24.9948 42.3484 24.832 41.5346 24.832C40.6948 24.832 40.0372 25.0046 39.562 25.3496C39.256 25.571 39.103 25.8672 39.103 26.2383C39.103 26.5768 39.2462 26.8665 39.5327 27.1074C39.8972 27.4134 40.7827 27.7324 42.1889 28.0645C43.5952 28.3965 44.6336 28.7415 45.3041 29.0996C45.9812 29.4512 46.5086 29.9362 46.8862 30.5547C47.2703 31.1667 47.4623 31.9251 47.4623 32.8301C47.4623 33.6504 47.2345 34.4186 46.7787 35.1348C46.323 35.8509 45.6785 36.3848 44.8452 36.7363C44.0118 37.0814 42.9734 37.2539 41.7299 37.2539C39.92 37.2539 38.53 36.8372 37.56 36.0039C36.5899 35.1641 36.0105 33.9434 35.8217 32.3418ZM48.5756 26.6289H51.4955L53.976 33.9922L56.3979 26.6289H59.2397L55.5776 36.6094L54.9233 38.416C54.6824 39.0215 54.4513 39.4837 54.2299 39.8027C54.0151 40.1217 53.7644 40.3789 53.478 40.5742C53.198 40.776 52.8497 40.9323 52.433 41.043C52.0229 41.1536 51.5574 41.209 51.0366 41.209C50.5092 41.209 49.9916 41.1536 49.4838 41.043L49.2397 38.8945C49.6694 38.9792 50.0567 39.0215 50.4018 39.0215C51.0398 39.0215 51.5118 38.8327 51.8178 38.4551C52.1238 38.084 52.3582 37.6087 52.5209 37.0293L48.5756 26.6289ZM60.0405 34.041L62.7944 33.6211C62.9116 34.1549 63.1492 34.5618 63.5073 34.8418C63.8653 35.1152 64.3666 35.252 65.0112 35.252C65.7208 35.252 66.2547 35.1217 66.6127 34.8613C66.8536 34.679 66.9741 34.4349 66.9741 34.1289C66.9741 33.9206 66.909 33.748 66.7787 33.6113C66.642 33.4811 66.336 33.3607 65.8608 33.25C63.6472 32.7617 62.2442 32.3158 61.6518 31.9121C60.8315 31.3522 60.4213 30.5742 60.4213 29.5781C60.4213 28.6797 60.7761 27.9245 61.4858 27.3125C62.1954 26.7005 63.2957 26.3945 64.7866 26.3945C66.2058 26.3945 67.2605 26.6257 67.9506 27.0879C68.6407 27.5501 69.116 28.2337 69.3764 29.1387L66.7885 29.6172C66.6778 29.2135 66.4662 28.9043 66.1537 28.6895C65.8478 28.4746 65.4083 28.3672 64.8354 28.3672C64.1127 28.3672 63.5952 28.4681 63.2827 28.6699C63.0743 28.8132 62.9702 28.9987 62.9702 29.2266C62.9702 29.4219 63.0613 29.5879 63.2436 29.7246C63.491 29.9069 64.3439 30.1641 65.8022 30.4961C67.267 30.8281 68.2892 31.235 68.8686 31.7168C69.4415 32.2051 69.728 32.8854 69.728 33.7578C69.728 34.7083 69.3308 35.5254 68.5366 36.209C67.7423 36.8926 66.5672 37.2344 65.0112 37.2344C63.5984 37.2344 62.4786 36.9479 61.6518 36.375C60.8315 35.8021 60.2944 35.0241 60.0405 34.041ZM76.8959 26.6289V28.8164H75.0209V32.9961C75.0209 33.8424 75.0372 34.3372 75.0698 34.4805C75.1088 34.6172 75.1902 34.7311 75.3139 34.8223C75.4441 34.9134 75.6004 34.959 75.7827 34.959C76.0366 34.959 76.4044 34.8711 76.8862 34.6953L77.1205 36.8242C76.4825 37.0977 75.7599 37.2344 74.9526 37.2344C74.4578 37.2344 74.0118 37.153 73.6147 36.9902C73.2175 36.821 72.9246 36.6061 72.7358 36.3457C72.5535 36.0788 72.4265 35.7207 72.3549 35.2715C72.2963 34.9525 72.267 34.3079 72.267 33.3379V28.8164H71.0073V26.6289H72.267V24.5684L75.0209 22.9668V26.6289H76.8959ZM84.8061 33.6992L87.5405 34.1582C87.1889 35.1608 86.6323 35.9258 85.8705 36.4531C85.1153 36.974 84.1681 37.2344 83.0287 37.2344C81.2254 37.2344 79.8907 36.6452 79.0248 35.4668C78.3412 34.5228 77.9995 33.3314 77.9995 31.8926C77.9995 30.1738 78.4487 28.8294 79.3471 27.8594C80.2455 26.8828 81.3816 26.3945 82.7553 26.3945C84.2983 26.3945 85.5157 26.9056 86.4077 27.9277C87.2996 28.9434 87.726 30.5026 87.687 32.6055H80.812C80.8315 33.4193 81.0528 34.054 81.476 34.5098C81.8992 34.959 82.4265 35.1836 83.058 35.1836C83.4877 35.1836 83.8491 35.0664 84.142 34.832C84.435 34.5977 84.6564 34.2201 84.8061 33.6992ZM84.9623 30.9258C84.9428 30.1315 84.7377 29.5293 84.3471 29.1191C83.9565 28.7025 83.4812 28.4941 82.9213 28.4941C82.3224 28.4941 81.8276 28.7122 81.437 29.1484C81.0463 29.5846 80.8543 30.1771 80.8608 30.9258H84.9623ZM89.728 26.6289H92.2573V28.0449C93.1622 26.9447 94.2397 26.3945 95.4897 26.3945C96.1537 26.3945 96.7299 26.5312 97.2182 26.8047C97.7065 27.0781 98.1069 27.4915 98.4194 28.0449C98.8751 27.4915 99.3666 27.0781 99.894 26.8047C100.421 26.5312 100.984 26.3945 101.583 26.3945C102.345 26.3945 102.99 26.5508 103.517 26.8633C104.044 27.1693 104.438 27.6217 104.699 28.2207C104.887 28.6634 104.982 29.3796 104.982 30.3691V37H102.238V31.0723C102.238 30.0436 102.143 29.3796 101.955 29.0801C101.701 28.6895 101.31 28.4941 100.783 28.4941C100.399 28.4941 100.037 28.6113 99.6987 28.8457C99.3601 29.0801 99.116 29.4251 98.9662 29.8809C98.8165 30.3301 98.7416 31.043 98.7416 32.0195V37H95.9975V31.3164C95.9975 30.3073 95.9487 29.6562 95.851 29.3633C95.7534 29.0703 95.6004 28.8522 95.392 28.709C95.1902 28.5658 94.9135 28.4941 94.562 28.4941C94.1388 28.4941 93.7579 28.6081 93.4194 28.8359C93.0808 29.0638 92.8367 29.3926 92.687 29.8223C92.5437 30.252 92.4721 30.9648 92.4721 31.9609V37H89.728V26.6289ZM106.759 34.041L109.513 33.6211C109.63 34.1549 109.868 34.5618 110.226 34.8418C110.584 35.1152 111.085 35.252 111.73 35.252C112.44 35.252 112.973 35.1217 113.331 34.8613C113.572 34.679 113.693 34.4349 113.693 34.1289C113.693 33.9206 113.628 33.748 113.497 33.6113C113.361 33.4811 113.055 33.3607 112.58 33.25C110.366 32.7617 108.963 32.3158 108.371 31.9121C107.55 31.3522 107.14 30.5742 107.14 29.5781C107.14 28.6797 107.495 27.9245 108.205 27.3125C108.914 26.7005 110.014 26.3945 111.505 26.3945C112.925 26.3945 113.979 26.6257 114.669 27.0879C115.359 27.5501 115.835 28.2337 116.095 29.1387L113.507 29.6172C113.397 29.2135 113.185 28.9043 112.872 28.6895C112.567 28.4746 112.127 28.3672 111.554 28.3672C110.831 28.3672 110.314 28.4681 110.001 28.6699C109.793 28.8132 109.689 28.9987 109.689 29.2266C109.689 29.4219 109.78 29.5879 109.962 29.7246C110.21 29.9069 111.063 30.1641 112.521 30.4961C113.986 30.8281 115.008 31.235 115.587 31.7168C116.16 32.2051 116.447 32.8854 116.447 33.7578C116.447 34.7083 116.05 35.5254 115.255 36.209C114.461 36.8926 113.286 37.2344 111.73 37.2344C110.317 37.2344 109.197 36.9479 108.371 36.375C107.55 35.8021 107.013 35.0241 106.759 34.041Z" fill="white"/>
<path d="M204.166 95.8713H145.833C142.616 95.8713 140 93.7529 140 91.148V55.7233C140 53.1184 142.616 51 145.833 51H204.166C207.383 51 210 53.1184 210 55.7233V91.148C210 93.7529 207.383 95.8713 204.166 95.8713ZM145.833 53.3616C144.225 53.3616 142.917 54.4208 142.917 55.7233V91.148C142.917 92.4505 144.225 93.5097 145.833 93.5097H204.166C205.775 93.5097 207.083 92.4505 207.083 91.148V55.7233C207.083 54.4208 205.775 53.3616 204.166 53.3616H145.833Z" fill="#869CA7"/>
<path d="M195.416 102.955H154.583C153.778 102.955 153.125 102.426 153.125 101.775C153.125 101.123 153.778 100.594 154.583 100.594H195.416C196.221 100.594 196.875 101.123 196.875 101.775C196.875 102.426 196.221 102.955 195.416 102.955Z" fill="#869CA7"/>
<path d="M185.237 102.957C185.227 102.957 185.218 102.957 185.208 102.957H164.791C164.323 102.957 163.883 102.775 163.609 102.466C163.335 102.158 163.26 101.762 163.408 101.402L166.324 94.3172C166.524 93.8355 167.08 93.5107 167.708 93.5107H182.291C182.92 93.5107 183.476 93.8355 183.675 94.3184L186.504 101.192C186.626 101.364 186.696 101.564 186.696 101.777C186.696 102.428 186.042 102.957 185.237 102.957ZM166.814 100.596H183.185L181.241 95.8724H168.76L166.814 100.596Z" fill="#869CA7"/>
<path d="M204.166 86.426H145.833V55.7246H204.166V86.426ZM148.75 84.0644H201.25V58.0863H148.75V84.0644Z" fill="#869CA7"/>
<path d="M175 92.3278C176.611 92.3278 177.916 91.2704 177.916 89.9661C177.916 88.6618 176.611 87.6045 175 87.6045C173.389 87.6045 172.083 88.6618 172.083 89.9661C172.083 91.2704 173.389 92.3278 175 92.3278Z" fill="#869CA7"/>
<path d="M176.177 65.1475C175.784 65.1475 175.4 65.258 175.073 65.465C174.746 65.6721 174.491 65.9663 174.34 66.3106C174.19 66.6549 174.15 67.0338 174.227 67.3993C174.304 67.7648 174.493 68.1005 174.771 68.3641C175.049 68.6276 175.404 68.807 175.789 68.8797C176.175 68.9524 176.575 68.9151 176.938 68.7725C177.302 68.6299 177.612 68.3884 177.831 68.0785C178.05 67.7687 178.166 67.4044 178.166 67.0317C178.166 66.532 177.957 66.0527 177.584 65.6993C177.211 65.346 176.705 65.1475 176.177 65.1475ZM176.177 67.9738C175.981 67.9738 175.789 67.9186 175.625 67.815C175.462 67.7115 175.334 67.5644 175.259 67.3922C175.184 67.2201 175.164 67.0307 175.202 66.8479C175.241 66.6652 175.335 66.4973 175.474 66.3655C175.613 66.2338 175.791 66.144 175.983 66.1077C176.176 66.0713 176.376 66.09 176.558 66.1613C176.74 66.2326 176.895 66.3534 177.004 66.5083C177.113 66.6632 177.172 66.8454 177.172 67.0317C177.172 67.2816 177.067 67.5212 176.881 67.6979C176.694 67.8746 176.441 67.9738 176.177 67.9738Z" fill="#869CA7"/>
<path d="M181.93 68.1148L181.244 67.7427C181.322 67.2745 181.322 66.7976 181.244 66.3295L181.93 65.9574C182.092 65.869 182.234 65.7513 182.348 65.6108C182.462 65.4704 182.545 65.3101 182.594 65.139C182.642 64.9679 182.655 64.7895 182.63 64.6138C182.606 64.4382 182.545 64.2689 182.452 64.1155L181.989 63.3571C181.795 63.0529 181.483 62.8331 181.119 62.745C180.756 62.6569 180.37 62.7075 180.045 62.886L179.359 63.2629C178.967 62.9638 178.53 62.7224 178.062 62.5469V61.7696C178.058 61.4148 177.906 61.0757 177.64 60.8261C177.374 60.5765 177.014 60.4365 176.64 60.4365H175.715C175.338 60.4365 174.976 60.5785 174.71 60.8311C174.443 61.0838 174.293 61.4264 174.293 61.7838V62.5139C173.825 62.6894 173.388 62.9308 172.996 63.2299L172.309 62.8531C171.986 62.6721 171.599 62.62 171.235 62.7083C170.87 62.7966 170.558 63.018 170.365 63.3241L169.903 64.1061C169.715 64.4136 169.661 64.7789 169.754 65.1233C169.847 65.4678 170.079 65.7639 170.4 65.9479L171.086 66.3201C171.008 66.7882 171.008 67.2651 171.086 67.7333L170.4 68.1054C170.077 68.2877 169.843 68.5839 169.75 68.9291C169.657 69.2742 169.712 69.6403 169.903 69.9472L170.365 70.7056C170.556 71.0138 170.866 71.2386 171.23 71.3312C171.594 71.4238 171.982 71.3767 172.309 71.2003L172.996 70.8234C173.388 71.1225 173.825 71.3639 174.293 71.5394V72.2837C174.294 72.6402 174.445 72.9817 174.711 73.2333C174.978 73.4849 175.339 73.6262 175.715 73.6262H176.64C177.017 73.6262 177.379 73.4843 177.645 73.2316C177.912 72.979 178.062 72.6363 178.062 72.279V71.5488C178.53 71.3733 178.967 71.132 179.359 70.8328L180.045 71.2097C180.207 71.2983 180.386 71.3558 180.571 71.3789C180.757 71.402 180.945 71.3903 181.126 71.3443C181.306 71.2984 181.476 71.2192 181.624 71.1112C181.772 71.0032 181.896 70.8686 181.989 70.7151L182.452 69.9567C182.638 69.6463 182.688 69.2789 182.59 68.9342C182.492 68.5894 182.255 68.295 181.93 68.1148ZM181.587 69.4856L181.149 70.244C181.093 70.3369 181 70.4048 180.891 70.4331C180.782 70.4613 180.666 70.4475 180.568 70.3947L179.26 69.6787L178.991 69.9096C178.547 70.2998 178.017 70.5925 177.44 70.7669L177.092 70.8705V72.2837C177.092 72.3911 177.047 72.4942 176.967 72.5702C176.887 72.6461 176.778 72.6888 176.665 72.6888H175.715C175.602 72.6888 175.493 72.6461 175.413 72.5702C175.333 72.4942 175.288 72.3911 175.288 72.2837V70.8705L174.939 70.7669C174.362 70.5925 173.833 70.2998 173.388 69.9096L173.12 69.6787L171.812 70.3947C171.714 70.4467 171.598 70.4602 171.489 70.4324C171.435 70.4191 171.384 70.3955 171.34 70.3631C171.295 70.3307 171.258 70.2902 171.231 70.244L170.768 69.4856C170.737 69.439 170.717 69.3869 170.708 69.3325C170.699 69.2781 170.701 69.2225 170.716 69.1692C170.73 69.1158 170.756 69.0658 170.791 69.0222C170.827 68.9786 170.871 68.9424 170.922 68.9156L172.225 68.2043L172.145 67.8651C172.081 67.5866 172.047 67.3024 172.046 67.0172C172.047 66.7318 172.082 66.4473 172.15 66.1693L172.225 65.8302L170.922 65.1471C170.874 65.1203 170.831 65.0847 170.797 65.0422C170.762 64.9997 170.738 64.9512 170.723 64.8996C170.709 64.8479 170.705 64.7941 170.713 64.7412C170.721 64.6883 170.74 64.6373 170.768 64.5913L171.231 63.8329C171.287 63.74 171.38 63.672 171.489 63.6438C171.598 63.6155 171.714 63.6293 171.812 63.6821L173.12 64.3981L173.388 64.1673C173.833 63.7771 174.362 63.4844 174.939 63.31L175.288 63.2064V61.7932C175.286 61.7392 175.296 61.6855 175.317 61.6353C175.338 61.585 175.369 61.5392 175.409 61.5006C175.449 61.462 175.497 61.4313 175.549 61.4104C175.602 61.3894 175.658 61.3786 175.715 61.3786H176.64C176.753 61.3786 176.862 61.4213 176.942 61.4973C177.022 61.5733 177.067 61.6763 177.067 61.7838V63.1969L177.415 63.3006C177.993 63.475 178.522 63.7677 178.967 64.1579L179.235 64.3887L180.543 63.6727C180.641 63.6207 180.757 63.6072 180.866 63.635C180.92 63.6484 180.971 63.672 181.015 63.7043C181.06 63.7367 181.097 63.7772 181.124 63.8234L181.587 64.5819C181.617 64.6283 181.637 64.68 181.645 64.7339C181.654 64.7878 181.651 64.8428 181.637 64.8956C181.622 64.9483 181.597 64.9978 181.562 65.0411C181.527 65.0843 181.483 65.1204 181.433 65.1471L180.155 65.8443L180.234 66.1835C180.299 66.462 180.332 66.7462 180.334 67.0314C180.333 67.3168 180.298 67.6013 180.229 67.8793L180.155 68.2184L181.433 68.9156C181.483 68.9424 181.528 68.9786 181.563 69.0222C181.599 69.0658 181.625 69.1158 181.639 69.1692C181.654 69.2225 181.656 69.2781 181.647 69.3325C181.638 69.3869 181.618 69.439 181.587 69.4856Z" fill="#869CA7"/>
<g clip-path="url(#clip0_2401_2925)">
<path d="M169.725 74.3968C169.487 74.4823 169.281 74.6327 169.133 74.8291C168.986 75.0254 168.903 75.2589 168.895 75.4999C168.887 75.741 168.955 75.9787 169.09 76.1832C169.225 76.3876 169.421 76.5496 169.653 76.6485C169.885 76.7475 170.143 76.779 170.394 76.7392C170.645 76.6993 170.878 76.5898 171.063 76.4245C171.249 76.2592 171.378 76.0456 171.435 75.8106C171.492 75.5756 171.475 75.3299 171.385 75.1044C171.263 74.8021 171.021 74.5576 170.709 74.4249C170.398 74.2922 170.044 74.2821 169.725 74.3968ZM170.409 76.1067C170.29 76.1495 170.161 76.1579 170.037 76.1308C169.913 76.1037 169.8 76.0424 169.713 75.9546C169.626 75.8668 169.568 75.7565 169.547 75.6376C169.526 75.5186 169.542 75.3965 169.595 75.2866C169.647 75.1766 169.732 75.0838 169.84 75.0199C169.948 74.9559 170.074 74.9238 170.201 74.9274C170.328 74.931 170.451 74.9703 170.555 75.0403C170.658 75.1103 170.738 75.2078 170.783 75.3206C170.843 75.4717 170.838 75.6395 170.768 75.7869C170.698 75.9344 170.569 76.0494 170.409 76.1067Z" fill="#869CA7"/>
<path d="M173.924 74.9421L173.419 74.8661C173.353 74.5658 173.237 74.2772 173.076 74.0111L173.401 73.6368C173.478 73.5481 173.536 73.446 173.57 73.3362C173.605 73.2265 173.617 73.1113 173.605 72.9973C173.593 72.8832 173.557 72.7726 173.5 72.6716C173.443 72.5707 173.365 72.4814 173.271 72.409L172.808 72.0506C172.617 71.9088 172.374 71.8438 172.133 71.8695C171.892 71.8953 171.671 72.0097 171.518 72.1883L171.194 72.5654C170.884 72.4697 170.561 72.4187 170.235 72.4143L170.047 71.9441C169.959 71.7302 169.785 71.5581 169.563 71.4649C169.342 71.3718 169.091 71.3652 168.864 71.4467L168.304 71.6477C168.076 71.7297 167.892 71.8942 167.792 72.105C167.692 72.3159 167.684 72.5558 167.77 72.7719L167.947 73.2137C167.707 73.4216 167.5 73.6628 167.336 73.929L166.829 73.8501C166.589 73.8111 166.343 73.8636 166.144 73.9962C165.945 74.1288 165.81 74.3307 165.767 74.5578L165.677 75.1314C165.637 75.3584 165.693 75.591 165.833 75.7792C165.973 75.9674 166.185 76.0961 166.424 76.1376L166.929 76.2136C166.995 76.5139 167.11 76.8024 167.271 77.0686L166.946 77.4429C166.795 77.6234 166.725 77.8534 166.752 78.0825C166.78 78.3116 166.902 78.5212 167.091 78.6653L167.555 79.0236C167.745 79.1688 167.987 79.2372 168.23 79.2141C168.472 79.191 168.695 79.0782 168.851 78.9003L169.175 78.5231C169.484 78.6188 169.807 78.6698 170.133 78.6742L170.313 79.1245C170.4 79.3399 170.574 79.5138 170.796 79.6081C171.018 79.7024 171.271 79.7094 171.499 79.6276L172.058 79.4266C172.286 79.3446 172.471 79.1801 172.571 78.9692C172.671 78.7584 172.679 78.5185 172.592 78.3023L172.415 77.8606C172.656 77.6527 172.862 77.4115 173.027 77.1453L173.533 77.2241C173.653 77.2426 173.775 77.2385 173.893 77.2122C174.01 77.1859 174.121 77.1378 174.22 77.0708C174.318 77.0037 174.401 76.919 174.464 76.8214C174.528 76.7239 174.57 76.6154 174.59 76.5023L174.686 75.9429C174.723 75.7147 174.664 75.4816 174.522 75.2942C174.379 75.1069 174.164 74.9804 173.924 74.9421ZM174.048 75.846L173.967 76.3999C173.956 76.4684 173.916 76.5296 173.857 76.5704C173.798 76.6112 173.724 76.6282 173.652 76.6176L172.687 76.4687L172.581 76.6667C172.406 76.9994 172.157 77.2916 171.85 77.5226L171.665 77.661L172.007 78.516C172.033 78.581 172.03 78.6531 172 78.7165C171.97 78.7799 171.915 78.8294 171.846 78.854L171.272 79.0605C171.203 79.0851 171.127 79.0829 171.06 79.0544C170.993 79.0259 170.941 78.9733 170.915 78.9083L170.573 78.0533L170.337 78.0663C169.946 78.0863 169.554 78.0243 169.191 77.8848L168.973 77.8035L168.355 78.521C168.308 78.5738 168.241 78.6072 168.168 78.6141C168.132 78.6178 168.096 78.6146 168.061 78.6046C168.027 78.5947 167.994 78.5783 167.966 78.5563L167.503 78.1979C167.473 78.1765 167.448 78.1495 167.429 78.1185C167.411 78.0875 167.399 78.0533 167.395 78.0179C167.391 77.9825 167.394 77.9466 167.405 77.9125C167.416 77.8785 167.434 77.8468 167.458 77.8196L168.074 77.1061L167.944 76.9182C167.837 76.7637 167.748 76.599 167.678 76.4268C167.61 76.2539 167.562 76.0742 167.536 75.8911L167.499 75.6697L166.546 75.5396C166.51 75.534 166.475 75.5217 166.444 75.5035C166.413 75.4852 166.386 75.4613 166.365 75.4331C166.344 75.405 166.329 75.3732 166.321 75.3395C166.313 75.3058 166.312 75.2709 166.318 75.2368L166.414 74.6775C166.425 74.6091 166.465 74.5478 166.524 74.507C166.583 74.4662 166.657 74.4492 166.729 74.4598L167.694 74.6087L167.8 74.4107C167.975 74.078 168.224 73.7858 168.531 73.5548L168.717 73.4164L168.374 72.5615C168.36 72.5291 168.354 72.4944 168.354 72.4595C168.355 72.4245 168.362 72.39 168.377 72.358C168.392 72.326 168.413 72.2971 168.44 72.273C168.467 72.2489 168.498 72.2301 168.533 72.2177L169.092 72.0167C169.161 71.992 169.237 71.9942 169.304 72.0227C169.371 72.0513 169.423 72.1038 169.449 72.1688L169.791 73.0238L170.027 73.0108C170.418 72.9909 170.81 73.0528 171.173 73.1923L171.391 73.2736L172.009 72.5561C172.056 72.5033 172.123 72.4699 172.195 72.4631C172.231 72.4594 172.268 72.4626 172.303 72.4725C172.337 72.4824 172.37 72.4989 172.397 72.5209L172.861 72.8792C172.89 72.9007 172.915 72.9276 172.933 72.9584C172.951 72.9891 172.963 73.0231 172.967 73.0581C172.971 73.0932 172.968 73.1287 172.957 73.1624C172.946 73.1962 172.928 73.2276 172.904 73.2547L172.3 73.9543L172.43 74.1422C172.537 74.2966 172.626 74.4613 172.696 74.6335C172.765 74.8064 172.812 74.9861 172.838 75.1692L172.875 75.3906L173.817 75.5346C173.854 75.5398 173.89 75.5521 173.922 75.5707C173.954 75.5894 173.982 75.614 174.003 75.6432C174.025 75.6723 174.04 75.7053 174.048 75.7402C174.056 75.7751 174.056 75.8111 174.048 75.846Z" fill="#869CA7"/>
</g>
<g clip-path="url(#clip1_2401_2925)">
<path d="M180.684 74.3993C180.504 74.4818 180.353 74.6132 180.251 74.7769C180.149 74.9406 180.101 75.1293 180.112 75.319C180.123 75.5087 180.194 75.691 180.314 75.8428C180.435 75.9946 180.6 76.1091 180.79 76.1718C180.979 76.2346 181.184 76.2427 181.378 76.1952C181.572 76.1477 181.747 76.0467 181.881 75.905C182.014 75.7632 182.101 75.5872 182.129 75.399C182.157 75.2108 182.125 75.019 182.038 74.8478C181.921 74.6183 181.713 74.442 181.459 74.3579C181.205 74.2738 180.927 74.2887 180.684 74.3993ZM181.345 75.6977C181.254 75.7389 181.153 75.7538 181.054 75.7406C180.954 75.7273 180.862 75.6865 180.787 75.6232C180.712 75.5599 180.659 75.477 180.634 75.385C180.609 75.293 180.613 75.196 180.646 75.1063C180.679 75.0166 180.739 74.9383 180.82 74.8811C180.9 74.824 180.996 74.7906 181.096 74.7853C181.196 74.7799 181.296 74.8028 181.382 74.8511C181.468 74.8993 181.538 74.9708 181.581 75.0564C181.64 75.1711 181.648 75.3032 181.603 75.4235C181.559 75.5437 181.466 75.6424 181.345 75.6977Z" fill="#869CA7"/>
<path d="M184.02 74.5563L183.618 74.5293C183.545 74.2978 183.433 74.0787 183.288 73.8801L183.516 73.5653C183.57 73.4907 183.608 73.4068 183.627 73.3184C183.647 73.23 183.648 73.1388 183.63 73.0501C183.612 72.9613 183.576 72.8767 183.524 72.8012C183.472 72.7256 183.404 72.6606 183.326 72.6097L182.936 72.3583C182.776 72.2593 182.581 72.2239 182.393 72.2597C182.206 72.2954 182.04 72.3995 181.933 72.5496L181.706 72.8666C181.456 72.8114 181.198 72.7923 180.942 72.8098L180.761 72.4528C180.676 72.2906 180.527 72.1666 180.347 72.1078C180.166 72.049 179.968 72.0601 179.796 72.1386L179.371 72.3326C179.198 72.4116 179.065 72.5527 179.002 72.7247C178.938 72.8967 178.95 73.0855 179.033 73.2496L179.204 73.585C179.03 73.7638 178.885 73.9664 178.775 74.1861L178.372 74.1569C178.18 74.1416 177.991 74.1988 177.844 74.3157C177.697 74.4327 177.606 74.5999 177.589 74.7809L177.559 75.2371C177.544 75.4179 177.605 75.5969 177.728 75.7356C177.851 75.8743 178.027 75.9617 178.218 75.9789L178.62 76.006C178.693 76.2375 178.804 76.4565 178.95 76.6551L178.722 76.97C178.616 77.1215 178.578 77.3065 178.615 77.4846C178.653 77.6627 178.764 77.8194 178.923 77.9203L179.313 78.1717C179.472 78.2734 179.668 78.3115 179.856 78.2777C180.045 78.2439 180.212 78.141 180.322 77.9912L180.549 77.6742C180.799 77.7294 181.056 77.7486 181.312 77.731L181.486 78.0729C181.57 78.2364 181.719 78.3617 181.9 78.4214C182.081 78.4811 182.28 78.4703 182.453 78.3914L182.878 78.1975C183.051 78.1184 183.184 77.9773 183.247 77.8054C183.311 77.6334 183.299 77.4445 183.216 77.2804L183.045 76.945C183.219 76.7662 183.364 76.5636 183.474 76.344L183.877 76.3732C183.973 76.3799 184.068 76.3689 184.159 76.3406C184.249 76.3124 184.333 76.2675 184.405 76.2085C184.477 76.1495 184.537 76.0776 184.579 75.997C184.622 75.9163 184.648 75.8284 184.655 75.7383L184.69 75.2929C184.703 75.1113 184.64 74.9321 184.515 74.7943C184.389 74.6564 184.212 74.5709 184.02 74.5563ZM184.183 75.258L184.159 75.6981C184.155 75.7526 184.128 75.8032 184.085 75.8391C184.041 75.8749 183.984 75.893 183.927 75.8893L183.159 75.8347L183.09 75.997C182.977 76.2694 182.802 76.515 182.577 76.7161L182.442 76.8367L182.772 77.4859C182.797 77.5352 182.8 77.592 182.781 77.6437C182.762 77.6955 182.722 77.7379 182.67 77.7616L182.234 77.9608C182.182 77.9846 182.122 77.9878 182.067 77.9697C182.013 77.9516 181.968 77.9137 181.943 77.8644L181.613 77.2152L181.429 77.2406C181.123 77.2815 180.811 77.2581 180.516 77.1721L180.338 77.1224L179.905 77.7255C179.872 77.77 179.822 77.8005 179.765 77.8106C179.737 77.8158 179.708 77.8156 179.681 77.8101C179.653 77.8045 179.626 77.7937 179.603 77.7782L179.213 77.5268C179.188 77.5119 179.166 77.4923 179.149 77.4692C179.133 77.4461 179.121 77.42 179.115 77.3925C179.109 77.3649 179.109 77.3366 179.115 77.3091C179.122 77.2816 179.134 77.2556 179.151 77.2327L179.583 76.6327L179.467 76.4936C179.372 76.3793 179.291 76.2557 179.223 76.125C179.157 75.9937 179.107 75.8557 179.073 75.7136L179.028 75.5421L178.27 75.5016C178.242 75.4995 178.214 75.4921 178.188 75.4797C178.162 75.4674 178.14 75.4503 178.121 75.4296C178.102 75.4089 178.088 75.3849 178.079 75.3589C178.071 75.333 178.067 75.3057 178.07 75.2785L178.105 74.8332C178.109 74.7787 178.136 74.7281 178.179 74.6922C178.223 74.6564 178.279 74.6383 178.337 74.642L179.105 74.6966L179.174 74.5343C179.287 74.2619 179.462 74.0164 179.686 73.8152L179.822 73.6946L179.492 73.0454C179.479 73.0209 179.471 72.9941 179.469 72.9667C179.467 72.9392 179.47 72.9116 179.48 72.8855C179.489 72.8594 179.503 72.8353 179.523 72.8147C179.542 72.7941 179.565 72.7773 179.592 72.7653L180.016 72.5714C180.068 72.5476 180.128 72.5444 180.183 72.5625C180.238 72.5806 180.282 72.6185 180.307 72.6678L180.638 73.317L180.822 73.2916C181.128 73.2507 181.439 73.2741 181.734 73.3601L181.912 73.4098L182.345 72.8067C182.378 72.7622 182.428 72.7317 182.485 72.7216C182.513 72.7164 182.542 72.7166 182.57 72.7221C182.598 72.7277 182.624 72.7385 182.648 72.754L183.037 73.0054C183.062 73.0204 183.083 73.0399 183.1 73.0629C183.116 73.0859 183.128 73.1118 183.133 73.139C183.139 73.1663 183.139 73.1944 183.133 73.2216C183.127 73.2488 183.115 73.2746 183.098 73.2974L182.674 73.8856L182.79 74.0247C182.885 74.1391 182.967 74.2626 183.034 74.3933C183.1 74.5246 183.15 74.6627 183.184 74.8047L183.229 74.9762L183.979 75.0285C184.008 75.0301 184.037 75.0374 184.064 75.05C184.09 75.0626 184.114 75.0802 184.133 75.1016C184.152 75.1231 184.166 75.1481 184.175 75.1749C184.183 75.2018 184.186 75.2301 184.183 75.258Z" fill="#869CA7"/>
</g>
<defs>
<filter id="filter0_dd_2401_2925" x="0" y="0" width="253" height="160.161" filterUnits="userSpaceOnUse" color-interpolation-filters="sRGB">
<feFlood flood-opacity="0" result="BackgroundImageFix"/>
<feColorMatrix in="SourceAlpha" type="matrix" values="0 0 0 0 0 0 0 0 0 0 0 0 0 0 0 0 0 0 127 0" result="hardAlpha"/>
<feMorphology radius="4" operator="erode" in="SourceAlpha" result="effect1_dropShadow_2401_2925"/>
<feOffset dy="4"/>
<feGaussianBlur stdDeviation="2"/>
<feComposite in2="hardAlpha" operator="out"/>
<feColorMatrix type="matrix" values="0 0 0 0 0.0470588 0 0 0 0 0.0470588 0 0 0 0 0.0509804 0 0 0 0.05 0"/>
<feBlend mode="normal" in2="BackgroundImageFix" result="effect1_dropShadow_2401_2925"/>
<feColorMatrix in="SourceAlpha" type="matrix" values="0 0 0 0 0 0 0 0 0 0 0 0 0 0 0 0 0 0 127 0" result="hardAlpha"/>
<feMorphology radius="4" operator="erode" in="SourceAlpha" result="effect2_dropShadow_2401_2925"/>
<feOffset dy="16"/>
<feGaussianBlur stdDeviation="16"/>
<feComposite in2="hardAlpha" operator="out"/>
<feColorMatrix type="matrix" values="0 0 0 0 0.0470588 0 0 0 0 0.0470588 0 0 0 0 0.0509804 0 0 0 0.1 0"/>
<feBlend mode="normal" in2="effect1_dropShadow_2401_2925" result="effect2_dropShadow_2401_2925"/>
<feBlend mode="normal" in="SourceGraphic" in2="effect2_dropShadow_2401_2925" result="shape"/>
</filter>
<linearGradient id="paint0_linear_2401_2925" x1="126.5" y1="12" x2="29.4777" y2="117.52" gradientUnits="userSpaceOnUse">
<stop stop-color="#00436C"/>
<stop offset="1" stop-color="#2360A0"/>
</linearGradient>
<clipPath id="clip0_2401_2925">
<rect width="10.228" height="9.82336" fill="white" transform="matrix(0.941086 -0.338166 0.371616 0.928386 163.543 72.707)"/>
</clipPath>
<clipPath id="clip1_2401_2925">
<rect width="8.0339" height="7.76843" fill="white" transform="matrix(0.909681 -0.415307 0.453311 0.891353 175.71 73.4707)"/>
</clipPath>
</defs>
</svg>
