<svg width="26" height="22" viewBox="0 0 26 22" fill="none" xmlns="http://www.w3.org/2000/svg">
<path d="M10.1648 8.5C10.1648 9.16304 10.4253 9.79893 10.8891 10.2678C11.3528 10.7366 11.9818 11 12.6377 11C13.2935 11 13.9225 10.7366 14.3863 10.2678C14.85 9.79893 15.1105 9.16304 15.1105 8.5C15.1105 7.83696 14.85 7.20107 14.3863 6.73223C13.9225 6.26339 13.2935 6 12.6377 6C11.9818 6 11.3528 6.26339 10.8891 6.73223C10.4253 7.20107 10.1648 7.83696 10.1648 8.5Z" stroke="#7C7C7C" stroke-width="2" stroke-linecap="round" stroke-linejoin="round"/>
<path d="M13.9335 15.9275C13.5033 15.9771 13.0707 16.0013 12.6377 16C8.18653 16 4.47722 13.5 1.50977 8.5C4.47722 3.5 8.18653 1 12.6377 1C17.0889 1 20.7982 3.5 23.7656 8.5C23.2592 9.35986 22.6966 10.1846 22.0816 10.9688M25.0021 21L18.8199 14.75M18.8199 21L25.0021 14.75" stroke="#7C7C7C" stroke-width="2" stroke-linecap="round" stroke-linejoin="round"/>
</svg>
