<svg width="15" height="20" viewBox="0 0 15 20" fill="none" xmlns="http://www.w3.org/2000/svg">
<path d="M14.8295 8.57143H8.86364C8.32115 8.57143 7.80088 8.34566 7.41728 7.9438C7.03368 7.54194 6.81818 6.99689 6.81818 6.42857V0.178571C6.81818 0.131211 6.80022 0.085791 6.76826 0.0523024C6.73629 0.0188138 6.69293 0 6.64773 0H2.72727C2.00396 0 1.31026 0.30102 0.7988 0.836838C0.287337 1.37266 0 2.09938 0 2.85714V17.1429C0 17.9006 0.287337 18.6273 0.7988 19.1632C1.31026 19.699 2.00396 20 2.72727 20H12.2727C12.996 20 13.6897 19.699 14.2012 19.1632C14.7127 18.6273 15 17.9006 15 17.1429V8.75C15 8.70264 14.982 8.65722 14.9501 8.62373C14.9181 8.59024 14.8748 8.57143 14.8295 8.57143Z" fill="#656565"/>
</svg>
