<svg width="6" height="6" viewBox="0 0 6 6" fill="none" xmlns="http://www.w3.org/2000/svg">
<path d="M5.97639 5.86157L0.138429 0.0236101C0.127076 0.0123241 0.11264 0.00464621 0.0969358 0.00154155C0.0812314 -0.00156311 0.0649587 4.41205e-05 0.0501651 0.0061611C0.0353716 0.0122781 0.0227168 0.0226319 0.013791 0.0359208C0.0048652 0.0492098 6.72117e-05 0.0648408 0 0.080849V5.35048C0 5.52274 0.0684308 5.68795 0.190239 5.80976C0.312048 5.93157 0.477256 6 0.649519 6H5.91915C5.93516 5.99993 5.95079 5.99513 5.96408 5.98621C5.97737 5.97728 5.98772 5.96463 5.99384 5.94983C5.99996 5.93504 6.00156 5.91877 5.99846 5.90306C5.99535 5.88736 5.98768 5.87292 5.97639 5.86157Z" fill="#656565"/>
</svg>
