<svg width="253" height="161" viewBox="0 0 253 161" fill="none" xmlns="http://www.w3.org/2000/svg">
<g filter="url(#filter0_dd_2401_2963)">
<path d="M28 22C28 16.4772 32.4558 12 37.9787 12C64.1059 12 133.057 12 141.042 12C150.919 12 155.584 34.4555 164.089 34.4555C170.242 34.4555 199.368 34.4555 215.01 34.4555C220.533 34.4555 225 38.9327 225 44.4555V106.161C225 111.684 220.523 116.161 215 116.161H38C32.4771 116.161 28 111.684 28 106.161V22Z" fill="url(#paint0_linear_2401_2963)"/>
</g>
<path d="M40.2065 37L35.0893 22.6836H38.2241L41.8471 33.2793L45.353 22.6836H48.4194L43.2924 37H40.2065ZM49.5034 25.2227V22.6836H52.2475V25.2227H49.5034ZM49.5034 37V26.6289H52.2475V37H49.5034ZM64.5815 37H62.0327V35.4766C61.6095 36.069 61.1082 36.5117 60.5288 36.8047C59.9559 37.0911 59.3764 37.2344 58.7905 37.2344C57.5991 37.2344 56.5769 36.7559 55.7241 35.7988C54.8777 34.8353 54.4545 33.4941 54.4545 31.7754C54.4545 30.0176 54.868 28.6829 55.6948 27.7715C56.5216 26.8535 57.5665 26.3945 58.8295 26.3945C59.9884 26.3945 60.991 26.8763 61.8374 27.8398V22.6836H64.5815V37ZM57.2573 31.5898C57.2573 32.6966 57.4103 33.4974 57.7163 33.9922C58.159 34.7083 58.7775 35.0664 59.5717 35.0664C60.2032 35.0664 60.7404 34.7995 61.1831 34.2656C61.6258 33.7253 61.8471 32.9212 61.8471 31.8535C61.8471 30.6621 61.6323 29.806 61.2026 29.2852C60.7729 28.7578 60.2228 28.4941 59.5522 28.4941C58.9012 28.4941 58.3543 28.7546 57.9116 29.2754C57.4754 29.7897 57.2573 30.5612 57.2573 31.5898ZM73.3022 33.6992L76.0366 34.1582C75.685 35.1608 75.1284 35.9258 74.3667 36.4531C73.6114 36.974 72.6642 37.2344 71.5249 37.2344C69.7215 37.2344 68.3868 36.6452 67.521 35.4668C66.8374 34.5228 66.4956 33.3314 66.4956 31.8926C66.4956 30.1738 66.9448 28.8294 67.8432 27.8594C68.7417 26.8828 69.8777 26.3945 71.2514 26.3945C72.7944 26.3945 74.0118 26.9056 74.9038 27.9277C75.7957 28.9434 76.2221 30.5026 76.1831 32.6055H69.3081C69.3276 33.4193 69.5489 34.054 69.9721 34.5098C70.3953 34.959 70.9226 35.1836 71.5542 35.1836C71.9838 35.1836 72.3452 35.0664 72.6381 34.832C72.9311 34.5977 73.1525 34.2201 73.3022 33.6992ZM73.4585 30.9258C73.4389 30.1315 73.2338 29.5293 72.8432 29.1191C72.4526 28.7025 71.9773 28.4941 71.4174 28.4941C70.8185 28.4941 70.3237 28.7122 69.9331 29.1484C69.5424 29.5846 69.3504 30.1771 69.3569 30.9258H73.4585ZM77.7944 31.668C77.7944 30.7565 78.019 29.8743 78.4682 29.0215C78.9174 28.1686 79.5522 27.5176 80.3725 27.0684C81.1993 26.6191 82.1206 26.3945 83.1362 26.3945C84.7052 26.3945 85.991 26.9056 86.9936 27.9277C87.9962 28.9434 88.4975 30.2292 88.4975 31.7852C88.4975 33.3542 87.9897 34.6562 86.9741 35.6914C85.965 36.7201 84.6922 37.2344 83.1557 37.2344C82.2052 37.2344 81.297 37.0195 80.4311 36.5898C79.5717 36.1602 78.9174 35.5319 78.4682 34.7051C78.019 33.8717 77.7944 32.8594 77.7944 31.668ZM80.6069 31.8145C80.6069 32.8431 80.851 33.6309 81.3393 34.1777C81.8276 34.7246 82.4298 34.998 83.146 34.998C83.8621 34.998 84.4611 34.7246 84.9428 34.1777C85.4311 33.6309 85.6753 32.8366 85.6753 31.7949C85.6753 30.7793 85.4311 29.998 84.9428 29.4512C84.4611 28.9043 83.8621 28.6309 83.146 28.6309C82.4298 28.6309 81.8276 28.9043 81.3393 29.4512C80.851 29.998 80.6069 30.7858 80.6069 31.8145ZM89.6889 34.041L92.4428 33.6211C92.56 34.1549 92.7976 34.5618 93.1557 34.8418C93.5138 35.1152 94.0151 35.252 94.6596 35.252C95.3693 35.252 95.9031 35.1217 96.2612 34.8613C96.5021 34.679 96.6225 34.4349 96.6225 34.1289C96.6225 33.9206 96.5574 33.748 96.4272 33.6113C96.2905 33.4811 95.9845 33.3607 95.5092 33.25C93.2957 32.7617 91.8927 32.3158 91.3003 31.9121C90.4799 31.3522 90.0698 30.5742 90.0698 29.5781C90.0698 28.6797 90.4246 27.9245 91.1342 27.3125C91.8439 26.7005 92.9441 26.3945 94.435 26.3945C95.8543 26.3945 96.909 26.6257 97.5991 27.0879C98.2892 27.5501 98.7644 28.2337 99.0249 29.1387L96.437 29.6172C96.3263 29.2135 96.1147 28.9043 95.8022 28.6895C95.4962 28.4746 95.0568 28.3672 94.4838 28.3672C93.7612 28.3672 93.2436 28.4681 92.9311 28.6699C92.7228 28.8132 92.6186 28.9987 92.6186 29.2266C92.6186 29.4219 92.7098 29.5879 92.892 29.7246C93.1394 29.9069 93.9923 30.1641 95.4506 30.4961C96.9155 30.8281 97.9376 31.235 98.517 31.7168C99.09 32.2051 99.3764 32.8854 99.3764 33.7578C99.3764 34.7083 98.9793 35.5254 98.185 36.209C97.3907 36.8926 96.2156 37.2344 94.6596 37.2344C93.2469 37.2344 92.1271 36.9479 91.3003 36.375C90.4799 35.8021 89.9428 35.0241 89.6889 34.041Z" fill="white"/>
<path d="M164.667 65.7938H159.333V95.646C159.333 98.0022 161.72 99.9106 164.667 99.9106H202V95.646H164.667V65.7938ZM207.333 57.2646H175.333C172.387 57.2646 170 59.1731 170 61.5292V87.1168C170 89.473 172.387 91.3814 175.333 91.3814H207.333C210.28 91.3814 212.667 89.473 212.667 87.1168V61.5292C212.667 59.1731 210.28 57.2646 207.333 57.2646ZM186 83.9184V64.7277L202 74.323L186 83.9184Z" fill="#869CA7"/>
<defs>
<filter id="filter0_dd_2401_2963" x="0" y="0" width="253" height="160.161" filterUnits="userSpaceOnUse" color-interpolation-filters="sRGB">
<feFlood flood-opacity="0" result="BackgroundImageFix"/>
<feColorMatrix in="SourceAlpha" type="matrix" values="0 0 0 0 0 0 0 0 0 0 0 0 0 0 0 0 0 0 127 0" result="hardAlpha"/>
<feMorphology radius="4" operator="erode" in="SourceAlpha" result="effect1_dropShadow_2401_2963"/>
<feOffset dy="4"/>
<feGaussianBlur stdDeviation="2"/>
<feComposite in2="hardAlpha" operator="out"/>
<feColorMatrix type="matrix" values="0 0 0 0 0.0470588 0 0 0 0 0.0470588 0 0 0 0 0.0509804 0 0 0 0.05 0"/>
<feBlend mode="normal" in2="BackgroundImageFix" result="effect1_dropShadow_2401_2963"/>
<feColorMatrix in="SourceAlpha" type="matrix" values="0 0 0 0 0 0 0 0 0 0 0 0 0 0 0 0 0 0 127 0" result="hardAlpha"/>
<feMorphology radius="4" operator="erode" in="SourceAlpha" result="effect2_dropShadow_2401_2963"/>
<feOffset dy="16"/>
<feGaussianBlur stdDeviation="16"/>
<feComposite in2="hardAlpha" operator="out"/>
<feColorMatrix type="matrix" values="0 0 0 0 0.0470588 0 0 0 0 0.0470588 0 0 0 0 0.0509804 0 0 0 0.1 0"/>
<feBlend mode="normal" in2="effect1_dropShadow_2401_2963" result="effect2_dropShadow_2401_2963"/>
<feBlend mode="normal" in="SourceGraphic" in2="effect2_dropShadow_2401_2963" result="shape"/>
</filter>
<linearGradient id="paint0_linear_2401_2963" x1="126.5" y1="12" x2="29.4777" y2="117.52" gradientUnits="userSpaceOnUse">
<stop stop-color="#00436C"/>
<stop offset="1" stop-color="#2360A0"/>
</linearGradient>
</defs>
</svg>
