<svg width="73" height="73" viewBox="0 0 73 73" fill="none" xmlns="http://www.w3.org/2000/svg">
<path d="M36.5 73C56.6584 73 73 56.6584 73 36.5C73 16.3416 56.6584 0 36.5 0C16.3416 0 0 16.3416 0 36.5C0 56.6584 16.3416 73 36.5 73Z" fill="#31AF91"/>
<path d="M31.9953 52.85L15.1711 36.0258C14.943 35.7977 14.943 35.4555 15.1711 35.2273L20.0188 30.3797C20.2469 30.1516 20.5891 30.1516 20.8172 30.3797L32.3945 41.957L54.1805 20.1711C54.4086 19.943 54.7508 19.943 54.9789 20.1711L59.8266 25.0188C60.0547 25.2469 60.0547 25.5891 59.8266 25.8172L32.7938 52.85C32.5656 53.0781 32.2234 53.0781 31.9953 52.85Z" fill="white"/>
</svg>
