<svg width="58" height="35" viewBox="0 0 58 35" fill="none" xmlns="http://www.w3.org/2000/svg">
<path d="M47.3969 14.7292C47.3969 14.5833 47.4228 14.4375 47.4228 14.2917C47.4228 6.39236 40.7165 0 32.4438 0C26.4754 0 21.3487 3.32986 18.9406 8.14236C17.892 7.6441 16.7138 7.35243 15.471 7.35243C11.6518 7.35243 8.46696 10.0139 7.85848 13.4896C3.27545 14.9722 0 19.092 0 23.941C0 30.0417 5.19152 35 11.5871 35H24.8571V25.2778H18.617L29 15.1059L39.383 25.2656H33.1429V34.9878H47.4228C53.2746 34.9878 58 30.4306 58 24.8524C58 19.2743 53.2487 14.7413 47.3969 14.7292Z" fill="#00436C"/>
</svg>
